<svg xmlns="http://www.w3.org/2000/svg"  viewBox="0 0 48 48" width="24px" height="24px"><path d="M 25 0 C 24.448 0 24 0.448 24 1 L 24 3 C 24 3.552 24.448 4 25 4 C 26.197 4 26.748313 4.3670313 27.445312 4.8320312 C 28.226312 5.3530313 29.197 6 31 6 C 31.552 6 32 5.552 32 5 L 32 3 C 32 2.448 31.552 2 31 2 C 29.803 2 29.251687 1.6329688 28.554688 1.1679688 C 27.773688 0.64696875 26.803 0 25 0 z M 23.978516 7 A 1.50015 1.50015 0 0 0 22.939453 7.4394531 L 12.439453 17.939453 A 1.50015 1.50015 0 0 0 12 19 L 12 23 L 10.5 23 C 7.4802259 23 5 25.480226 5 28.5 L 5 44.5 A 1.50015 1.50015 0 0 0 6.5 46 L 19.5 46 A 1.50015 1.50015 0 0 0 21 44.5 L 21 39 C 21 37.343182 22.343182 36 24 36 C 25.656818 36 27 37.343182 27 39 L 27 44.5 A 1.50015 1.50015 0 0 0 28.5 46 L 41.5 46 A 1.50015 1.50015 0 0 0 43 44.5 L 43 28.5 C 43 25.480226 40.519774 23 37.5 23 L 36 23 L 36 19 A 1.50015 1.50015 0 0 0 35.560547 17.939453 L 25.060547 7.4394531 A 1.50015 1.50015 0 0 0 23.978516 7 z M 24 10.621094 L 33 19.621094 L 33 24.5 A 1.50015 1.50015 0 0 0 34.5 26 L 37.5 26 C 38.898226 26 40 27.101774 40 28.5 L 40 43 L 30 43 L 30 39 C 30 35.706818 27.293182 33 24 33 C 20.706818 33 18 35.706818 18 39 L 18 43 L 8 43 L 8 28.5 C 8 27.101774 9.1017741 26 10.5 26 L 13.5 26 A 1.50015 1.50015 0 0 0 15 24.5 L 15 19.621094 L 24 10.621094 z M 24 17 C 22.458334 17 21.112148 17.632133 20.253906 18.597656 C 19.395664 19.563179 19 20.791667 19 22 C 19 23.208333 19.395664 24.436821 20.253906 25.402344 C 21.112148 26.367867 22.458334 27 24 27 C 25.541666 27 26.887852 26.367867 27.746094 25.402344 C 28.604336 24.436821 29 23.208333 29 22 C 29 20.791667 28.604336 19.563179 27.746094 18.597656 C 26.887852 17.632133 25.541666 17 24 17 z M 24 20 C 24.791666 20 25.195482 20.242867 25.503906 20.589844 C 25.81233 20.936821 26 21.458333 26 22 C 26 22.541667 25.81233 23.063179 25.503906 23.410156 C 25.195482 23.757133 24.791666 24 24 24 C 23.208334 24 22.804518 23.757133 22.496094 23.410156 C 22.18767 23.063179 22 22.541667 22 22 C 22 21.458333 22.18767 20.936821 22.496094 20.589844 C 22.804518 20.242867 23.208334 20 24 20 z M 12 29 C 11.447 29 11 29.447 11 30 L 11 32 C 11 32.553 11.447 33 12 33 L 14 33 C 14.553 33 15 32.553 15 32 L 15 30 C 15 29.447 14.553 29 14 29 L 12 29 z M 34 29 C 33.447 29 33 29.447 33 30 L 33 32 C 33 32.553 33.447 33 34 33 L 36 33 C 36.553 33 37 32.553 37 32 L 37 30 C 37 29.447 36.553 29 36 29 L 34 29 z M 12 36 C 11.447 36 11 36.447 11 37 L 11 39 C 11 39.553 11.447 40 12 40 L 14 40 C 14.553 40 15 39.553 15 39 L 15 37 C 15 36.447 14.553 36 14 36 L 12 36 z M 34 36 C 33.447 36 33 36.447 33 37 L 33 39 C 33 39.553 33.447 40 34 40 L 36 40 C 36.553 40 37 39.553 37 39 L 37 37 C 37 36.447 36.553 36 36 36 L 34 36 z"/></svg>