<svg xmlns="http://www.w3.org/2000/svg"  viewBox="0 0 64 64" width="64px" height="64px"><path d="M 32 7 C 21.773 7 12.980281 13.184 9.1132812 22 L 7 22 C 6.447 22 6 22.448 6 23 L 6 41 C 6 41.552 6.447 42 7 42 L 9.1132812 42 C 12.980281 50.816 21.773 57 32 57 C 42.227 57 51.019719 50.816 54.886719 42 L 57 42 C 57.553 42 58 41.552 58 41 L 58 23 C 58 22.448 57.553 22 57 22 L 54.886719 22 C 51.019719 13.184 42.227 7 32 7 z M 32 9 C 41.098 9 48.965359 14.317 52.693359 22 L 11.306641 22 C 15.034641 14.317 22.902 9 32 9 z M 30.529297 11.052734 C 29.978297 11.090734 29.561609 11.568141 29.599609 12.119141 L 29.738281 14.113281 C 29.775281 14.641281 30.213375 15.044922 30.734375 15.044922 C 30.758375 15.044922 30.782641 15.043969 30.806641 15.042969 C 31.357641 15.004969 31.772375 14.525609 31.734375 13.974609 L 31.595703 11.980469 C 31.556703 11.429469 31.079297 11.017734 30.529297 11.052734 z M 35.751953 11.416016 C 35.37025 11.49425 35.052453 11.793469 34.970703 12.199219 L 34.574219 14.160156 C 34.465219 14.702156 34.816422 15.228891 35.357422 15.337891 C 35.423422 15.351891 35.491641 15.357422 35.556641 15.357422 C 36.022641 15.357422 36.438156 15.029687 36.535156 14.554688 L 36.931641 12.59375 C 37.040641 12.05175 36.689437 11.525016 36.148438 11.416016 C 36.013438 11.389016 35.879188 11.389938 35.751953 11.416016 z M 25.402344 12.142578 C 25.272813 12.135047 25.139266 12.152469 25.009766 12.199219 C 24.489766 12.383219 24.217344 12.953609 24.402344 13.474609 L 25.070312 15.359375 C 25.215312 15.770375 25.599719 16.027344 26.011719 16.027344 C 26.122719 16.027344 26.234703 16.00975 26.345703 15.96875 C 26.865703 15.78475 27.138125 15.212406 26.953125 14.691406 L 26.285156 12.806641 C 26.147156 12.415891 25.790937 12.165172 25.402344 12.142578 z M 41.087891 13.162109 C 40.698594 13.134313 40.314453 13.337281 40.126953 13.707031 L 39.220703 15.490234 C 38.970703 15.982234 39.166203 16.585938 39.658203 16.835938 C 39.803203 16.908938 39.957375 16.943359 40.109375 16.943359 C 40.474375 16.943359 40.826906 16.742484 41.003906 16.396484 L 41.908203 14.613281 C 42.158203 14.121281 41.962703 13.519531 41.470703 13.269531 C 41.346953 13.206531 41.217656 13.171375 41.087891 13.162109 z M 45.382812 16.210938 C 45.127188 16.222812 44.875453 16.332609 44.689453 16.537109 L 43.34375 18.015625 C 42.97075 18.424625 43.000203 19.055734 43.408203 19.427734 C 43.601203 19.602734 43.842031 19.689453 44.082031 19.689453 C 44.354031 19.689453 44.623312 19.578328 44.820312 19.361328 L 46.167969 17.884766 C 46.540969 17.475766 46.511516 16.842703 46.103516 16.470703 C 45.899016 16.284703 45.638437 16.199063 45.382812 16.210938 z M 8 24 L 56 24 L 56 40 L 8 40 L 8 24 z M 12.974609 26 C 12.872438 26.002547 12.769672 26.021891 12.669922 26.056641 C 12.269922 26.197641 12 26.575 12 27 L 12 37 C 12 37.552 12.447 38 13 38 C 13.553 38 14 37.552 14 37 L 14 29.851562 L 20.21875 37.625 C 20.41275 37.867 20.702 38 21 38 C 21.11 38 21.222078 37.980359 21.330078 37.943359 C 21.730078 37.802359 22 37.425 22 37 L 22 27 C 22 26.448 21.553 26 21 26 C 20.447 26 20 26.448 20 27 L 20 34.148438 L 13.78125 26.375 C 13.58175 26.126 13.281125 25.992359 12.974609 26 z M 25 26 C 24.447 26 24 26.448 24 27 L 24 32 L 24 37 C 24 37.552 24.447 38 25 38 L 31 38 C 31.553 38 32 37.552 32 37 C 32 36.448 31.553 36 31 36 L 26 36 L 26 33 L 30 33 C 30.553 33 31 32.552 31 32 C 31 31.448 30.553 31 30 31 L 26 31 L 26 28 L 31 28 C 31.553 28 32 27.552 32 27 C 32 26.448 31.553 26 31 26 L 25 26 z M 51 26 C 50.447 26 50 26.448 50 27 L 50 34 C 50 34.552 50.447 35 51 35 C 51.553 35 52 34.552 52 34 L 52 27 C 52 26.448 51.553 26 51 26 z M 46.800781 26.017578 C 46.418891 26.095438 46.101734 26.396234 46.021484 26.802734 L 44.544922 34.183594 L 41.869141 29.503906 C 41.514141 28.880906 40.487812 28.880906 40.132812 29.503906 L 37.457031 34.183594 L 35.980469 26.802734 C 35.871469 26.262734 35.351687 25.909531 34.804688 26.019531 C 34.263687 26.128531 33.911531 26.653312 34.019531 27.195312 L 36.019531 37.195312 C 36.101531 37.604312 36.427844 37.919328 36.839844 37.986328 C 37.253844 38.049328 37.660187 37.858094 37.867188 37.496094 L 41 32.015625 L 44.132812 37.496094 C 44.312813 37.811094 44.646 38 45 38 C 45.053 38 45.106109 37.995328 45.162109 37.986328 C 45.574109 37.919328 45.900422 37.604312 45.982422 37.195312 L 47.982422 27.195312 C 48.091422 26.653313 47.738266 26.127531 47.197266 26.019531 C 47.062266 25.991781 46.928078 25.991625 46.800781 26.017578 z M 51.003906 36.011719 C 50.742656 36.011719 50.479062 36.104062 50.289062 36.289062 C 50.108063 36.479062 50 36.74 50 37 C 50 37.27 50.108063 37.520938 50.289062 37.710938 C 50.338063 37.750938 50.389453 37.790078 50.439453 37.830078 C 50.500453 37.870078 50.558141 37.899922 50.619141 37.919922 C 50.679141 37.949922 50.740781 37.970469 50.800781 37.980469 C 50.870781 37.990469 50.93 38 51 38 C 51.26 38 51.520938 37.890937 51.710938 37.710938 C 51.890938 37.520938 52 37.26 52 37 C 52 36.93 51.990469 36.870781 51.980469 36.800781 C 51.970469 36.740781 51.949922 36.679141 51.919922 36.619141 C 51.898922 36.559141 51.870078 36.499219 51.830078 36.449219 C 51.790078 36.389219 51.750937 36.339062 51.710938 36.289062 C 51.525938 36.104062 51.265156 36.011719 51.003906 36.011719 z M 11.306641 42 L 52.693359 42 C 48.966359 49.683 41.098 55 32 55 C 22.902 55 15.034641 49.683 11.306641 42 z M 19.101562 43.498047 C 18.845688 43.493547 18.587672 43.585844 18.388672 43.777344 L 16.949219 45.167969 C 16.552219 45.551969 16.541781 46.183078 16.925781 46.580078 C 17.122781 46.784078 17.382531 46.886719 17.644531 46.886719 C 17.894531 46.886719 18.145844 46.792469 18.339844 46.605469 L 19.777344 45.216797 C 20.174344 44.832797 20.186734 44.199734 19.802734 43.802734 C 19.611234 43.604234 19.357437 43.502547 19.101562 43.498047 z M 44.900391 43.498047 C 44.644641 43.502547 44.389766 43.606188 44.197266 43.804688 C 43.813266 44.201687 43.825656 44.83475 44.222656 45.21875 L 45.660156 46.607422 C 45.854156 46.794422 46.105469 46.886719 46.355469 46.886719 C 46.617469 46.886719 46.878219 46.785031 47.074219 46.582031 C 47.458219 46.185031 47.447781 45.551969 47.050781 45.167969 L 45.611328 43.779297 C 45.412828 43.587797 45.156141 43.493547 44.900391 43.498047 z M 22.976562 46.486328 C 22.590641 46.433453 22.192719 46.611297 21.980469 46.966797 L 20.957031 48.683594 C 20.675031 49.158594 20.829687 49.771687 21.304688 50.054688 C 21.464688 50.150688 21.642406 50.195312 21.816406 50.195312 C 22.157406 50.195312 22.488781 50.022031 22.675781 49.707031 L 23.699219 47.988281 C 23.981219 47.513281 23.826563 46.900188 23.351562 46.617188 C 23.233062 46.546687 23.105203 46.503953 22.976562 46.486328 z M 41.021484 46.488281 C 40.892844 46.505953 40.766937 46.548391 40.648438 46.619141 C 40.173437 46.902141 40.018781 47.515234 40.300781 47.990234 L 41.324219 49.707031 C 41.511219 50.021031 41.842594 50.195312 42.183594 50.195312 C 42.356594 50.195313 42.533359 50.151641 42.693359 50.056641 C 43.168359 49.773641 43.324969 49.160547 43.042969 48.685547 L 42.019531 46.966797 C 41.807281 46.611297 41.407406 46.435266 41.021484 46.488281 z M 27.117188 48.369141 C 26.730938 48.420563 26.392703 48.695953 26.283203 49.095703 L 25.755859 51.025391 C 25.608859 51.558391 25.921125 52.107906 26.453125 52.253906 C 26.542125 52.277906 26.632703 52.289062 26.720703 52.289062 C 27.158703 52.289062 27.562594 51.998688 27.683594 51.554688 L 28.212891 49.625 C 28.359891 49.092 28.045672 48.542484 27.513672 48.396484 C 27.380672 48.359984 27.245937 48.352 27.117188 48.369141 z M 36.882812 48.369141 C 36.754063 48.352047 36.619328 48.359734 36.486328 48.396484 C 35.954328 48.542484 35.641109 49.092 35.787109 49.625 L 36.316406 51.554688 C 36.437406 51.998688 36.841297 52.289062 37.279297 52.289062 C 37.367297 52.289062 37.457875 52.277906 37.546875 52.253906 C 38.078875 52.107906 38.390141 51.558391 38.244141 51.025391 L 37.716797 49.095703 C 37.607297 48.695953 37.269062 48.420422 36.882812 48.369141 z M 32 49 C 31.447 49 31 49.448 31 50 L 31 52 C 31 52.552 31.447 53 32 53 C 32.553 53 33 52.552 33 52 L 33 50 C 33 49.448 32.553 49 32 49 z"/></svg>