<svg xmlns="http://www.w3.org/2000/svg"  viewBox="0 0 48 48" width="48px" height="48px"><path d="M 25 0 C 24.448 0 24 0.448 24 1 L 24 3 C 24 3.552 24.448 4 25 4 C 26.197 4 26.748313 4.3670313 27.445312 4.8320312 C 28.226312 5.3530313 29.197 6 31 6 C 31.552 6 32 5.552 32 5 L 32 3 C 32 2.448 31.552 2 31 2 C 29.803 2 29.251687 1.6329688 28.554688 1.1679688 C 27.773688 0.64696875 26.803 0 25 0 z M 24 7.2910156 C 23.441024 7.2910583 22.881273 7.4760828 22.425781 7.8457031 L 19.179688 10.472656 A 1.50015 1.50015 0 1 0 21.066406 12.804688 L 24 10.429688 L 33 17.714844 L 33 24.5 A 1.50015 1.50015 0 0 0 34.5 26 L 37.5 26 C 38.898226 26 40 27.101774 40 28.5 L 40 43 L 33 43 A 1.50015 1.50015 0 1 0 33 46 L 40.5 46 C 41.863594 46 43 44.863594 43 43.5 L 43 28.5 C 43 25.480226 40.519774 23 37.5 23 L 36 23 L 36 17.476562 C 36 16.724231 35.657529 16.006395 35.072266 15.533203 L 25.572266 7.84375 C 25.116876 7.4752195 24.558976 7.290973 24 7.2910156 z M 16.099609 13.365234 A 1.50015 1.50015 0 0 0 15.175781 13.712891 L 12.927734 15.535156 C 12.343347 16.008361 12 16.724847 12 17.476562 L 12 23 L 10.5 23 C 7.4802259 23 5 25.480226 5 28.5 L 5 43.5 C 5 44.863594 6.1364058 46 7.5 46 L 13.808594 46 A 1.50015 1.50015 0 1 0 13.808594 43 L 8 43 L 8 28.5 C 8 27.101774 9.1017741 26 10.5 26 L 13.5 26 A 1.50015 1.50015 0 0 0 15 24.5 L 15 17.714844 L 17.064453 16.044922 A 1.50015 1.50015 0 0 0 16.099609 13.365234 z M 24 16 C 22.458334 16 21.112148 16.632133 20.253906 17.597656 C 19.395664 18.563179 19 19.791667 19 21 C 19 22.208333 19.395664 23.436821 20.253906 24.402344 C 21.112148 25.367867 22.458334 26 24 26 C 25.541666 26 26.887852 25.367867 27.746094 24.402344 C 28.604336 23.436821 29 22.208333 29 21 C 29 19.791667 28.604336 18.563179 27.746094 17.597656 C 26.887852 16.632133 25.541666 16 24 16 z M 24 19 C 24.791666 19 25.195482 19.242867 25.503906 19.589844 C 25.81233 19.936821 26 20.458333 26 21 C 26 21.541667 25.81233 22.063179 25.503906 22.410156 C 25.195482 22.757133 24.791666 23 24 23 C 23.208334 23 22.804518 22.757133 22.496094 22.410156 C 22.18767 22.063179 22 21.541667 22 21 C 22 20.458333 22.18767 19.936821 22.496094 19.589844 C 22.804518 19.242867 23.208334 19 24 19 z M 12 29 C 11.447 29 11 29.447 11 30 L 11 32 C 11 32.553 11.447 33 12 33 L 14 33 C 14.553 33 15 32.553 15 32 L 15 30 C 15 29.447 14.553 29 14 29 L 12 29 z M 19 29 C 18.447 29 18 29.447 18 30 L 18 32 C 18 32.553 18.447 33 19 33 L 21 33 C 21.553 33 22 32.553 22 32 L 22 30 C 22 29.447 21.553 29 21 29 L 19 29 z M 27 29 C 26.447 29 26 29.447 26 30 L 26 32 C 26 32.553 26.447 33 27 33 L 29 33 C 29.553 33 30 32.553 30 32 L 30 30 C 30 29.447 29.553 29 29 29 L 27 29 z M 34 29 C 33.447 29 33 29.447 33 30 L 33 32 C 33 32.553 33.447 33 34 33 L 36 33 C 36.553 33 37 32.553 37 32 L 37 30 C 37 29.447 36.553 29 36 29 L 34 29 z M 24.044922 35.001953 C 23.827781 34.999983 23.608197 35.008937 23.386719 35.03125 C 20.236771 35.349754 18 38.139857 18 41.212891 L 18 44.5 A 1.50015 1.50015 0 1 0 21 44.5 L 21 41.212891 C 21 39.59256 22.170316 38.170057 23.6875 38.015625 C 25.503853 37.832634 27 39.241671 27 41 L 27 44.5 A 1.50015 1.50015 0 1 0 30 44.5 L 30 41 C 30 37.722808 27.302037 35.031511 24.044922 35.001953 z M 12 36 C 11.447 36 11 36.447 11 37 L 11 39 C 11 39.553 11.447 40 12 40 L 14 40 C 14.553 40 15 39.553 15 39 L 15 37 C 15 36.447 14.553 36 14 36 L 12 36 z M 34 36 C 33.447 36 33 36.447 33 37 L 33 39 C 33 39.553 33.447 40 34 40 L 36 40 C 36.553 40 37 39.553 37 39 L 37 37 C 37 36.447 36.553 36 36 36 L 34 36 z"/></svg>