<svg xmlns="http://www.w3.org/2000/svg"  viewBox="0 0 64 64" width="64px" height="64px"><path d="M 29 2 C 13.011719 2 0 15.011719 0 31 C 0 46.402344 12.074219 59.023438 27.253906 59.933594 C 26.941406 60.742188 26.976563 61.652344 27.402344 62.433594 C 27.925781 63.398438 28.933594 64 30.035156 64 L 60.316406 64 C 61.417969 64 62.425781 63.398438 62.953125 62.433594 C 63.480469 61.464844 63.433594 60.289063 62.832031 59.363281 L 53.964844 45.699219 C 56.515625 41.382813 58 36.367188 58 31 C 58 15.011719 44.988281 2 29 2 Z M 29 4 C 43.886719 4 56 16.113281 56 31 C 56 35.636719 54.808594 39.996094 52.738281 43.8125 L 50.175781 39.867188 C 53.664063 31.515625 52.046875 21.519531 45.265625 14.734375 C 44.605469 14.078125 43.902344 13.453125 43.171875 12.878906 C 42.734375 12.539063 42.105469 12.617188 41.765625 13.050781 C 41.425781 13.484375 41.5 14.113281 41.9375 14.453125 C 42.605469 14.976563 43.25 15.546875 43.847656 16.148438 C 49.699219 22 51.359375 30.46875 48.847656 37.816406 L 47.691406 36.035156 C 47.136719 35.183594 46.199219 34.671875 45.175781 34.671875 C 44.15625 34.671875 43.214844 35.183594 42.660156 36.035156 L 32.515625 51.667969 C 28.550781 52.351563 24.347656 51.929688 20.40625 50.160156 C 9.839844 45.425781 5.101563 32.972656 9.835938 22.40625 C 13.722656 13.742188 22.96875 8.746094 32.339844 10.261719 C 32.882813 10.351563 33.394531 9.980469 33.484375 9.433594 C 33.570313 8.886719 33.199219 8.375 32.65625 8.289063 C 22.40625 6.632813 12.269531 12.101563 8.015625 21.589844 C 2.824219 33.160156 8.019531 46.796875 19.589844 51.984375 C 22.636719 53.351563 25.824219 54 28.96875 54 C 29.671875 54 30.375 53.953125 31.074219 53.890625 L 28.414063 57.984375 C 13.796875 57.671875 2 45.691406 2 31 C 2 16.113281 14.113281 4 29 4 Z M 36.65625 9.386719 C 36.269531 9.402344 35.910156 9.648438 35.765625 10.035156 C 35.570313 10.554688 35.832031 11.128906 36.351563 11.324219 C 37.0625 11.589844 37.765625 11.894531 38.453125 12.238281 C 38.597656 12.3125 38.75 12.347656 38.902344 12.347656 C 39.265625 12.347656 39.617188 12.148438 39.796875 11.796875 C 40.042969 11.308594 39.84375 10.703125 39.351563 10.453125 C 38.605469 10.078125 37.828125 9.738281 37.050781 9.445313 C 36.921875 9.398438 36.789063 9.382813 36.65625 9.386719 Z M 29 14 C 28.445313 14 28 14.445313 28 15 L 28 17 C 28 17.554688 28.445313 18 29 18 C 29.554688 18 30 17.554688 30 17 L 30 15 C 30 14.445313 29.554688 14 29 14 Z M 34.980469 15.167969 C 34.589844 15.171875 34.222656 15.40625 34.066406 15.789063 L 33.316406 17.644531 C 33.109375 18.15625 33.355469 18.738281 33.871094 18.945313 C 33.992188 18.996094 34.121094 19.019531 34.246094 19.019531 C 34.640625 19.019531 35.015625 18.785156 35.171875 18.394531 L 35.921875 16.539063 C 36.128906 16.027344 35.882813 15.445313 35.371094 15.238281 C 35.242188 15.1875 35.109375 15.164063 34.980469 15.167969 Z M 40.097656 18.488281 C 39.839844 18.496094 39.585938 18.597656 39.394531 18.796875 L 38.003906 20.234375 C 37.621094 20.632813 37.632813 21.265625 38.03125 21.648438 C 38.226563 21.835938 38.472656 21.929688 38.722656 21.929688 C 38.988281 21.929688 39.25 21.824219 39.445313 21.625 L 40.832031 20.183594 C 41.21875 19.785156 41.207031 19.152344 40.808594 18.769531 C 40.609375 18.578125 40.355469 18.484375 40.097656 18.488281 Z M 29 20 C 28.445313 20 28 20.445313 28 21 L 28 29.277344 C 27.40625 29.625 27 30.261719 27 31 C 27 32.101563 27.898438 33 29 33 C 29.179688 33 29.347656 32.96875 29.511719 32.925781 L 35.792969 39.207031 C 35.988281 39.402344 36.242188 39.5 36.5 39.5 C 36.757813 39.5 37.011719 39.402344 37.207031 39.207031 C 37.597656 38.816406 37.597656 38.183594 37.207031 37.792969 L 30.925781 31.511719 C 30.96875 31.347656 31 31.179688 31 31 C 31 30.261719 30.59375 29.625 30 29.277344 L 30 21 C 30 20.445313 29.554688 20 29 20 Z M 43.597656 23.492188 C 43.46875 23.496094 43.335938 23.523438 43.210938 23.578125 L 41.386719 24.390625 C 40.878906 24.617188 40.652344 25.207031 40.875 25.714844 C 41.042969 26.085938 41.40625 26.308594 41.792969 26.308594 C 41.925781 26.308594 42.0625 26.277344 42.195313 26.21875 L 44.023438 25.40625 C 44.527344 25.179688 44.753906 24.59375 44.53125 24.089844 C 44.363281 23.710938 43.988281 23.484375 43.597656 23.492188 Z M 13 30 C 12.445313 30 12 30.445313 12 31 C 12 31.554688 12.445313 32 13 32 L 15 32 C 15.554688 32 16 31.554688 16 31 C 16 30.445313 15.554688 30 15 30 Z M 43 30 C 42.445313 30 42 30.445313 42 31 C 42 31.554688 42.445313 32 43 32 L 45 32 C 45.554688 32 46 31.554688 46 31 C 46 30.445313 45.554688 30 45 30 Z M 45.175781 36.675781 C 45.523438 36.675781 45.828125 36.839844 46.015625 37.128906 L 61.15625 60.453125 C 61.445313 60.902344 61.28125 61.320313 61.195313 61.480469 C 61.109375 61.636719 60.851563 62 60.316406 62 L 30.035156 62 C 29.5 62 29.242188 61.636719 29.15625 61.480469 C 29.070313 61.320313 28.902344 60.90625 29.195313 60.457031 L 44.339844 37.128906 C 44.527344 36.84375 44.832031 36.675781 45.175781 36.675781 Z M 44.957031 43.03125 C 44.433594 43.03125 43.910156 43.226563 43.546875 43.617188 C 43.183594 44.011719 43 44.542969 43.046875 45.109375 L 43.96875 53.113281 C 44.023438 53.617188 44.453125 54 44.960938 54 C 45.46875 54 45.894531 53.617188 45.953125 53.113281 L 46.878906 45.074219 C 46.921875 44.542969 46.734375 44.011719 46.375 43.617188 C 46.007813 43.226563 45.484375 43.03125 44.957031 43.03125 Z M 29 44 C 28.445313 44 28 44.445313 28 45 L 28 47 C 28 47.554688 28.445313 48 29 48 C 29.554688 48 30 47.554688 30 47 L 30 45 C 30 44.445313 29.554688 44 29 44 Z M 45 55 C 43.894531 55 43 55.894531 43 57 C 43 58.105469 43.894531 59 45 59 C 46.105469 59 47 58.105469 47 57 C 47 55.894531 46.105469 55 45 55 Z"/></svg>