<?xml version="1.0" encoding="UTF-8"?>
<svg xmlns="http://www.w3.org/2000/svg" xmlns:xlink="http://www.w3.org/1999/xlink" width="454.82pt" height="511.96pt" viewBox="0 0 454.82 511.96" version="1.1">
<defs>
<clipPath id="clip1">
  <path d="M 0 410 L 96 410 L 96 511.960938 L 0 511.960938 Z M 0 410 "/>
</clipPath>
<clipPath id="clip2">
  <path d="M 372 410 L 454.820313 410 L 454.820313 511 L 372 511 Z M 372 410 "/>
</clipPath>
</defs>
<g id="surface1">
<path style=" stroke:none;fill-rule:nonzero;fill:rgb(12.199402%,23.899841%,46.699524%);fill-opacity:1;" d="M 59.386719 0 L 259.535156 0 C 257.214844 2.558594 255.214844 4.773438 253.203125 6.980469 C 220.175781 43.238281 200.71875 85.761719 194.5625 134.371094 C 193.441406 143.191406 192.9375 152.078125 192.941406 160.988281 C 192.96875 226.992188 192.957031 292.996094 192.957031 359.003906 L 192.957031 363.527344 C 182.945313 361.738281 173.484375 359.097656 164.457031 355.25 C 107.140625 330.835938 72.6875 287.984375 61.382813 226.671875 C 59.878906 218.503906 59.40625 210.1875 59.402344 201.878906 C 59.375 135.992188 59.386719 70.105469 59.386719 4.222656 "/>
<path style=" stroke:none;fill-rule:nonzero;fill:rgb(19.198608%,65.899658%,21.598816%);fill-opacity:1;" d="M 390.941406 0.0664063 L 390.941406 129.941406 C 339.089844 137.449219 294.726563 160.023438 257.746094 197.253906 C 257.460938 196.910156 257.207031 196.746094 257.207031 196.585938 C 257.3125 181.285156 256.625 165.976563 257.65625 150.691406 C 260.054688 115.164063 272.613281 83.609375 295.390625 56.300781 C 320.019531 26.769531 351.417969 8.246094 388.996094 0.183594 C 389.558594 0.0625 390.152344 0.109375 390.941406 0.0664063 "/>
<path style=" stroke:none;fill-rule:nonzero;fill:rgb(19.198608%,65.899658%,21.598816%);fill-opacity:1;" d="M 257.484375 363.78125 C 253.410156 283.378906 311.136719 209.773438 391.101563 195.226563 C 392.289063 234.90625 381.058594 270.546875 356.941406 301.890625 C 331.597656 334.824219 298.253906 355.203125 257.484375 363.78125 "/>
<g clip-path="url(#clip1)" clip-rule="nonzero">
<path style=" stroke:none;fill-rule:nonzero;fill:rgb(12.199402%,23.899841%,46.699524%);fill-opacity:1;" d="M 0 410.035156 L 24.214844 410.035156 L 24.214844 464.3125 C 24.214844 472.925781 24.511719 478.511719 25.113281 481.0625 C 26.148438 485.164063 28.617188 488.457031 32.515625 490.9375 C 36.414063 493.425781 41.746094 494.664063 48.507813 494.664063 C 55.382813 494.664063 60.558594 493.492188 64.050781 491.144531 C 67.542969 488.796875 69.640625 485.914063 70.351563 482.496094 C 71.058594 479.078125 71.414063 473.40625 71.414063 465.476563 L 71.414063 410.035156 L 95.628906 410.035156 L 95.628906 462.671875 C 95.628906 474.703125 94.972656 483.203125 93.664063 488.171875 C 92.355469 493.140625 89.941406 497.332031 86.425781 500.75 C 82.90625 504.167969 78.203125 506.890625 72.3125 508.917969 C 66.421875 510.945313 58.734375 511.960938 49.246094 511.960938 C 37.792969 511.960938 29.109375 510.855469 23.191406 508.644531 C 17.273438 506.433594 12.597656 503.5625 9.160156 500.03125 C 5.726563 496.5 3.460938 492.796875 2.371094 488.921875 C 0.789063 483.179688 0 474.703125 0 463.492188 "/>
</g>
<path style=" stroke:none;fill-rule:nonzero;fill:rgb(12.199402%,23.899841%,46.699524%);fill-opacity:1;" d="M 121.148438 510.25 L 121.148438 410.035156 L 210.070313 410.035156 L 210.070313 426.988281 L 145.363281 426.988281 L 145.363281 449.207031 L 205.570313 449.207031 L 205.570313 466.089844 L 145.363281 466.089844 L 145.363281 493.367188 L 212.359375 493.367188 L 212.359375 510.25 "/>
<path style=" stroke:none;fill-rule:nonzero;fill:rgb(12.199402%,23.899841%,46.699524%);fill-opacity:1;" d="M 232.566406 510.25 L 232.566406 410.035156 L 268.804688 410.035156 L 290.5625 478.394531 L 312.078125 410.035156 L 348.398438 410.035156 L 348.398438 510.25 L 325.902344 510.25 L 325.902344 431.363281 L 302.097656 510.25 L 278.785156 510.25 L 255.0625 431.363281 L 255.0625 510.25 "/>
<g clip-path="url(#clip2)" clip-rule="nonzero">
<path style=" stroke:none;fill-rule:nonzero;fill:rgb(12.199402%,23.899841%,46.699524%);fill-opacity:1;" d="M 372.613281 510.25 L 372.613281 410.035156 L 454.824219 410.035156 L 454.824219 426.988281 L 396.828125 426.988281 L 396.828125 450.710938 L 446.886719 450.710938 L 446.886719 467.664063 L 396.828125 467.664063 L 396.828125 510.25 "/>
</g>
</g>
</svg>
