<?xml version="1.0" encoding="UTF-8"?>
<svg xmlns="http://www.w3.org/2000/svg" xmlns:xlink="http://www.w3.org/1999/xlink" width="841.889893pt" height="595.28pt" viewBox="0 0 841.889893 595.28" version="1.1">
<g id="surface1">
<path style=" stroke:none;fill-rule:nonzero;fill:rgb(100%,100%,100%);fill-opacity:1;" d="M 0 595.28125 L 841.890625 595.28125 L 841.890625 0.00390625 L 0 0.00390625 Z M 0 595.28125 "/>
<path style=" stroke:none;fill-rule:nonzero;fill:rgb(81.199646%,81.599426%,82.699585%);fill-opacity:1;" d="M 683.867188 297.640625 C 683.867188 442.851563 566.152344 560.566406 420.945313 560.566406 C 275.738281 560.566406 158.019531 442.851563 158.019531 297.640625 C 158.019531 152.433594 275.738281 34.71875 420.945313 34.71875 C 566.152344 34.71875 683.867188 152.433594 683.867188 297.640625 "/>
<path style=" stroke:none;fill-rule:nonzero;fill:rgb(8.599854%,25.898743%,47.799683%);fill-opacity:1;" d="M 674.742188 297.640625 C 674.742188 437.808594 561.113281 551.4375 420.945313 551.4375 C 280.777344 551.4375 167.148438 437.808594 167.148438 297.640625 C 167.148438 157.472656 280.777344 43.847656 420.945313 43.847656 C 561.113281 43.847656 674.742188 157.472656 674.742188 297.640625 "/>
<path style=" stroke:none;fill-rule:nonzero;fill:rgb(100%,100%,100%);fill-opacity:1;" d="M 420.945313 127.800781 C 327.296875 127.800781 251.105469 203.992188 251.105469 297.640625 C 251.105469 391.292969 327.296875 467.484375 420.945313 467.484375 C 514.59375 467.484375 590.785156 391.292969 590.785156 297.640625 C 590.785156 203.992188 514.59375 127.800781 420.945313 127.800781 M 420.945313 474.484375 C 323.433594 474.484375 244.105469 395.152344 244.105469 297.640625 C 244.105469 200.132813 323.433594 120.800781 420.945313 120.800781 C 518.453125 120.800781 597.785156 200.132813 597.785156 297.640625 C 597.785156 395.152344 518.453125 474.484375 420.945313 474.484375 "/>
<path style=" stroke:none;fill-rule:nonzero;fill:rgb(99.598694%,99.598694%,99.598694%);fill-opacity:1;" d="M 408.390625 251.066406 C 405.214844 250.875 402.339844 252.136719 399.777344 254.148438 C 397.105469 256.246094 397.1875 258.242188 399.902344 260.296875 C 403.640625 263.125 406.269531 262.792969 412.035156 258.488281 C 413.679688 257.261719 416.28125 256.074219 415.320313 253.53125 C 414.484375 251.316406 411.875 251.277344 409.714844 251.070313 C 409.335938 251.035156 408.953125 251.066406 408.390625 251.066406 M 389.886719 279.949219 C 385.605469 273.632813 384.316406 268.902344 385.320313 263.398438 C 387.546875 251.195313 403.734375 237.292969 416.144531 236.933594 C 421.460938 236.777344 424.371094 239.667969 424.613281 244.941406 C 424.929688 251.8125 422.492188 257.527344 417.828125 262.519531 C 423.621094 260.3125 428.65625 256.957031 432.992188 252.707031 C 444.507813 241.429688 448.179688 227.742188 444.402344 212.199219 C 442.773438 205.515625 438.117188 203.035156 431.375 204.261719 C 422.980469 205.785156 416.285156 210.449219 410.660156 216.414063 C 389.046875 239.320313 374.238281 266.058594 366.464844 296.625 C 365.839844 299.082031 365.332031 301.585938 364.992188 304.097656 C 364.671875 306.46875 363.734375 308.839844 364.46875 311.792969 C 372.476563 300.363281 379.921875 289.117188 389.886719 279.949219 M 392.257813 329.175781 C 392.53125 331.628906 392.804688 334.082031 393.109375 336.8125 C 397.320313 336.054688 400.730469 333.933594 404.011719 331.652344 C 417.886719 322 430.289063 310.75 441 297.628906 C 449.472656 287.242188 458.445313 277.34375 469.820313 269.964844 C 481.511719 262.386719 494.125 259.199219 507.992188 261.855469 C 514.539063 263.109375 516.390625 266.6875 513.09375 272.527344 C 508.476563 280.703125 501.046875 286.167969 493.964844 291.972656 C 492.792969 290.898438 493.867188 290.234375 494.074219 289.515625 C 495.058594 286.136719 496.042969 282.59375 493 279.886719 C 489.757813 277.003906 485.785156 276.214844 481.601563 277.769531 C 475.554688 280.015625 470.457031 283.839844 465.464844 287.796875 C 451.890625 298.554688 440.960938 311.859375 429.675781 324.832031 C 423.652344 331.757813 417.476563 338.53125 410.160156 344.152344 C 403.945313 348.925781 397.210938 352.707031 389.5625 354.644531 C 387.722656 355.109375 386.5625 356.050781 385.476563 357.644531 C 382.097656 362.59375 378.710938 367.484375 376.894531 373.296875 C 375.933594 376.371094 375.40625 379.457031 375.519531 382.675781 C 375.804688 390.898438 380.679688 394.488281 388.476563 392.089844 C 395.914063 389.796875 401.578125 384.820313 406.757813 379.351563 C 418.925781 366.507813 430.777344 353.359375 443.019531 340.585938 C 453.5 329.648438 463.992188 318.636719 478.078125 312.085938 C 481.210938 310.628906 484.410156 309.457031 487.832031 308.898438 C 496.078125 307.554688 501.570313 313.121094 499.929688 321.335938 C 498.667969 327.632813 494.546875 332.101563 490.019531 336.429688 C 487.765625 329.476563 482.808594 327.164063 475.6875 329.789063 C 466.394531 333.21875 458.945313 339.460938 452.144531 346.359375 C 438.371094 360.34375 425.746094 375.351563 413.433594 390.628906 C 407.429688 398.078125 400.742188 404.902344 393.019531 410.628906 C 389.121094 413.523438 385.007813 416.019531 380.308594 417.433594 C 370.652344 420.332031 362.453125 415.261719 361.035156 405.261719 C 359.578125 394.972656 362.378906 385.359375 366.273438 375.984375 C 369.121094 369.136719 373.183594 363.011719 378.121094 356.84375 C 368.066406 356.511719 359.335938 354.453125 356.152344 343.285156 C 344.246094 353.535156 331.492188 361.226563 315.230469 358.660156 C 303.898438 356.867188 295.789063 349.785156 289.082031 340.808594 C 295.210938 344.492188 301.65625 347.132813 308.859375 347.660156 C 320.515625 348.519531 330.589844 344.480469 339.78125 337.777344 C 342.65625 335.683594 345.21875 333.171875 348.007813 330.957031 C 352.644531 327.273438 354.265625 322.527344 355.191406 316.636719 C 362.628906 269.316406 382.914063 228.917969 420.628906 198.285156 C 426.976563 193.128906 433.894531 188.839844 442.191406 187.394531 C 450.160156 186.011719 456.5625 189.296875 459.886719 196.71875 C 464.464844 206.933594 463.105469 217.128906 459.308594 227.167969 C 454.082031 240.992188 445.238281 252.449219 435.179688 263.035156 C 428.496094 270.066406 421.429688 276.679688 412.867188 281.441406 C 407.742188 284.289063 402.414063 286.210938 396.476563 284.226563 C 395.039063 283.742188 394.359375 284.59375 393.5625 285.40625 C 382.457031 296.695313 373.796875 309.613281 367.609375 324.195313 C 367.011719 325.605469 366.898438 326.734375 367.847656 328.085938 C 372.203125 334.308594 377.984375 337.902344 385.679688 338.375 C 388.789063 338.566406 390.46875 337.386719 390.894531 334.304688 C 391.132813 332.574219 391.496094 330.863281 391.808594 329.140625 C 391.957031 329.152344 392.105469 329.164063 392.257813 329.175781 "/>
<path style=" stroke:none;fill-rule:nonzero;fill:rgb(99.598694%,99.598694%,99.598694%);fill-opacity:1;" d="M 532.046875 234.285156 C 548.78125 255.496094 555.152344 279.113281 552.050781 305.339844 C 549.898438 323.535156 539.203125 351.921875 533.597656 355.007813 C 542.054688 330.574219 546.714844 305.761719 540.828125 279.957031 C 538.515625 269.800781 534.546875 260.367188 527.898438 252.222656 C 526.984375 251.105469 526.679688 250.101563 527.140625 248.757813 C 528.742188 244.109375 530.300781 239.449219 532.046875 234.285156 "/>
<path style=" stroke:none;fill-rule:nonzero;fill:rgb(99.598694%,99.598694%,99.598694%);fill-opacity:1;" d="M 497.269531 198.621094 C 496.476563 202.59375 495.75 205.550781 495.316406 208.550781 C 494.40625 214.871094 497.035156 217.484375 503.242188 216.570313 C 508.023438 215.867188 512.796875 215.105469 517.574219 214.390625 C 517.785156 214.355469 518.019531 214.511719 518.492188 214.65625 C 514.179688 221.761719 509.882813 228.785156 505.660156 235.859375 C 504.96875 237.011719 504.089844 237.347656 502.859375 237.367188 C 495.714844 237.496094 488.578125 237.398438 481.6875 235.207031 C 474.734375 232.992188 473.53125 229.542969 477.472656 223.554688 C 481.394531 217.59375 485.707031 211.921875 490.351563 206.5 C 492.410156 204.097656 494.523438 201.742188 497.269531 198.621094 "/>
<path style=" stroke:none;fill-rule:nonzero;fill:rgb(99.598694%,99.598694%,99.598694%);fill-opacity:1;" d="M 489.523438 365.871094 C 484.992188 362.242188 480.761719 358.847656 476.335938 355.300781 C 479.828125 350.226563 483.191406 345.34375 486.597656 340.394531 C 490.4375 346.324219 496.882813 347.960938 502.761719 351.128906 C 498.414063 355.96875 494.117188 360.753906 489.523438 365.871094 "/>
<path style=" stroke:none;fill-rule:nonzero;fill:rgb(99.598694%,99.598694%,99.598694%);fill-opacity:1;" d="M 394.65625 380.179688 C 390.5625 376.910156 386.828125 373.933594 382.9375 370.828125 C 386.089844 366.230469 389.085938 361.867188 392.214844 357.3125 C 396.355469 360.136719 400.3125 362.835938 404.683594 365.816406 C 401.40625 370.515625 398.195313 375.113281 394.65625 380.179688 "/>
<path style=" stroke:none;fill-rule:nonzero;fill:rgb(8.599854%,25.898743%,47.799683%);fill-opacity:1;" d="M 389.886719 279.949219 C 379.921875 289.117188 372.476563 300.363281 364.46875 311.796875 C 363.734375 308.839844 364.671875 306.46875 364.992188 304.097656 C 365.332031 301.585938 365.839844 299.082031 366.464844 296.625 C 374.238281 266.058594 389.046875 239.320313 410.65625 216.414063 C 416.285156 210.449219 422.980469 205.785156 431.375 204.261719 C 438.117188 203.035156 442.773438 205.515625 444.398438 212.199219 C 448.179688 227.742188 444.507813 241.429688 432.992188 252.707031 C 428.65625 256.957031 423.621094 260.3125 417.828125 262.523438 C 422.492188 257.527344 424.929688 251.8125 424.613281 244.941406 C 424.371094 239.667969 421.460938 236.777344 416.144531 236.933594 C 403.734375 237.296875 387.542969 251.195313 385.316406 263.398438 C 384.316406 268.902344 385.605469 273.632813 389.886719 279.949219 "/>
<path style=" stroke:none;fill-rule:nonzero;fill:rgb(100%,100%,100%);fill-opacity:1;" d="M 262.894531 172.632813 C 261.628906 170.871094 261.421875 169.421875 262.273438 168.285156 L 262.339844 168.195313 L 262.371094 168.222656 L 264.027344 166.308594 C 265.296875 164.847656 266.222656 163.929688 266.816406 163.5625 C 267.40625 163.195313 267.882813 162.921875 268.234375 162.738281 C 268.730469 162.167969 268.742188 161.339844 268.277344 160.25 C 267.8125 159.164063 267.035156 158.148438 265.953125 157.210938 C 264.441406 155.902344 262.886719 155.160156 261.285156 154.976563 C 259.6875 154.789063 258.636719 154.984375 258.144531 155.554688 C 257.503906 156.292969 257.238281 157.085938 257.339844 157.9375 C 257.445313 158.789063 257.746094 159.433594 258.25 159.871094 C 258.730469 160.285156 259.292969 160.488281 259.9375 160.480469 C 260.582031 160.472656 261.101563 160.238281 261.496094 159.777344 C 261.953125 159.253906 262.273438 159.011719 262.460938 159.058594 C 262.644531 159.101563 262.828125 159.132813 263.007813 159.152344 C 263.1875 159.171875 263.40625 159.289063 263.664063 159.511719 C 263.820313 159.648438 263.941406 159.773438 264.027344 159.886719 C 264.117188 160.003906 264.1875 160.121094 264.234375 160.242188 C 263.128906 161.003906 262.523438 161.429688 262.425781 161.519531 C 262.328125 161.613281 261.871094 162.125 261.058594 163.066406 L 259.988281 164.300781 L 259.871094 164.210938 L 257.964844 166.746094 C 257.636719 167.1875 256.976563 167.402344 255.984375 167.394531 C 254.988281 167.390625 254.1875 167.796875 253.574219 168.613281 C 253.0625 169.296875 252.816406 169.960938 252.84375 170.601563 C 252.871094 171.242188 253.265625 171.84375 254.023438 172.414063 C 254.933594 173.097656 255.796875 173.390625 256.605469 173.296875 C 257.414063 173.199219 257.886719 173.203125 258.015625 173.300781 C 258.488281 173.652344 259.253906 174.910156 260.304688 177.066406 C 261.355469 179.222656 261.964844 180.511719 262.132813 180.933594 C 262.773438 183.871094 262.8125 186.917969 262.25 190.070313 C 261.6875 193.226563 260.78125 195.636719 259.527344 197.304688 C 257.328125 200.238281 254.824219 202.363281 252.015625 203.683594 C 249.203125 205.007813 246.988281 205.589844 245.363281 205.4375 C 243.742188 205.28125 242.15625 204.894531 240.605469 204.277344 C 239.054688 203.660156 237.597656 203.042969 236.230469 202.425781 C 236.210938 202.503906 236.246094 202.574219 236.339844 202.644531 C 236.4375 202.71875 236.578125 202.824219 236.769531 202.964844 L 237.496094 203.511719 C 237.777344 203.722656 239.074219 204.453125 241.378906 205.703125 C 243.6875 206.953125 246.910156 207.351563 251.046875 206.898438 C 255.1875 206.441406 259.066406 203.796875 262.695313 198.960938 C 264.257813 196.878906 265.445313 193.832031 266.261719 189.824219 C 267.078125 185.816406 267.039063 182.390625 266.140625 179.542969 C 265.242188 176.699219 264.160156 174.394531 262.894531 172.632813 "/>
<path style=" stroke:none;fill-rule:nonzero;fill:rgb(100%,100%,100%);fill-opacity:1;" d="M 271.761719 167.847656 C 271.214844 167.371094 270.691406 167.140625 270.195313 167.148438 C 269.699219 167.160156 269.191406 167.460938 268.679688 168.050781 C 268.1875 168.621094 267.964844 169.242188 268.011719 169.90625 C 268.058594 170.574219 268.28125 171.078125 268.671875 171.414063 C 269.128906 171.8125 269.730469 171.992188 270.476563 171.953125 C 271.226563 171.917969 271.738281 171.738281 272.019531 171.410156 C 272.550781 170.796875 272.761719 170.152344 272.652344 169.480469 C 272.539063 168.808594 272.242188 168.261719 271.761719 167.847656 "/>
<path style=" stroke:none;fill-rule:nonzero;fill:rgb(100%,100%,100%);fill-opacity:1;" d="M 273.554688 162.605469 C 273.050781 162.570313 272.519531 162.871094 271.96875 163.507813 C 271.476563 164.078125 271.25 164.691406 271.292969 165.355469 C 271.335938 166.019531 271.550781 166.519531 271.941406 166.859375 C 272.636719 167.457031 273.230469 167.714844 273.726563 167.625 C 274.222656 167.539063 274.667969 167.378906 275.0625 167.152344 C 275.535156 166.605469 275.816406 165.96875 275.90625 165.242188 C 275.996094 164.519531 275.707031 163.867188 275.035156 163.285156 C 274.554688 162.871094 274.0625 162.644531 273.554688 162.605469 "/>
<path style=" stroke:none;fill-rule:nonzero;fill:rgb(100%,100%,100%);fill-opacity:1;" d="M 283.382813 138.625 C 282.136719 139.164063 280.769531 139.730469 279.277344 140.320313 C 277.785156 140.910156 276.101563 141.246094 274.230469 141.320313 C 272.355469 141.398438 270.949219 141.171875 270.007813 140.636719 L 268.796875 137.773438 C 268.253906 137.210938 267.46875 136.9375 266.4375 136.964844 C 265.40625 136.992188 264.566406 137.316406 263.914063 137.941406 C 263.457031 138.378906 263.273438 139.117188 263.367188 140.15625 C 263.460938 141.191406 263.867188 142.085938 264.585938 142.832031 C 265.820313 144.121094 267.539063 144.949219 269.730469 145.3125 C 271.925781 145.679688 274.371094 145.765625 277.074219 145.566406 C 276.300781 146.597656 275.542969 147.621094 274.800781 148.644531 C 273.386719 150.757813 272.4375 152.871094 271.953125 154.984375 C 271.472656 157.097656 271.972656 158.925781 273.457031 160.472656 C 273.773438 160.804688 273.988281 161.007813 274.101563 161.082031 C 274.21875 161.15625 274.390625 161.253906 274.632813 161.375 C 273.703125 159.148438 273.984375 156.757813 275.476563 154.203125 C 276.96875 151.644531 279.308594 148.835938 282.496094 145.773438 C 282.785156 145.496094 283.28125 145.355469 283.980469 145.351563 C 284.683594 145.34375 285.394531 144.992188 286.121094 144.296875 C 287.058594 143.394531 287.59375 142.609375 287.730469 141.9375 C 287.863281 141.265625 287.535156 140.519531 286.75 139.699219 C 285.777344 138.683594 284.652344 138.328125 283.382813 138.625 "/>
<path style=" stroke:none;fill-rule:nonzero;fill:rgb(100%,100%,100%);fill-opacity:1;" d="M 335.953125 106.707031 C 335.769531 106.390625 335.613281 106.144531 335.492188 105.976563 C 335.367188 105.8125 334.976563 105.292969 334.316406 104.429688 C 333.65625 103.5625 332.496094 102.714844 330.835938 101.878906 C 329.175781 101.039063 327.445313 101.148438 325.644531 102.199219 L 309.746094 111.480469 L 303.046875 115.394531 C 300.171875 117.070313 298.222656 118.113281 297.195313 118.527344 C 296.167969 118.9375 295.496094 118.867188 295.175781 118.320313 C 294.546875 117.246094 294.726563 115.476563 295.710938 113.011719 C 296.691406 110.546875 297.472656 109.144531 298.046875 108.8125 C 298.46875 108.5625 299.058594 108.539063 299.816406 108.738281 C 300.574219 108.9375 301.371094 108.792969 302.214844 108.300781 C 303.019531 107.832031 303.464844 107.398438 303.546875 106.996094 C 303.632813 106.597656 303.460938 106.035156 303.035156 105.304688 C 302.335938 104.105469 301.546875 103.460938 300.675781 103.371094 C 299.800781 103.28125 298.714844 103.617188 297.410156 104.378906 C 294.742188 105.9375 292.792969 108.53125 291.5625 112.15625 C 290.335938 115.785156 290.289063 118.570313 291.421875 120.511719 C 292.339844 122.082031 293.671875 122.808594 295.429688 122.691406 C 297.183594 122.574219 298.996094 121.96875 300.875 120.871094 L 326.847656 105.710938 C 327.394531 105.390625 328.082031 105.363281 328.910156 105.636719 C 329.734375 105.90625 330.492188 106.628906 331.175781 107.804688 L 328.859375 109.15625 L 294.230469 129.371094 L 294.980469 130.652344 L 293.976563 131.453125 C 293.5 131.097656 292.765625 130.542969 291.765625 129.800781 C 290.765625 129.054688 289.355469 127.933594 287.535156 126.433594 C 285.714844 124.933594 283.828125 123.265625 281.867188 121.421875 C 281.644531 121.1875 281.1875 120.449219 280.5 119.207031 C 279.8125 117.96875 279.292969 117.121094 278.933594 116.671875 C 278.390625 115.988281 277.792969 115.519531 277.144531 115.261719 C 276.492188 115.003906 275.933594 115.066406 275.457031 115.441406 C 274.84375 115.929688 274.445313 116.742188 274.261719 117.871094 C 274.074219 119.003906 274.457031 120.164063 275.40625 121.355469 C 276.003906 122.105469 276.835938 122.699219 277.902344 123.136719 C 278.96875 123.574219 279.976563 123.96875 280.925781 124.328125 L 291.347656 133.492188 C 292.875 135.414063 293.789063 137.03125 294.078125 138.347656 C 294.109375 139.664063 294.1875 140.644531 294.316406 141.277344 L 294.921875 141.675781 C 295.726563 140.410156 296.105469 139.117188 296.066406 137.796875 C 296.027344 136.480469 296.074219 135.671875 296.207031 135.375 C 296.339844 135.082031 296.667969 134.726563 297.1875 134.3125 C 297.871094 133.769531 298.316406 133.421875 298.527344 133.269531 C 298.738281 133.121094 298.945313 133.003906 299.144531 132.921875 L 298.40625 131.996094 L 332.117188 112.3125 C 332.523438 112.484375 332.996094 112.546875 333.535156 112.5 C 334.070313 112.453125 334.640625 112.253906 335.238281 111.902344 C 335.839844 111.554688 336.328125 110.796875 336.710938 109.632813 C 336.859375 109.238281 336.851563 108.789063 336.683594 108.285156 C 336.519531 107.78125 336.277344 107.257813 335.953125 106.707031 "/>
<path style=" stroke:none;fill-rule:nonzero;fill:rgb(100%,100%,100%);fill-opacity:1;" d="M 328.421875 79.910156 C 328.707031 80.292969 329.222656 80.601563 329.96875 80.820313 C 329.757813 81.003906 329.53125 81.203125 329.292969 81.421875 C 329.054688 81.640625 328.925781 81.878906 328.902344 82.140625 C 328.882813 82.40625 328.992188 82.671875 329.226563 82.933594 C 329.464844 83.199219 329.777344 83.460938 330.175781 83.730469 C 330.277344 83.785156 331.050781 83.078125 332.496094 81.609375 C 333.941406 80.140625 334.859375 79.144531 335.25 78.617188 C 335.03125 78.085938 334.808594 77.675781 334.582031 77.390625 C 334.355469 77.109375 334.066406 77.007813 333.714844 77.085938 C 333.582031 77.109375 333.265625 77.371094 332.765625 77.871094 C 332.265625 78.371094 331.960938 78.640625 331.851563 78.6875 C 331.578125 78.796875 331.265625 78.824219 330.917969 78.769531 C 330.566406 78.714844 330.292969 78.566406 330.101563 78.324219 C 329.753906 77.90625 329.792969 77.460938 330.222656 76.980469 C 330.3125 76.816406 330.464844 76.691406 330.667969 76.605469 C 330.777344 76.5625 331.019531 76.511719 331.394531 76.453125 C 331.828125 76.421875 332.128906 76.246094 332.296875 75.929688 C 332.464844 75.617188 332.464844 75.257813 332.304688 74.859375 C 332.179688 74.558594 331.851563 74.394531 331.320313 74.363281 C 330.789063 74.335938 330.230469 74.4375 329.640625 74.679688 C 329.355469 74.796875 329.011719 75.015625 328.617188 75.335938 C 328.21875 75.660156 327.921875 76.171875 327.722656 76.875 C 327.523438 77.578125 327.5625 78.265625 327.835938 78.9375 C 327.941406 79.199219 328.136719 79.519531 328.421875 79.910156 "/>
<path style=" stroke:none;fill-rule:nonzero;fill:rgb(100%,100%,100%);fill-opacity:1;" d="M 342.464844 94.308594 C 340.914063 91.636719 339.769531 89.386719 339.023438 87.566406 C 338.664063 86.679688 338.429688 85.8125 338.324219 84.96875 C 338.21875 84.125 338.132813 83.324219 338.0625 82.570313 C 337.972656 82.113281 337.648438 81.621094 337.089844 81.097656 C 336.53125 80.578125 335.886719 80.464844 335.144531 80.765625 C 334.175781 81.164063 333.441406 82.0625 332.953125 83.460938 C 332.460938 84.859375 332.535156 86.144531 333.175781 87.320313 C 333.6875 87.59375 334.1875 87.859375 334.6875 88.117188 C 335.183594 88.378906 335.628906 88.835938 336.023438 89.488281 L 339.988281 97.140625 C 340.304688 97.761719 340.652344 98.453125 341.027344 99.21875 C 341.40625 99.984375 341.695313 100.617188 341.902344 101.125 C 342.132813 101.6875 342.34375 102.277344 342.535156 102.902344 C 342.726563 103.527344 342.898438 104.308594 343.046875 105.246094 C 343.199219 106.183594 343.210938 107.195313 343.082031 108.285156 C 342.949219 109.378906 342.582031 110.933594 341.96875 112.957031 C 343.980469 111.386719 345.222656 109.21875 345.699219 106.460938 C 346.179688 103.703125 346.179688 101.734375 345.695313 100.558594 C 345.089844 99.066406 344.007813 96.984375 342.464844 94.308594 "/>
<path style=" stroke:none;fill-rule:nonzero;fill:rgb(100%,100%,100%);fill-opacity:1;" d="M 377.429688 90.996094 L 376.761719 87.339844 C 374.117188 87.703125 371.390625 88.261719 368.574219 89.003906 C 365.003906 89.953125 361.746094 91.082031 358.804688 92.398438 L 360.097656 95.796875 C 362.382813 94.667969 365.199219 93.664063 368.542969 92.777344 C 371.472656 92 374.433594 91.40625 377.429688 90.996094 "/>
<path style=" stroke:none;fill-rule:nonzero;fill:rgb(100%,100%,100%);fill-opacity:1;" d="M 432.710938 74.3125 C 433.492188 74.371094 434.132813 74.152344 434.628906 73.648438 C 435.128906 73.144531 435.398438 72.59375 435.445313 71.988281 C 435.558594 70.527344 434.886719 69.742188 433.425781 69.628906 C 432.675781 69.570313 432.046875 69.761719 431.546875 70.195313 C 431.046875 70.632813 430.777344 71.109375 430.734375 71.625 C 430.691406 72.230469 430.898438 72.820313 431.367188 73.398438 C 431.835938 73.976563 432.28125 74.28125 432.710938 74.3125 "/>
<path style=" stroke:none;fill-rule:nonzero;fill:rgb(100%,100%,100%);fill-opacity:1;" d="M 411.402344 83.796875 C 411.546875 83.59375 411.828125 83.457031 412.257813 83.390625 C 412.773438 83.289063 413.144531 83.390625 413.371094 83.6875 C 413.601563 83.988281 413.765625 84.410156 413.863281 84.953125 C 414.046875 85.910156 413.796875 86.609375 413.109375 87.054688 C 412.804688 87.269531 412.457031 87.195313 412.074219 86.84375 C 411.6875 86.488281 411.445313 86.066406 411.347656 85.582031 C 411.316406 85.433594 411.28125 85.273438 411.25 85.09375 C 411.21875 84.917969 411.199219 84.75 411.195313 84.585938 C 411.1875 84.261719 411.257813 83.996094 411.402344 83.796875 M 438.515625 79.785156 C 436.777344 79.652344 435.820313 80.699219 435.652344 82.925781 C 435.546875 84.3125 436.167969 85.34375 437.527344 86.027344 C 438.882813 86.710938 439.5625 87.195313 439.570313 87.484375 C 439.578125 87.773438 439.566406 88.132813 439.53125 88.5625 C 439.339844 91.066406 438.351563 93.363281 436.566406 95.449219 C 434.78125 97.539063 433.214844 98.972656 431.867188 99.75 C 430.515625 100.527344 428.871094 101.085938 426.933594 101.429688 C 424.992188 101.769531 422.984375 101.859375 420.90625 101.699219 C 417.015625 101.398438 413.902344 100.316406 411.570313 98.445313 C 409.746094 96.984375 408.175781 95.15625 406.839844 92.988281 L 407.257813 92.941406 L 411.71875 92.851563 C 411.835938 92.847656 412.027344 92.835938 412.285156 92.816406 C 412.542969 92.796875 413.089844 92.621094 413.925781 92.296875 C 414.117188 92.230469 414.511719 92.292969 415.105469 92.480469 C 415.699219 92.667969 416.234375 92.757813 416.707031 92.746094 L 420.433594 92.671875 C 421.421875 91.808594 422.078125 91.214844 422.402344 90.890625 C 422.730469 90.566406 423.21875 89.957031 423.863281 89.0625 C 424.511719 88.171875 424.953125 87.214844 425.191406 86.199219 C 425.429688 85.179688 425.53125 83.777344 425.492188 81.988281 C 425.257813 79.804688 424.585938 77.90625 423.484375 76.296875 C 422.378906 74.683594 421.148438 73.644531 419.792969 73.175781 C 418.4375 72.707031 417.328125 72.484375 416.472656 72.5 C 415.882813 72.511719 415.292969 72.613281 414.703125 72.804688 C 414.117188 72.992188 413.507813 73.328125 412.882813 73.816406 C 412.257813 74.300781 411.742188 74.738281 411.335938 75.121094 C 410.929688 75.507813 410.730469 75.929688 410.738281 76.386719 C 410.742188 76.59375 410.835938 76.90625 411.015625 77.324219 C 411.191406 77.742188 411.632813 78.050781 412.332031 78.253906 C 413.03125 78.453125 413.726563 78.589844 414.425781 78.664063 C 415.1875 77.644531 415.96875 77.125 416.765625 77.109375 C 417.402344 77.09375 418.089844 77.4375 418.828125 78.132813 C 419.417969 78.753906 420.007813 79.363281 420.59375 79.960938 C 421.183594 80.554688 421.652344 81.324219 422.007813 82.269531 C 422.359375 83.214844 422.542969 84.140625 422.5625 85.042969 C 422.582031 86.046875 422.386719 86.847656 421.96875 87.4375 C 421.550781 88.03125 420.890625 88.335938 419.988281 88.355469 L 417.441406 88.40625 C 417.765625 87.617188 417.953125 87.070313 418.003906 86.765625 C 418.058594 86.460938 418.097656 86.191406 418.121094 85.953125 C 418.089844 84.3125 417.535156 82.785156 416.464844 81.375 C 415.394531 79.960938 414.035156 79.273438 412.398438 79.304688 C 410.917969 79.335938 409.710938 79.773438 408.773438 80.621094 C 407.839844 81.46875 407.386719 82.683594 407.417969 84.265625 C 407.441406 85.359375 407.582031 86.171875 407.84375 86.707031 C 408.105469 87.242188 408.429688 87.851563 408.8125 88.539063 L 405.378906 88.609375 L 405.378906 88.753906 L 403.679688 88.945313 C 403.136719 89.007813 402.523438 88.675781 401.847656 87.945313 C 401.171875 87.21875 400.324219 86.914063 399.3125 87.027344 C 398.460938 87.121094 397.8125 87.398438 397.363281 87.859375 C 396.917969 88.320313 396.746094 89.019531 396.851563 89.960938 C 396.980469 91.089844 397.355469 91.917969 397.980469 92.441406 C 398.605469 92.96875 398.925781 93.3125 398.941406 93.472656 C 399.011719 94.0625 398.617188 95.476563 397.769531 97.722656 C 396.921875 99.96875 396.402344 101.296875 396.210938 101.703125 C 394.507813 104.1875 392.316406 106.304688 389.636719 108.054688 C 386.953125 109.808594 384.578125 110.800781 382.507813 111.03125 C 378.863281 111.441406 375.597656 111.078125 372.707031 109.9375 C 369.820313 108.796875 367.875 107.582031 366.875 106.296875 C 365.875 105.007813 365.070313 103.589844 364.457031 102.035156 C 363.84375 100.484375 363.292969 99 362.804688 97.582031 C 362.734375 97.617188 362.707031 97.695313 362.71875 97.8125 C 362.734375 97.929688 362.753906 98.109375 362.777344 98.34375 L 362.882813 99.246094 C 362.921875 99.597656 363.277344 101.042969 363.949219 103.578125 C 364.621094 106.113281 366.539063 108.730469 369.707031 111.433594 C 372.875 114.136719 377.464844 115.148438 383.472656 114.472656 C 386.058594 114.183594 389.089844 112.960938 392.566406 110.804688 C 396.046875 108.652344 398.511719 106.273438 399.96875 103.667969 C 401.421875 101.066406 402.359375 98.699219 402.773438 96.570313 C 403.1875 94.4375 404.101563 93.296875 405.511719 93.136719 L 405.53125 93.132813 C 406.269531 95.742188 407.941406 98.082031 410.550781 100.144531 C 414.015625 102.890625 417.753906 104.414063 421.765625 104.722656 C 424.535156 104.9375 427.0625 104.71875 429.34375 104.070313 C 431.625 103.421875 433.691406 102.519531 435.546875 101.355469 C 436.871094 100.332031 438.40625 98.519531 440.15625 95.925781 C 441.90625 93.335938 442.871094 90.855469 443.050781 88.496094 C 443.222656 86.273438 442.859375 84.289063 441.964844 82.554688 C 441.066406 80.816406 439.917969 79.894531 438.515625 79.785156 "/>
<path style=" stroke:none;fill-rule:nonzero;fill:rgb(100%,100%,100%);fill-opacity:1;" d="M 485.78125 92.441406 C 486.617188 92.683594 487.222656 92.609375 487.589844 92.214844 C 487.957031 91.820313 488.1875 91.460938 488.28125 91.132813 C 488.410156 90.691406 488.429688 90.304688 488.339844 89.972656 C 488.25 89.640625 488.082031 89.355469 487.835938 89.121094 C 487.585938 88.890625 487.300781 88.726563 486.972656 88.632813 C 486.53125 88.503906 486.140625 88.488281 485.796875 88.582031 C 485.453125 88.675781 485.148438 88.867188 484.882813 89.160156 C 484.695313 89.367188 484.5625 89.628906 484.46875 89.941406 C 484.230469 90.777344 484.304688 91.382813 484.699219 91.75 C 485.09375 92.117188 485.453125 92.347656 485.78125 92.441406 "/>
<path style=" stroke:none;fill-rule:nonzero;fill:rgb(100%,100%,100%);fill-opacity:1;" d="M 509.054688 102.175781 C 508.753906 100.59375 508.261719 99.648438 507.574219 99.34375 C 506.679688 98.953125 505.839844 98.929688 505.058594 99.28125 C 504.273438 99.628906 503.746094 100.109375 503.480469 100.71875 C 503.222656 101.300781 503.195313 101.898438 503.394531 102.507813 C 503.589844 103.121094 503.96875 103.550781 504.523438 103.792969 C 505.160156 104.074219 505.484375 104.308594 505.496094 104.5 C 505.511719 104.691406 505.53125 104.878906 505.570313 105.054688 C 505.605469 105.230469 505.554688 105.476563 505.414063 105.785156 C 505.332031 105.976563 505.246094 106.128906 505.164063 106.246094 C 505.082031 106.363281 504.988281 106.464844 504.886719 106.546875 C 503.835938 105.710938 503.246094 105.261719 503.132813 105.191406 C 503.019531 105.125 502.390625 104.84375 501.253906 104.34375 L 499.964844 103.773438 L 500.28125 102.671875 C 500.097656 102.617188 499.933594 102.570313 499.789063 102.53125 C 499.648438 102.488281 499.34375 102.402344 498.871094 102.265625 C 498.761719 102.234375 498.488281 102.140625 498.066406 101.984375 C 497.640625 101.832031 497.421875 101.605469 497.410156 101.300781 C 497.394531 100.996094 497.089844 100.507813 496.480469 99.832031 C 495.878906 99.15625 495.238281 98.722656 494.574219 98.53125 C 493.578125 98.246094 492.800781 98.335938 492.242188 98.804688 C 491.683594 99.277344 491.378906 99.703125 491.328125 100.089844 C 491.226563 100.984375 491.433594 101.8125 491.953125 102.578125 C 492.46875 103.34375 492.707031 103.796875 492.664063 103.9375 C 492.457031 104.660156 491.492188 105.65625 489.777344 106.921875 C 488.054688 108.1875 486.230469 109.355469 484.300781 110.421875 C 482.367188 111.488281 480.109375 112.167969 477.527344 112.460938 C 474.941406 112.753906 472.597656 112.597656 470.492188 111.992188 C 466.488281 110.835938 463.515625 108.640625 461.578125 105.40625 C 459.644531 102.167969 459.214844 98.675781 460.296875 94.925781 C 460.980469 92.566406 462.0625 90.496094 463.558594 88.710938 C 465.046875 86.925781 466.574219 85.464844 468.132813 84.328125 C 468.230469 83.988281 468.273438 83.78125 468.265625 83.707031 C 468.253906 83.636719 468.269531 83.527344 468.3125 83.386719 C 465.121094 85.375 462.683594 87.242188 460.996094 88.984375 C 459.308594 90.730469 458.140625 92.300781 457.488281 93.699219 C 457.308594 94.21875 457.132813 94.726563 456.953125 95.230469 C 455.699219 99.589844 456.453125 103.882813 459.222656 108.105469 C 461.988281 112.328125 465.722656 115.117188 470.425781 116.472656 C 470.640625 116.535156 470.886719 116.597656 471.164063 116.664063 C 471.449219 116.730469 472.363281 116.910156 473.914063 117.214844 C 475.46875 117.515625 478.3125 117.050781 482.445313 115.820313 C 486.574219 114.585938 489.519531 113.230469 491.269531 111.75 C 493.019531 110.269531 494.234375 109.179688 494.914063 108.472656 C 495.59375 107.769531 496.140625 107.070313 496.558594 106.375 C 496.710938 106.386719 496.863281 106.40625 497.019531 106.425781 L 496.714844 107.117188 L 499.027344 108.136719 C 500.800781 108.914063 501.949219 109.535156 502.476563 109.992188 C 503 110.449219 503.402344 110.820313 503.683594 111.105469 C 504.371094 111.40625 505.167969 111.175781 506.070313 110.410156 C 506.972656 109.644531 507.714844 108.605469 508.289063 107.292969 C 509.09375 105.46875 509.347656 103.761719 509.054688 102.175781 "/>
<path style=" stroke:none;fill-rule:nonzero;fill:rgb(100%,100%,100%);fill-opacity:1;" d="M 504.046875 114.898438 C 503.355469 114.597656 502.699219 114.5625 502.078125 114.796875 C 501.460938 115.035156 501.046875 115.386719 500.835938 115.863281 C 500.46875 116.699219 500.398438 117.34375 500.628906 117.792969 C 500.859375 118.242188 501.140625 118.621094 501.472656 118.929688 C 502.136719 119.222656 502.828125 119.300781 503.546875 119.175781 C 504.265625 119.046875 504.804688 118.574219 505.160156 117.765625 C 505.417969 117.183594 505.488281 116.644531 505.375 116.148438 C 505.261719 115.65625 504.816406 115.238281 504.046875 114.898438 "/>
<path style=" stroke:none;fill-rule:nonzero;fill:rgb(100%,100%,100%);fill-opacity:1;" d="M 526.648438 88.335938 C 525.695313 87.855469 524.535156 87.886719 523.160156 88.429688 C 521.789063 88.96875 520.867188 89.867188 520.398438 91.121094 C 520.523438 91.699219 520.652344 92.257813 520.789063 92.796875 C 520.921875 93.335938 520.867188 93.976563 520.628906 94.714844 L 517.460938 102.726563 C 517.195313 103.375 516.902344 104.089844 516.578125 104.867188 C 516.253906 105.648438 515.964844 106.28125 515.71875 106.769531 C 515.445313 107.3125 515.136719 107.859375 514.792969 108.414063 C 514.445313 108.96875 513.96875 109.609375 513.363281 110.335938 C 512.753906 111.066406 512 111.746094 511.09375 112.371094 C 510.191406 113.003906 508.777344 113.742188 506.855469 114.597656 C 509.363281 115.078125 511.808594 114.59375 514.195313 113.140625 C 516.585938 111.6875 518.066406 110.394531 518.636719 109.257813 C 519.355469 107.832031 520.214844 105.65625 521.214844 102.734375 C 522.21875 99.8125 523.160156 97.472656 524.046875 95.71875 C 524.484375 94.847656 524.988281 94.097656 525.5625 93.476563 C 526.128906 92.851563 526.671875 92.265625 527.183594 91.710938 C 527.46875 91.339844 527.625 90.773438 527.652344 90.011719 C 527.683594 89.246094 527.347656 88.6875 526.648438 88.335938 "/>
<path style=" stroke:none;fill-rule:nonzero;fill:rgb(100%,100%,100%);fill-opacity:1;" d="M 539.324219 103.8125 C 539.757813 104.09375 540.199219 104.265625 540.648438 104.320313 C 541.097656 104.378906 541.96875 104.195313 543.257813 103.765625 C 543.265625 104.074219 543.289063 104.488281 543.320313 105.003906 C 543.394531 105.425781 543.714844 105.820313 544.269531 106.183594 C 544.886719 106.589844 545.566406 106.789063 546.3125 106.785156 C 547.058594 106.78125 547.609375 106.511719 547.957031 105.980469 C 548.199219 105.609375 548.3125 105.050781 548.296875 104.292969 C 548.28125 103.539063 548.007813 102.988281 547.472656 102.640625 C 546.671875 102.109375 545.992188 101.890625 545.441406 101.976563 C 544.886719 102.066406 544.195313 102.394531 543.363281 102.960938 C 543.492188 102.144531 543.492188 101.558594 543.359375 101.207031 C 543.226563 100.855469 542.847656 100.472656 542.21875 100.058594 C 541.636719 99.675781 541.066406 99.460938 540.507813 99.410156 C 539.945313 99.363281 539.414063 99.71875 538.910156 100.484375 C 538.480469 101.140625 538.328125 101.785156 538.453125 102.414063 C 538.578125 103.046875 538.867188 103.511719 539.324219 103.8125 "/>
<path style=" stroke:none;fill-rule:nonzero;fill:rgb(100%,100%,100%);fill-opacity:1;" d="M 563.496094 146.121094 C 563.277344 146.574219 563.050781 146.925781 562.820313 147.175781 C 562.429688 147.597656 562.074219 147.742188 561.761719 147.613281 C 561.445313 147.484375 561.234375 147.371094 561.128906 147.269531 C 560.75 146.917969 560.671875 146.328125 560.890625 145.503906 C 560.992188 145.175781 561.09375 144.914063 561.191406 144.726563 C 561.289063 144.53125 561.453125 144.3125 561.683594 144.0625 C 561.863281 143.867188 562.078125 143.726563 562.320313 143.640625 C 562.5625 143.550781 562.804688 143.558594 563.050781 143.667969 C 563.46875 143.890625 563.699219 144.242188 563.75 144.722656 C 563.796875 145.203125 563.714844 145.667969 563.496094 146.121094 M 549.496094 128.574219 C 548.996094 128.035156 548.828125 127.664063 548.980469 127.46875 C 549.09375 127.328125 549.449219 127.359375 550.058594 127.566406 C 550.667969 127.773438 551.144531 127.953125 551.484375 128.105469 C 551.824219 128.261719 552.214844 128.15625 552.660156 127.789063 C 553.105469 127.425781 553.433594 127.324219 553.644531 127.492188 C 553.785156 127.601563 553.753906 127.933594 553.550781 128.488281 C 553.347656 129.046875 553.40625 129.511719 553.722656 129.890625 C 554.035156 130.269531 554.292969 130.664063 554.496094 131.074219 C 554.695313 131.488281 554.761719 131.742188 554.6875 131.835938 C 554.515625 132.054688 553.992188 131.9375 553.121094 131.476563 C 552.25 131.019531 551.621094 130.640625 551.238281 130.339844 C 550.574219 129.703125 549.992188 129.113281 549.496094 128.574219 M 536.238281 122.960938 C 536.066406 122.847656 535.679688 122.609375 535.085938 122.253906 C 534.503906 121.871094 534.054688 121.488281 533.742188 121.105469 C 533.425781 120.722656 533.386719 120.351563 533.625 119.992188 C 533.941406 119.511719 534.289063 119.109375 534.671875 118.785156 C 535.050781 118.460938 535.460938 118.269531 535.898438 118.210938 C 536.335938 118.152344 536.945313 118.195313 537.738281 118.335938 C 538.53125 118.476563 539.15625 118.695313 539.613281 118.996094 C 540.171875 119.359375 540.296875 119.773438 539.996094 120.230469 L 539.015625 122.132813 L 538.660156 122.828125 C 538.132813 123.632813 537.324219 123.675781 536.238281 122.960938 M 566.089844 140.523438 C 564.777344 139.308594 563.621094 138.867188 562.625 139.203125 C 561.628906 139.539063 560.65625 140.214844 559.710938 141.234375 L 557.414063 139.101563 L 557.496094 139 L 556.273438 138.042969 L 556.199219 137.972656 L 556.195313 137.980469 L 554.058594 136.300781 C 553.496094 135.746094 553.15625 135.3125 553.039063 134.996094 C 552.921875 134.679688 552.8125 134.355469 552.710938 134.03125 C 553.585938 134.644531 554.46875 135.175781 555.359375 135.632813 C 556.253906 136.089844 556.988281 135.941406 557.574219 135.199219 C 558.183594 134.421875 558.335938 133.523438 558.023438 132.507813 C 557.667969 131.644531 557.316406 130.785156 556.972656 129.933594 C 556.800781 129.386719 556.71875 128.5 556.730469 127.277344 C 556.742188 126.054688 556.4375 125.199219 555.820313 124.71875 C 555.367188 124.359375 554.546875 124.320313 553.351563 124.597656 C 552.15625 124.871094 551.246094 124.988281 550.621094 124.949219 C 549.382813 124.707031 548.308594 124.542969 547.402344 124.453125 C 546.496094 124.359375 545.746094 124.691406 545.152344 125.449219 C 544.585938 126.171875 544.746094 127.046875 545.628906 128.078125 C 546.265625 128.726563 546.914063 129.371094 547.582031 130.007813 C 547.105469 129.914063 546.707031 129.855469 546.382813 129.828125 C 546.058594 129.796875 545.640625 129.617188 545.128906 129.289063 L 542.839844 127.496094 L 542.855469 127.46875 L 542.554688 127.273438 L 541.636719 126.550781 L 541.578125 126.628906 L 540.6875 126.042969 C 540.953125 125.316406 541.476563 124.289063 542.261719 122.964844 C 542.8125 122.125 543.359375 121.289063 543.90625 120.464844 C 544.457031 119.621094 545.003906 118.808594 545.546875 118.027344 C 546.089844 117.242188 546.621094 116.453125 547.140625 115.664063 C 547.9375 114.453125 548.28125 113.285156 548.179688 112.164063 C 548.074219 111.046875 547.585938 110.195313 546.707031 109.617188 C 545.917969 109.097656 545.183594 108.800781 544.511719 108.71875 C 543.839844 108.640625 543.1875 109.082031 542.554688 110.046875 C 542.300781 110.429688 542.359375 111.03125 542.734375 111.851563 C 543.105469 112.671875 543.261719 113.273438 543.203125 113.65625 C 543.144531 114.042969 543.011719 114.519531 542.808594 115.085938 C 542.605469 115.648438 542.371094 116.015625 542.105469 116.175781 C 539.90625 115.453125 537.714844 114.738281 535.527344 114.027344 C 533.34375 113.882813 531.566406 114.847656 530.203125 116.921875 C 528.730469 119.15625 528.292969 120.886719 528.890625 122.109375 C 529.480469 123.332031 530.226563 124.34375 531.117188 125.140625 C 531.296875 125.1875 531.5 125.277344 531.722656 125.40625 C 531.949219 125.535156 532.53125 125.910156 533.46875 126.527344 C 533.59375 126.609375 533.773438 126.726563 534.015625 126.886719 C 534.257813 127.046875 534.46875 127.203125 534.648438 127.355469 C 534.347656 127.546875 533.765625 127.730469 532.90625 127.910156 C 532.046875 128.085938 531.464844 128.296875 531.164063 128.539063 C 532.855469 129.652344 534.335938 130.046875 535.601563 129.722656 C 536.867188 129.394531 538.144531 129.65625 539.429688 130.5 C 539.828125 130.761719 540.152344 130.976563 540.421875 131.148438 L 544.433594 134.300781 C 544.574219 134.410156 545.144531 134.417969 546.140625 134.316406 C 547.140625 134.21875 547.71875 134.226563 547.867188 134.347656 C 548.03125 134.476563 548.183594 135.035156 548.324219 136.027344 C 548.464844 137.023438 548.621094 137.589844 548.796875 137.726563 L 553.433594 141.363281 L 557.683594 145.308594 C 557.652344 146.230469 557.625 147.175781 557.597656 148.136719 C 557.695313 149.097656 558.113281 149.917969 558.851563 150.601563 C 559.683594 151.375 560.582031 151.785156 561.539063 151.828125 C 562.5 151.871094 563.53125 151.296875 564.640625 150.105469 C 566.347656 148.261719 567.238281 146.410156 567.3125 144.550781 C 567.386719 142.691406 566.976563 141.351563 566.089844 140.523438 "/>
<path style=" stroke:none;fill-rule:nonzero;fill:rgb(100%,100%,100%);fill-opacity:1;" d="M 592.214844 175.933594 L 591.496094 175.003906 C 590.980469 174.339844 590.578125 173.703125 590.296875 173.097656 C 590.015625 172.492188 589.882813 171.695313 589.898438 170.699219 C 589.914063 169.707031 590.324219 167.816406 591.136719 165.023438 C 591.949219 162.234375 591.601563 159.871094 590.097656 157.929688 C 589.28125 156.878906 588.367188 156.171875 587.355469 155.804688 C 586.34375 155.441406 585.335938 155.648438 584.328125 156.425781 C 583.699219 156.914063 583.214844 157.511719 582.878906 158.210938 C 582.542969 158.910156 582.699219 159.683594 583.351563 160.523438 C 583.605469 160.851563 583.976563 161.078125 584.460938 161.210938 C 584.945313 161.339844 585.535156 161.480469 586.230469 161.632813 C 586.5 162.675781 586.777344 163.722656 587.066406 164.769531 C 587.34375 166.164063 586.867188 167.339844 585.644531 168.289063 C 584.652344 167.203125 583.507813 165.921875 582.210938 164.441406 C 580.910156 162.960938 579.703125 161.5 578.589844 160.0625 C 578.089844 159.421875 577.675781 158.871094 577.34375 158.421875 C 577.011719 157.96875 576.683594 157.53125 576.355469 157.109375 L 575.96875 157.410156 L 574.929688 156.308594 C 575.246094 155.804688 575.734375 155.023438 576.394531 153.96875 C 577.050781 152.910156 578.054688 151.410156 579.398438 149.472656 C 580.738281 147.535156 582.246094 145.515625 583.921875 143.410156 C 584.136719 143.164063 584.832031 142.648438 586.011719 141.863281 C 587.191406 141.074219 587.988281 140.484375 588.410156 140.089844 C 589.042969 139.492188 589.464844 138.855469 589.664063 138.1875 C 589.867188 137.519531 589.761719 136.964844 589.347656 136.523438 C 588.808594 135.953125 587.96875 135.621094 586.824219 135.53125 C 585.683594 135.441406 584.558594 135.917969 583.449219 136.964844 C 582.75 137.621094 582.226563 138.5 581.882813 139.601563 C 581.535156 140.699219 581.222656 141.734375 580.945313 142.710938 L 572.679688 153.859375 C 570.894531 155.542969 569.355469 156.585938 568.070313 156.988281 C 566.757813 157.125 565.789063 157.285156 565.167969 157.46875 L 564.820313 158.101563 C 566.148438 158.796875 567.46875 159.070313 568.78125 158.921875 C 570.09375 158.769531 570.902344 158.75 571.207031 158.859375 C 571.511719 158.96875 571.894531 159.265625 572.351563 159.746094 C 572.949219 160.382813 573.332031 160.800781 573.496094 160.996094 C 573.664063 161.195313 573.796875 161.390625 573.898438 161.582031 L 574.152344 161.339844 L 574.488281 161.757813 C 575.339844 162.855469 576.539063 164.308594 578.09375 166.117188 C 579.644531 167.925781 581.746094 170.542969 584.402344 173.964844 C 585.21875 175.015625 585.980469 176.347656 586.6875 177.960938 C 587.394531 179.574219 587.804688 180.449219 587.910156 180.589844 C 588.421875 181.242188 588.992188 181.554688 589.628906 181.519531 C 590.265625 181.484375 590.964844 181.171875 591.722656 180.582031 C 592.820313 179.730469 593.355469 178.96875 593.324219 178.304688 C 593.289063 177.636719 592.921875 176.84375 592.214844 175.933594 "/>
<path style=" stroke:none;fill-rule:nonzero;fill:rgb(100%,100%,100%);fill-opacity:1;" d="M 578.941406 173.964844 C 578.285156 173.875 577.75 173.988281 577.339844 174.304688 C 576.863281 174.675781 576.566406 175.234375 576.449219 175.980469 C 576.335938 176.722656 576.410156 177.265625 576.671875 177.605469 C 577.152344 178.222656 577.746094 178.542969 578.453125 178.566406 C 579.164063 178.585938 579.757813 178.410156 580.234375 178.039063 C 581.382813 177.152344 581.507813 176.132813 580.621094 174.988281 C 580.160156 174.394531 579.597656 174.050781 578.941406 173.964844 "/>
<path style=" stroke:none;fill-rule:nonzero;fill:rgb(100%,100%,100%);fill-opacity:1;" d="M 221.835938 348.925781 L 223.386719 353.890625 L 210.0625 358.050781 C 207.949219 358.707031 206.597656 359.195313 206.007813 359.515625 C 205.066406 360.042969 204.417969 360.800781 204.058594 361.789063 C 203.695313 362.78125 203.734375 363.96875 204.167969 365.355469 C 204.605469 366.765625 205.226563 367.738281 206.023438 368.277344 C 206.824219 368.8125 207.667969 369.023438 208.550781 368.90625 C 209.4375 368.789063 210.851563 368.425781 212.796875 367.820313 L 226.40625 363.574219 L 227.957031 368.539063 L 215.035156 372.570313 C 212.082031 373.492188 209.953125 374.011719 208.648438 374.121094 C 207.347656 374.234375 206.164063 374.0625 205.101563 373.601563 C 204.035156 373.140625 203.066406 372.382813 202.191406 371.332031 C 201.316406 370.277344 200.574219 368.777344 199.96875 366.832031 C 199.234375 364.484375 198.949219 362.617188 199.113281 361.234375 C 199.277344 359.851563 199.683594 358.671875 200.332031 357.695313 C 200.976563 356.722656 201.742188 355.972656 202.621094 355.453125 C 203.933594 354.6875 205.960938 353.878906 208.714844 353.019531 "/>
<path style=" stroke:none;fill-rule:nonzero;fill:rgb(100%,100%,100%);fill-opacity:1;" d="M 205.996094 383.199219 L 229.484375 372.59375 L 231.566406 377.210938 L 220.222656 393.902344 L 235.90625 386.820313 L 237.898438 391.226563 L 214.410156 401.828125 L 212.261719 397.070313 L 223.304688 380.6875 L 207.988281 387.601563 "/>
<path style=" stroke:none;fill-rule:nonzero;fill:rgb(100%,100%,100%);fill-opacity:1;" d="M 217.699219 407.660156 L 240.214844 395.125 L 242.746094 399.671875 L 220.230469 412.207031 Z M 217.699219 407.660156 "/>
<path style=" stroke:none;fill-rule:nonzero;fill:rgb(100%,100%,100%);fill-opacity:1;" d="M 226.871094 423.113281 L 243.226563 401.171875 L 246.351563 405.871094 L 234.085938 421.863281 L 253.460938 416.554688 L 256.515625 421.148438 L 229.949219 427.738281 "/>
<path style=" stroke:none;fill-rule:nonzero;fill:rgb(100%,100%,100%);fill-opacity:1;" d="M 237.8125 438.855469 L 257.554688 422.292969 L 269.835938 436.933594 L 266.496094 439.734375 L 257.558594 429.082031 L 253.179688 432.753906 L 261.496094 442.664063 L 258.171875 445.457031 L 249.855469 435.542969 L 244.480469 440.050781 L 253.734375 451.082031 L 250.40625 453.871094 "/>
<path style=" stroke:none;fill-rule:nonzero;fill:rgb(100%,100%,100%);fill-opacity:1;" d="M 268.691406 451.199219 L 271.488281 453.847656 C 273.300781 455.5625 274.507813 456.554688 275.101563 456.828125 C 275.699219 457.101563 276.300781 457.171875 276.910156 457.039063 C 277.519531 456.90625 278.09375 456.558594 278.621094 455.996094 C 279.21875 455.367188 279.53125 454.699219 279.5625 453.992188 C 279.59375 453.289063 279.347656 452.59375 278.832031 451.914063 C 278.566406 451.582031 277.667969 450.6875 276.132813 449.242188 L 273.183594 446.449219 Z M 254.691406 458.433594 L 272.398438 439.710938 L 280.355469 447.230469 C 282.355469 449.125 283.652344 450.667969 284.238281 451.859375 C 284.828125 453.054688 284.988281 454.339844 284.722656 455.714844 C 284.453125 457.089844 283.796875 458.332031 282.746094 459.4375 C 281.421875 460.84375 279.910156 461.613281 278.21875 461.746094 C 276.527344 461.882813 274.746094 461.289063 272.878906 459.976563 C 273.242188 461.226563 273.425781 462.386719 273.417969 463.460938 C 273.410156 464.535156 273.167969 466.226563 272.695313 468.535156 L 271.527344 474.351563 L 267.003906 470.074219 L 268.125 463.414063 C 268.53125 461.042969 268.734375 459.496094 268.734375 458.777344 C 268.734375 458.0625 268.601563 457.445313 268.335938 456.925781 C 268.066406 456.40625 267.5 455.734375 266.632813 454.914063 L 265.863281 454.191406 L 258.472656 462.007813 "/>
<path style=" stroke:none;fill-rule:nonzero;fill:rgb(100%,100%,100%);fill-opacity:1;" d="M 279.183594 469.695313 L 283.53125 472.332031 C 282.757813 473.875 282.507813 475.246094 282.773438 476.441406 C 283.046875 477.636719 283.8125 478.710938 285.078125 479.65625 C 286.421875 480.660156 287.644531 481.132813 288.75 481.074219 C 289.855469 481.015625 290.691406 480.601563 291.261719 479.84375 C 291.625 479.355469 291.792969 478.835938 291.761719 478.277344 C 291.730469 477.71875 291.453125 477.050781 290.933594 476.261719 C 290.570313 475.726563 289.683594 474.597656 288.269531 472.867188 C 286.449219 470.640625 285.390625 468.789063 285.09375 467.308594 C 284.675781 465.226563 285.074219 463.367188 286.296875 461.734375 C 287.082031 460.683594 288.117188 459.925781 289.394531 459.453125 C 290.675781 458.984375 292.054688 458.929688 293.535156 459.289063 C 295.015625 459.648438 296.546875 460.421875 298.132813 461.609375 C 300.726563 463.542969 302.25 465.570313 302.710938 467.683594 C 303.171875 469.800781 302.726563 471.828125 301.371094 473.773438 L 297.066406 470.84375 C 297.683594 469.648438 297.871094 468.597656 297.632813 467.695313 C 297.390625 466.792969 296.6875 465.902344 295.511719 465.027344 C 294.300781 464.121094 293.167969 463.660156 292.109375 463.644531 C 291.433594 463.636719 290.890625 463.898438 290.492188 464.433594 C 290.128906 464.921875 290.019531 465.492188 290.175781 466.148438 C 290.371094 466.984375 291.300781 468.394531 292.972656 470.390625 C 294.640625 472.386719 295.769531 474 296.359375 475.238281 C 296.949219 476.476563 297.1875 477.742188 297.074219 479.042969 C 296.960938 480.339844 296.414063 481.640625 295.4375 482.945313 C 294.554688 484.128906 293.398438 484.988281 291.96875 485.53125 C 290.539063 486.074219 289.039063 486.144531 287.460938 485.75 C 285.882813 485.351563 284.199219 484.484375 282.40625 483.144531 C 279.796875 481.195313 278.246094 479.09375 277.746094 476.84375 C 277.25 474.589844 277.730469 472.207031 279.183594 469.695313 "/>
<path style=" stroke:none;fill-rule:nonzero;fill:rgb(100%,100%,100%);fill-opacity:1;" d="M 295.621094 491.804688 L 309.378906 470.015625 L 313.777344 472.789063 L 300.019531 494.582031 Z M 295.621094 491.804688 "/>
<path style=" stroke:none;fill-rule:nonzero;fill:rgb(100%,100%,100%);fill-opacity:1;" d="M 310.324219 500.5625 L 320.378906 481.660156 L 313.628906 478.070313 L 315.675781 474.21875 L 333.757813 483.835938 L 331.710938 487.6875 L 324.972656 484.101563 L 314.921875 503.003906 "/>
<path style=" stroke:none;fill-rule:nonzero;fill:rgb(100%,100%,100%);fill-opacity:1;" d="M 342.539063 485.851563 L 346.746094 481.878906 L 351.886719 483.941406 L 345.441406 487.019531 Z M 326.261719 508.679688 L 335.855469 484.761719 L 353.589844 491.875 L 351.964844 495.921875 L 339.0625 490.746094 L 336.9375 496.046875 L 348.941406 500.863281 L 347.328125 504.894531 L 335.316406 500.078125 L 332.707031 506.585938 L 346.070313 511.949219 L 344.453125 515.976563 "/>
<path style=" stroke:none;fill-rule:nonzero;fill:rgb(100%,100%,100%);fill-opacity:1;" d="M 360.027344 520.597656 L 366.53125 495.660156 L 371.566406 496.976563 L 365.0625 521.910156 Z M 360.027344 520.597656 "/>
<path style=" stroke:none;fill-rule:nonzero;fill:rgb(100%,100%,100%);fill-opacity:1;" d="M 379.949219 503.277344 L 378.9375 509.148438 L 382.296875 509.726563 C 384.292969 510.074219 385.539063 510.257813 386.035156 510.285156 C 386.929688 510.332031 387.671875 510.148438 388.261719 509.734375 C 388.851563 509.316406 389.214844 508.699219 389.355469 507.878906 C 389.492188 507.09375 389.386719 506.417969 389.039063 505.851563 C 388.6875 505.289063 388.097656 504.878906 387.261719 504.628906 C 386.761719 504.484375 385.308594 504.203125 382.894531 503.785156 Z M 378.203125 513.375 L 377.035156 520.167969 L 381.78125 520.984375 C 383.628906 521.304688 384.808594 521.453125 385.324219 521.433594 C 386.109375 521.429688 386.789063 521.199219 387.359375 520.746094 C 387.933594 520.289063 388.296875 519.613281 388.453125 518.710938 C 388.585938 517.949219 388.511719 517.269531 388.230469 516.675781 C 387.953125 516.082031 387.488281 515.601563 386.828125 515.238281 C 386.171875 514.875 384.679688 514.492188 382.347656 514.089844 Z M 375.550781 498.164063 L 385.699219 499.917969 C 387.710938 500.261719 389.195313 500.605469 390.152344 500.945313 C 391.113281 501.28125 391.933594 501.785156 392.621094 502.449219 C 393.3125 503.117188 393.839844 503.933594 394.203125 504.90625 C 394.574219 505.878906 394.660156 506.917969 394.472656 508.011719 C 394.265625 509.203125 393.757813 510.238281 392.945313 511.121094 C 392.132813 512.003906 391.136719 512.597656 389.953125 512.90625 C 391.421875 513.625 392.480469 514.59375 393.121094 515.824219 C 393.769531 517.054688 393.964844 518.402344 393.710938 519.867188 C 393.511719 521.023438 393.046875 522.097656 392.324219 523.097656 C 391.597656 524.097656 390.714844 524.84375 389.671875 525.335938 C 388.628906 525.828125 387.414063 526.03125 386.027344 525.945313 C 385.15625 525.890625 383.085938 525.589844 379.8125 525.050781 L 371.167969 523.558594 "/>
<path style=" stroke:none;fill-rule:nonzero;fill:rgb(100%,100%,100%);fill-opacity:1;" d="M 398.742188 527.875 L 400.046875 502.136719 L 405.101563 502.394531 L 414.765625 520.113281 L 415.636719 502.929688 L 420.464844 503.171875 L 419.15625 528.910156 L 413.945313 528.644531 L 404.421875 511.335938 L 403.570313 528.117188 "/>
<path style=" stroke:none;fill-rule:nonzero;fill:rgb(100%,100%,100%);fill-opacity:1;" d="M 434.90625 528.523438 L 434.414063 523.859375 L 446.121094 505.8125 L 434.183594 507.074219 L 433.726563 502.738281 L 452.484375 500.757813 L 452.90625 504.78125 L 440.691406 523.546875 L 455.269531 522.011719 L 455.726563 526.328125 "/>
<path style=" stroke:none;fill-rule:nonzero;fill:rgb(100%,100%,100%);fill-opacity:1;" d="M 462.164063 512.027344 C 462.808594 514.871094 463.949219 516.882813 465.59375 518.054688 C 467.238281 519.226563 469.074219 519.585938 471.097656 519.132813 C 473.121094 518.675781 474.617188 517.574219 475.589844 515.824219 C 476.558594 514.074219 476.714844 511.742188 476.058594 508.828125 C 475.410156 505.945313 474.292969 503.9375 472.710938 502.804688 C 471.128906 501.671875 469.292969 501.339844 467.199219 501.8125 C 465.105469 502.28125 463.582031 503.378906 462.625 505.101563 C 461.667969 506.824219 461.515625 509.132813 462.164063 512.027344 M 456.972656 513.375 C 456.398438 510.8125 456.296875 508.578125 456.671875 506.667969 C 456.953125 505.257813 457.476563 503.933594 458.234375 502.695313 C 458.996094 501.453125 459.910156 500.457031 460.976563 499.699219 C 462.394531 498.683594 464.125 497.945313 466.171875 497.484375 C 469.875 496.652344 473.097656 497.132813 475.839844 498.929688 C 478.578125 500.726563 480.410156 503.671875 481.332031 507.765625 C 482.246094 511.824219 481.855469 515.25 480.167969 518.035156 C 478.476563 520.824219 475.785156 522.636719 472.09375 523.464844 C 468.351563 524.308594 465.125 523.835938 462.402344 522.050781 C 459.683594 520.269531 457.875 517.375 456.972656 513.375 "/>
<path style=" stroke:none;fill-rule:nonzero;fill:rgb(100%,100%,100%);fill-opacity:1;" d="M 489.964844 518.460938 L 481.179688 494.230469 L 486.070313 492.460938 L 489.527344 501.992188 L 499.113281 498.519531 L 495.65625 488.984375 L 500.550781 487.210938 L 509.332031 511.4375 L 504.441406 513.210938 L 500.601563 502.617188 L 491.015625 506.09375 L 494.855469 516.6875 "/>
<path style=" stroke:none;fill-rule:nonzero;fill:rgb(100%,100%,100%);fill-opacity:1;" d="M 513.96875 492.914063 L 517.402344 491.175781 C 519.628906 490.046875 520.972656 489.246094 521.429688 488.777344 C 521.890625 488.308594 522.15625 487.765625 522.238281 487.144531 C 522.320313 486.527344 522.183594 485.871094 521.835938 485.183594 C 521.441406 484.410156 520.917969 483.890625 520.265625 483.621094 C 519.609375 483.355469 518.875 483.351563 518.058594 483.609375 C 517.65625 483.746094 516.515625 484.292969 514.632813 485.246094 L 511.011719 487.082031 Z M 516.054688 508.53125 L 504.398438 485.550781 L 514.167969 480.597656 C 516.621094 479.351563 518.511719 478.652344 519.835938 478.5 C 521.15625 478.347656 522.421875 478.632813 523.625 479.347656 C 524.828125 480.0625 525.777344 481.101563 526.464844 482.460938 C 527.339844 484.1875 527.554688 485.867188 527.109375 487.503906 C 526.664063 489.140625 525.511719 490.617188 523.640625 491.933594 C 524.941406 492.011719 526.097656 492.234375 527.105469 492.601563 C 528.113281 492.972656 529.621094 493.769531 531.636719 494.992188 L 536.71875 498.054688 L 531.167969 500.871094 L 525.277344 497.566406 C 523.179688 496.386719 521.792969 495.671875 521.117188 495.429688 C 520.441406 495.1875 519.816406 495.105469 519.238281 495.183594 C 518.65625 495.257813 517.835938 495.566406 516.769531 496.105469 L 515.828125 496.585938 L 520.695313 506.179688 "/>
<path style=" stroke:none;fill-rule:nonzero;fill:rgb(100%,100%,100%);fill-opacity:1;" d="M 544.84375 484.550781 L 542.035156 480.484375 L 550.023438 474.972656 L 552.828125 479.039063 Z M 544.84375 484.550781 "/>
<path style=" stroke:none;fill-rule:nonzero;fill:rgb(100%,100%,100%);fill-opacity:1;" d="M 570.914063 459.8125 L 561.882813 455.070313 L 565.683594 464.511719 Z M 584.855469 460.996094 L 580.644531 464.777344 L 575.058594 461.925781 L 567.394531 468.808594 L 569.726563 474.585938 L 565.617188 478.273438 L 555.863281 452.398438 L 559.957031 448.71875 "/>
<path style=" stroke:none;fill-rule:nonzero;fill:rgb(100%,100%,100%);fill-opacity:1;" d="M 588.8125 442.285156 L 585.53125 439.4375 L 592.878906 430.964844 L 600.632813 437.691406 C 600.714844 439.207031 600.382813 441.007813 599.632813 443.097656 C 598.886719 445.183594 597.816406 447.03125 596.425781 448.632813 C 594.660156 450.667969 592.695313 452.074219 590.527344 452.847656 C 588.359375 453.617188 586.152344 453.699219 583.902344 453.082031 C 581.652344 452.464844 579.59375 451.347656 577.726563 449.726563 C 575.699219 447.96875 574.265625 445.980469 573.425781 443.765625 C 572.589844 441.546875 572.457031 439.257813 573.039063 436.886719 C 573.472656 435.078125 574.496094 433.246094 576.109375 431.386719 C 578.207031 428.96875 580.351563 427.519531 582.542969 427.039063 C 584.734375 426.558594 586.894531 426.902344 589.019531 428.0625 L 586.363281 432.601563 C 585.171875 432.046875 583.96875 431.90625 582.757813 432.183594 C 581.550781 432.460938 580.453125 433.164063 579.46875 434.300781 C 577.980469 436.015625 577.339844 437.855469 577.550781 439.8125 C 577.761719 441.769531 578.9375 443.679688 581.078125 445.535156 C 583.390625 447.539063 585.566406 448.53125 587.613281 448.503906 C 589.660156 448.480469 591.40625 447.636719 592.847656 445.972656 C 593.5625 445.148438 594.117188 444.183594 594.511719 443.074219 C 594.90625 441.964844 595.128906 440.914063 595.183594 439.921875 L 592.714844 437.78125 "/>
<path style=" stroke:none;fill-rule:nonzero;fill:rgb(100%,100%,100%);fill-opacity:1;" d="M 606.480469 417.550781 L 596.558594 415.183594 L 602.574219 423.394531 Z M 620.28125 415.257813 L 617.136719 419.960938 L 611.019531 418.574219 L 605.292969 427.136719 L 608.972656 432.160156 L 605.90625 436.746094 L 590.066406 414.078125 L 593.128906 409.503906 "/>
<path style=" stroke:none;fill-rule:nonzero;fill:rgb(100%,100%,100%);fill-opacity:1;" d="M 605.761719 396.835938 L 620.988281 404.546875 L 622.742188 401.082031 C 623.402344 399.785156 623.800781 398.8125 623.945313 398.164063 C 624.140625 397.316406 624.136719 396.527344 623.9375 395.804688 C 623.742188 395.082031 623.203125 394.300781 622.335938 393.464844 C 621.464844 392.632813 620.140625 391.765625 618.363281 390.863281 C 616.585938 389.964844 615.140625 389.429688 614.03125 389.261719 C 612.921875 389.09375 611.953125 389.15625 611.136719 389.449219 C 610.316406 389.746094 609.59375 390.277344 608.96875 391.050781 C 608.492188 391.625 607.777344 392.859375 606.816406 394.75 Z M 599.519531 399.511719 L 603.816406 391.023438 C 604.785156 389.113281 605.671875 387.730469 606.472656 386.871094 C 607.554688 385.726563 608.84375 384.929688 610.34375 384.480469 C 611.847656 384.03125 613.457031 383.925781 615.179688 384.167969 C 616.902344 384.410156 618.84375 385.078125 620.996094 386.167969 C 622.886719 387.125 624.398438 388.1875 625.53125 389.351563 C 626.914063 390.773438 627.851563 392.277344 628.347656 393.871094 C 628.722656 395.070313 628.785156 396.46875 628.53125 398.0625 C 628.335938 399.25 627.804688 400.699219 626.9375 402.414063 L 622.511719 411.148438 "/>
<path style=" stroke:none;fill-rule:nonzero;fill:rgb(100%,100%,100%);fill-opacity:1;" d="M 634.253906 386.640625 L 610.363281 376.972656 L 612.316406 372.148438 L 636.203125 381.816406 Z M 634.253906 386.640625 "/>
<path style=" stroke:none;fill-rule:nonzero;fill:rgb(100%,100%,100%);fill-opacity:1;" d="M 625.960938 366.625 L 627.097656 362.945313 C 627.835938 360.5625 628.195313 359.042969 628.179688 358.386719 C 628.160156 357.730469 627.960938 357.160156 627.570313 356.671875 C 627.183594 356.183594 626.617188 355.824219 625.878906 355.597656 C 625.050781 355.339844 624.3125 355.351563 623.667969 355.636719 C 623.019531 355.921875 622.507813 356.445313 622.121094 357.210938 C 621.941406 357.597656 621.539063 358.796875 620.914063 360.8125 L 619.714844 364.6875 Z M 638.625 375.996094 L 614.007813 368.371094 L 617.25 357.910156 C 618.0625 355.277344 618.878906 353.4375 619.6875 352.382813 C 620.5 351.324219 621.582031 350.613281 622.933594 350.246094 C 624.285156 349.882813 625.691406 349.925781 627.144531 350.375 C 628.992188 350.945313 630.351563 351.964844 631.21875 353.421875 C 632.085938 354.878906 632.339844 356.738281 631.984375 358.996094 C 632.945313 358.113281 633.90625 357.441406 634.875 356.972656 C 635.839844 356.507813 637.464844 355.976563 639.746094 355.382813 L 645.480469 353.863281 L 643.640625 359.808594 L 637.167969 361.742188 C 634.859375 362.425781 633.382813 362.925781 632.738281 363.242188 C 632.097656 363.558594 631.601563 363.949219 631.253906 364.417969 C 630.902344 364.886719 630.554688 365.691406 630.199219 366.835938 L 629.890625 367.84375 L 640.164063 371.023438 "/>
<path style=" stroke:none;fill-rule:nonzero;fill:rgb(100%,100%,100%);fill-opacity:1;" d="M 205.925781 313.679688 L 189.890625 297.640625 L 205.925781 281.605469 L 221.960938 297.640625 Z M 205.925781 313.679688 "/>
<path style=" stroke:none;fill-rule:nonzero;fill:rgb(100%,100%,100%);fill-opacity:1;" d="M 635.964844 313.679688 L 619.929688 297.640625 L 635.964844 281.605469 L 652 297.640625 Z M 635.964844 313.679688 "/>
</g>
</svg>
