<?xml version="1.0" encoding="UTF-8"?>
<svg xmlns="http://www.w3.org/2000/svg" xmlns:xlink="http://www.w3.org/1999/xlink" width="841.889893pt" height="594.29pt" viewBox="0 0 841.889893 594.29" version="1.1">
<defs>
<clipPath id="clip1">
  <path d="M 0 0 L 841.890625 0 L 841.890625 594.289063 L 0 594.289063 Z M 0 0 "/>
</clipPath>
</defs>
<g id="surface1">
<g clip-path="url(#clip1)" clip-rule="nonzero">
<path style=" stroke:none;fill-rule:nonzero;fill:rgb(100%,100%,100%);fill-opacity:1;" d="M 0 594.289063 L 841.890625 594.289063 L 841.890625 0 L 0 0 Z M 0 594.289063 "/>
</g>
<path style=" stroke:none;fill-rule:nonzero;fill:rgb(10.998535%,39.99939%,20.399475%);fill-opacity:1;" d="M 491.203125 186.269531 C 488.546875 186.261719 486.832031 187.417969 485.222656 188.949219 C 479.773438 194.144531 482.003906 200.699219 481.605469 206.828125 L 491.203125 206.828125 Z M 598.230469 206.75 L 598.230469 185.746094 C 591.253906 186.300781 587.355469 195.785156 588.347656 206.75 Z M 501.777344 209.191406 L 515.199219 209.191406 C 514.738281 206.101563 514.121094 203.128906 513.878906 200.125 C 512.96875 188.703125 515.804688 178.71875 525.488281 171.628906 C 529.609375 168.609375 534.320313 167.152344 539.460938 167.160156 C 546.339844 167.175781 553.222656 167.160156 560.101563 167.171875 C 560.832031 167.171875 561.558594 167.238281 562.441406 167.28125 L 562.441406 180.46875 C 556.496094 180.46875 550.707031 180.445313 544.917969 180.488281 C 543.515625 180.496094 542.105469 180.664063 540.710938 180.859375 C 534.453125 181.726563 530.429688 185.394531 529.257813 191.578125 C 528.234375 196.972656 529.171875 202.125 531.71875 206.992188 C 532.265625 208.035156 532.949219 208.59375 534.234375 208.589844 C 547.75 208.542969 561.265625 208.558594 574.777344 208.546875 C 575.011719 208.546875 575.246094 208.433594 575.789063 208.289063 C 575.789063 204.394531 576.011719 200.429688 575.742188 196.5 C 575.203125 188.484375 578.59375 182.378906 584.511719 177.421875 C 591.8125 171.304688 600.347656 167.621094 609.558594 164.703125 L 609.558594 226.988281 L 469.75 226.988281 C 469.675781 226.859375 469.519531 226.71875 469.519531 226.578125 C 469.503906 215.804688 469.082031 205.007813 469.597656 194.253906 C 470.285156 180.050781 479.285156 172 491.632813 166.957031 C 494.761719 165.679688 498.003906 164.707031 501.777344 164.347656 "/>
<path style=" stroke:none;fill-rule:nonzero;fill:rgb(10.998535%,39.99939%,20.399475%);fill-opacity:1;" d="M 295.539063 183.472656 C 287.625 185.699219 283.523438 195.039063 285.488281 206.089844 L 295.539063 206.089844 Z M 306.253906 226.441406 L 306.253906 253.992188 L 274.628906 253.992188 L 274.628906 240.078125 L 296.0625 240.078125 L 296.0625 227.449219 L 274.691406 227.449219 C 274.0625 226.308594 274.300781 225.382813 274.296875 224.5 C 274.277344 214.550781 274.476563 204.59375 274.226563 194.648438 C 274.015625 186.375 277.21875 179.847656 283.289063 174.550781 C 289.847656 168.832031 297.628906 165.503906 306.210938 162.972656 L 306.210938 206.785156 L 358.640625 206.785156 C 358.03125 200.046875 357.402344 193.414063 354.171875 187.359375 C 352.316406 183.886719 348.964844 182.6875 345.390625 181.929688 C 344.667969 181.773438 343.921875 181.730469 343.007813 181.613281 L 343.007813 168.796875 C 347.261719 168.796875 351.554688 168.65625 355.828125 168.855469 C 357.910156 168.949219 359.351563 170.589844 360.652344 172.113281 C 364.980469 177.207031 366.59375 183.355469 367.113281 189.800781 C 367.757813 197.773438 369.609375 205.320313 373.847656 212.1875 C 374.101563 212.59375 374.347656 213.09375 374.351563 213.550781 C 374.390625 217.769531 374.375 221.984375 374.375 226.441406 "/>
<path style=" stroke:none;fill-rule:nonzero;fill:rgb(10.998535%,39.99939%,20.399475%);fill-opacity:1;" d="M 691.226563 209.03125 C 691.226563 202.613281 690.433594 196.570313 688.160156 190.789063 C 685.949219 185.175781 681.550781 183.242188 675.621094 183.808594 L 675.621094 170.121094 C 679.796875 170.121094 683.921875 169.988281 688.035156 170.175781 C 689.972656 170.265625 691.140625 171.980469 692.292969 173.378906 C 697.128906 179.25 699.707031 186.136719 700.589844 193.570313 C 701.476563 201.042969 702.636719 208.351563 706.777344 214.84375 C 706.945313 215.109375 707.089844 215.453125 707.089844 215.761719 C 707.109375 219.800781 707.105469 223.835938 707.105469 228.015625 L 627.753906 228.015625 L 627.753906 110.785156 C 628.929688 110.871094 629.359375 111.753906 629.910156 112.410156 C 633.273438 116.429688 636.101563 120.804688 638.546875 125.441406 C 639.851563 127.910156 640.414063 130.480469 640.40625 133.308594 C 640.34375 157.601563 640.371094 181.890625 640.371094 206.183594 L 640.371094 209.03125 "/>
<path style=" stroke:none;fill-rule:nonzero;fill:rgb(10.998535%,39.99939%,20.399475%);fill-opacity:1;" d="M 138.78125 212.730469 C 139.828125 215.484375 139.449219 218.410156 139.503906 221.25 C 139.601563 226.140625 139.421875 231.035156 141.21875 235.71875 C 142.53125 239.144531 144.464844 242.070313 147.730469 243.910156 C 152.09375 246.363281 156.597656 244.851563 158.660156 240.28125 C 159.671875 238.046875 159.96875 235.675781 159.921875 233.246094 C 159.710938 222.0625 159.542969 210.878906 159.265625 199.699219 C 159.21875 197.949219 159.636719 196.796875 161.171875 195.820313 C 164.277344 193.839844 166.601563 191.011719 169.125 188.066406 L 169.125 207.546875 L 246.507813 207.546875 C 244.617188 194.636719 246.140625 182.765625 257.171875 174 L 257.171875 226.660156 L 170.433594 226.660156 C 169.507813 227.761719 169.859375 228.800781 169.851563 229.75 C 169.804688 235.050781 170.003906 240.355469 168.804688 245.585938 C 167.007813 253.398438 162.988281 257.636719 156.320313 258.605469 C 148.582031 259.726563 142.085938 256.582031 138.34375 249.871094 C 136.039063 245.746094 134.921875 241.238281 134.527344 236.589844 C 134.054688 230.976563 133.953125 225.339844 134.398438 219.714844 C 134.523438 218.140625 134.789063 216.570313 135.464844 215.132813 C 136.074219 213.832031 136.855469 212.660156 138.78125 212.730469 "/>
<path style=" stroke:none;fill-rule:nonzero;fill:rgb(10.998535%,39.99939%,20.399475%);fill-opacity:1;" d="M 419.738281 109.710938 C 420.226563 110.585938 419.980469 111.503906 419.980469 112.378906 C 419.996094 156.570313 419.992188 200.765625 419.992188 244.960938 C 419.992188 255.175781 413.417969 261.539063 403.175781 261.25 C 394.175781 260.996094 388.359375 257.113281 386.074219 249.871094 C 385.746094 248.828125 385.546875 247.785156 385.546875 246.699219 C 385.546875 237.664063 385.546875 228.625 385.550781 219.589844 C 385.550781 219.191406 385.609375 218.800781 385.644531 218.300781 L 397.375 218.300781 C 397.949219 219.15625 397.671875 220.089844 397.671875 220.964844 C 397.699219 228.09375 397.660156 235.222656 397.699219 242.355469 C 397.71875 245.65625 399.324219 247.96875 401.914063 248.664063 C 404.722656 249.425781 406.941406 248.203125 407.585938 245.390625 C 407.859375 244.195313 407.886719 242.925781 407.886719 241.6875 C 407.902344 203.878906 407.933594 166.070313 407.84375 128.257813 C 407.835938 124.75 408.75 121.769531 410.710938 118.976563 C 412.667969 116.183594 414.804688 113.546875 417.285156 111.210938 C 417.964844 110.570313 418.546875 109.648438 419.738281 109.710938 "/>
<path style=" stroke:none;fill-rule:nonzero;fill:rgb(10.998535%,39.99939%,20.399475%);fill-opacity:1;" d="M 447.171875 109.425781 L 447.171875 227.082031 L 434.535156 227.082031 C 434.066406 226.230469 434.296875 225.300781 434.296875 224.417969 C 434.28125 193.007813 434.300781 161.601563 434.253906 130.191406 C 434.25 127.613281 434.808594 125.296875 436.058594 123.078125 C 438.507813 118.726563 441.445313 114.730469 444.816406 111.050781 C 445.40625 110.410156 445.925781 109.601563 447.171875 109.425781 "/>
<path style=" stroke:none;fill-rule:nonzero;fill:rgb(10.998535%,39.99939%,20.399475%);fill-opacity:1;" d="M 707.460938 269.449219 C 707.757813 270.566406 707.722656 271.296875 706.453125 271.253906 C 705.871094 271.234375 705.292969 271.253906 704.710938 271.253906 C 515.222656 271.253906 325.730469 271.253906 136.238281 271.210938 C 135.214844 271.210938 133.171875 272.199219 133.445313 269.449219 "/>
<path style=" stroke:none;fill-rule:nonzero;fill:rgb(10.998535%,39.99939%,20.399475%);fill-opacity:1;" d="M 133.558594 435.230469 C 133.300781 434.160156 133.144531 433.34375 134.480469 433.359375 C 135.144531 433.363281 135.804688 433.355469 136.46875 433.355469 C 325.878906 433.355469 515.285156 433.351563 704.691406 433.390625 C 705.789063 433.390625 707.886719 432.480469 707.539063 435.230469 "/>
<path style=" stroke:none;fill-rule:nonzero;fill:rgb(10.998535%,39.99939%,20.399475%);fill-opacity:1;" d="M 512.648438 377.128906 C 507.59375 393.234375 502.539063 409.339844 497.457031 425.535156 L 491.695313 425.535156 C 486.085938 405.875 480.4375 386.09375 474.699219 365.976563 C 477.328125 366.253906 479.847656 366.410156 482.609375 365.863281 C 486.507813 382.925781 491.234375 399.609375 496.429688 416.273438 C 501.785156 399.609375 507.175781 383.003906 511.675781 366.03125 C 513.488281 366.253906 515.203125 366.257813 517.039063 366.023438 C 521.644531 382.9375 526.769531 399.613281 532.238281 416.285156 C 537.476563 399.660156 542.074219 382.90625 546.597656 366.03125 C 548.410156 366.183594 550.125 366.359375 552.167969 365.996094 C 550.863281 369.976563 549.597656 373.703125 548.414063 377.460938 C 543.742188 392.308594 539.042969 407.144531 534.5 422.03125 C 533.695313 424.660156 532.761719 426.359375 529.675781 425.597656 C 529.132813 425.460938 528.527344 425.578125 527.628906 425.578125 C 522.878906 409.441406 518.101563 393.21875 513.324219 377 C 513.101563 377.042969 512.875 377.085938 512.648438 377.128906 "/>
<path style=" stroke:none;fill-rule:nonzero;fill:rgb(10.998535%,39.99939%,20.399475%);fill-opacity:1;" d="M 419.566406 353.992188 C 324.859375 353.992188 230.15625 353.996094 135.453125 353.9375 C 134.488281 353.9375 132.5 354.996094 132.578125 352.917969 C 132.640625 351.335938 134.4375 352.082031 135.425781 352.078125 C 324.835938 352.042969 514.242188 352.042969 703.652344 352.097656 C 704.628906 352.097656 706.617188 351.078125 706.535156 353.132813 C 706.472656 354.703125 704.667969 353.960938 703.675781 353.960938 C 608.972656 353.996094 514.269531 353.992188 419.566406 353.992188 "/>
<path style=" stroke:none;fill-rule:nonzero;fill:rgb(10.998535%,39.99939%,20.399475%);fill-opacity:1;" d="M 404.566406 425.519531 C 405.136719 415.59375 405.300781 405.839844 405.105469 395.734375 C 394.171875 395.320313 383.300781 395.472656 372.125 395.652344 C 371.984375 405.695313 372.261719 415.507813 372.78125 425.488281 L 364.808594 425.488281 C 365.570313 405.839844 365.652344 386.09375 364.753906 366.003906 C 367.378906 366.109375 369.902344 366.539063 372.761719 365.757813 C 372.40625 374.4375 372.046875 382.757813 372.121094 391.304688 C 383.097656 391.808594 393.917969 391.730469 405.023438 391.355469 C 405.5 382.941406 404.851563 374.558594 404.605469 365.988281 C 407.351563 366.253906 409.796875 366.378906 412.558594 365.871094 C 411.78125 385.871094 411.71875 405.625 412.5625 425.519531 "/>
<path style=" stroke:none;fill-rule:nonzero;fill:rgb(10.998535%,39.99939%,20.399475%);fill-opacity:1;" d="M 702.117188 411.4375 C 702.1875 395.875 702.238281 381.089844 701.570313 366.148438 C 703.367188 366.019531 704.996094 366.566406 707.015625 365.6875 C 705.386719 386.261719 705.640625 406.429688 705.515625 426.859375 C 702.300781 424.277344 700.035156 420.933594 697.453125 417.890625 C 694.773438 414.730469 692.171875 411.503906 689.503906 408.328125 C 686.78125 405.09375 684.03125 401.878906 681.28125 398.667969 C 678.585938 395.519531 675.875 392.382813 673.167969 389.242188 C 670.480469 386.121094 667.785156 383 664.617188 379.328125 C 663.996094 395.148438 664.523438 410.257813 664.972656 425.503906 L 659.265625 425.503906 C 660.71875 405.277344 661.253906 385.125 660.613281 364.90625 C 662.476563 364.4375 662.957031 365.890625 663.679688 366.730469 C 675.722656 380.757813 687.726563 394.816406 699.75 408.863281 C 700.332031 409.546875 700.964844 410.1875 702.117188 411.4375 "/>
<path style=" stroke:none;fill-rule:nonzero;fill:rgb(10.998535%,39.99939%,20.399475%);fill-opacity:1;" d="M 321.210938 395.871094 C 321.054688 405.722656 321.535156 415.578125 321.835938 425.546875 L 313.933594 425.546875 C 314.777344 405.703125 314.824219 385.953125 313.898438 366.023438 C 316.5625 366.15625 319.015625 366.476563 321.53125 365.890625 L 321.53125 393.648438 C 323.402344 392.753906 324.625 391.226563 325.953125 389.859375 C 332.714844 382.894531 339 375.511719 344.996094 367.886719 C 346.144531 366.421875 347.242188 365.722656 349.15625 366.148438 C 350.410156 366.425781 351.777344 366.199219 353.613281 366.199219 C 344.945313 374.996094 336.335938 383.492188 328.515625 393.03125 C 337.1875 403.785156 345.820313 414.496094 354.808594 425.640625 C 351.535156 425.640625 348.839844 425.632813 346.144531 425.644531 C 345.011719 425.648438 344.65625 424.683594 344.128906 424.003906 C 337.429688 415.355469 330.757813 406.683594 324.070313 398.027344 C 323.425781 397.191406 322.703125 396.417969 322.015625 395.613281 C 321.75 395.699219 321.480469 395.785156 321.210938 395.871094 "/>
<path style=" stroke:none;fill-rule:nonzero;fill:rgb(10.998535%,39.99939%,20.399475%);fill-opacity:1;" d="M 385.523438 211.191406 L 397.636719 211.191406 L 397.636719 149.53125 L 385.523438 149.53125 Z M 385.523438 211.191406 "/>
<path style=" stroke:none;fill-rule:nonzero;fill:rgb(10.998535%,39.99939%,20.399475%);fill-opacity:1;" d="M 447.007813 376.859375 C 444.03125 384.429688 441.328125 391.3125 438.535156 398.414063 C 444.394531 398.703125 449.894531 398.832031 455.652344 398.441406 C 452.78125 391.269531 450.019531 384.378906 447.007813 376.859375 M 473.46875 425.546875 L 465.199219 425.546875 C 463.800781 421.625 462.378906 417.59375 460.914063 413.574219 C 459.808594 410.539063 458.585938 407.546875 457.539063 404.492188 C 457.101563 403.21875 456.511719 402.636719 455.082031 402.609375 C 449.613281 402.503906 444.152344 402.464844 438.683594 402.605469 C 437.257813 402.644531 436.671875 403.234375 436.214844 404.484375 C 433.945313 410.710938 431.597656 416.914063 429.894531 423.320313 C 429.394531 425.195313 428.589844 425.917969 426.675781 425.605469 C 425.636719 425.4375 424.546875 425.578125 423.5 425.578125 C 423.1875 424.6875 423.722656 424.070313 424 423.414063 C 431.953125 404.652344 439.609375 385.765625 447.207031 366.859375 C 447.546875 366.015625 447.527344 364.695313 448.914063 364.742188 C 450.273438 364.785156 450.191406 366.089844 450.523438 366.949219 C 457.933594 386.105469 465.050781 405.375 473.113281 424.277344 C 473.265625 424.640625 473.332031 425.042969 473.46875 425.546875 "/>
<path style=" stroke:none;fill-rule:nonzero;fill:rgb(10.998535%,39.99939%,20.399475%);fill-opacity:1;" d="M 585.636719 398.4375 C 582.730469 391.195313 579.96875 384.296875 576.988281 376.875 C 574.0625 384.308594 571.332031 391.246094 568.507813 398.425781 C 574.34375 398.699219 579.773438 398.828125 585.636719 398.4375 M 603.496094 425.582031 L 595.28125 425.582031 C 592.785156 418.808594 590.210938 412.097656 587.863281 405.304688 C 587.148438 403.226563 586.144531 402.582031 583.96875 402.574219 C 579.082031 402.554688 574.199219 402.546875 569.3125 402.582031 C 567.382813 402.597656 566.578125 403.28125 565.964844 405.023438 C 563.570313 411.804688 561.121094 418.570313 559.144531 425.554688 L 553.597656 425.554688 C 553.035156 424.757813 553.679688 424.140625 553.941406 423.519531 C 561.890625 404.761719 569.53125 385.878906 577.148438 366.984375 C 577.488281 366.136719 577.4375 364.820313 578.75 364.746094 C 580.304688 364.660156 580.1875 366.144531 580.535156 367.050781 C 587.933594 386.203125 595.09375 405.453125 603.121094 424.363281 C 603.246094 424.65625 603.3125 424.976563 603.496094 425.582031 "/>
<path style=" stroke:none;fill-rule:nonzero;fill:rgb(10.998535%,39.99939%,20.399475%);fill-opacity:1;" d="M 166.691406 398.445313 C 163.804688 391.261719 161.027344 384.335938 158.03125 376.882813 C 155.09375 384.355469 152.378906 391.261719 149.566406 398.410156 C 155.359375 398.714844 160.855469 398.820313 166.691406 398.445313 M 184.484375 425.609375 C 182.023438 425.609375 179.648438 425.527344 177.285156 425.640625 C 175.9375 425.703125 175.898438 424.800781 175.59375 423.953125 C 173.269531 417.484375 170.894531 411.035156 168.617188 404.546875 C 168.132813 403.171875 167.457031 402.625 165.945313 402.601563 C 160.644531 402.519531 155.34375 402.472656 150.039063 402.597656 C 148.460938 402.636719 147.722656 403.136719 147.183594 404.632813 C 144.960938 410.789063 142.75 416.949219 140.878906 423.226563 C 140.648438 424.003906 140.390625 424.773438 140.136719 425.578125 L 134.597656 425.578125 C 134.140625 424.734375 134.742188 424.109375 135.011719 423.476563 C 143.03125 404.558594 150.753906 385.519531 158.390625 366.445313 C 158.679688 365.726563 158.734375 364.726563 159.886719 364.722656 C 161.023438 364.722656 161.101563 365.660156 161.390625 366.410156 C 168.859375 385.90625 176.128906 405.480469 184.320313 424.691406 C 184.410156 424.902344 184.40625 425.15625 184.484375 425.609375 "/>
<path style=" stroke:none;fill-rule:nonzero;fill:rgb(10.998535%,39.99939%,20.399475%);fill-opacity:1;" d="M 276.695313 376.839844 C 273.707031 384.46875 271.007813 391.363281 268.222656 398.46875 C 274.214844 398.636719 279.652344 398.871094 285.34375 398.429688 C 282.492188 391.308594 279.734375 384.429688 276.695313 376.839844 M 258.769531 425.585938 L 253.191406 425.585938 C 252.882813 424.574219 253.535156 423.828125 253.867188 423.042969 C 261.773438 404.351563 269.390625 385.542969 276.964844 366.714844 C 277.28125 365.929688 277.273438 364.765625 278.519531 364.734375 C 279.9375 364.695313 279.871094 366 280.195313 366.84375 C 287.628906 386.171875 294.839844 405.582031 302.964844 424.636719 C 303.054688 424.84375 303.027344 425.105469 303.070313 425.488281 L 294.78125 425.488281 C 292.617188 418.511719 289.835938 411.695313 287.367188 404.761719 C 286.796875 403.160156 286.039063 402.621094 284.347656 402.59375 C 279.128906 402.519531 273.914063 402.492188 268.691406 402.597656 C 267.105469 402.628906 266.328125 403.144531 265.8125 404.628906 C 263.734375 410.65625 261.472656 416.621094 259.699219 422.753906 C 259.425781 423.699219 259.089844 424.628906 258.769531 425.585938 "/>
<path style=" stroke:none;fill-rule:nonzero;fill:rgb(10.998535%,39.99939%,20.399475%);fill-opacity:1;" d="M 198.015625 310.640625 C 197.945313 319.234375 204.585938 326.152344 213.003906 326.265625 C 221.296875 326.375 228.273438 319.382813 228.324219 310.910156 C 228.375 302.371094 221.609375 295.332031 213.289063 295.269531 C 204.9375 295.203125 198.078125 302.105469 198.015625 310.640625 M 234.449219 310.800781 C 234.472656 322.65625 225.054688 332.078125 213.136719 332.125 C 201.28125 332.171875 191.824219 322.738281 191.8125 310.851563 C 191.796875 298.90625 201.152344 289.378906 212.9375 289.335938 C 224.820313 289.289063 234.429688 298.878906 234.449219 310.800781 "/>
<path style=" stroke:none;fill-rule:nonzero;fill:rgb(10.998535%,39.99939%,20.399475%);fill-opacity:1;" d="M 625.804688 326.199219 L 625.804688 289.523438 C 627.777344 289.195313 629.617188 289.238281 631.585938 289.496094 L 631.585938 331.949219 L 596.929688 331.949219 L 596.929688 289.449219 C 598.859375 289.257813 600.71875 289.214844 602.789063 289.507813 L 602.789063 326.199219 "/>
<path style=" stroke:none;fill-rule:nonzero;fill:rgb(10.998535%,39.99939%,20.399475%);fill-opacity:1;" d="M 312.789063 289.402344 L 318.421875 289.402344 L 318.421875 326.214844 L 341.523438 326.214844 L 341.523438 289.441406 L 347.351563 289.441406 L 347.351563 332.015625 L 312.789063 332.015625 "/>
<path style=" stroke:none;fill-rule:nonzero;fill:rgb(10.998535%,39.99939%,20.399475%);fill-opacity:1;" d="M 626.910156 395.722656 C 631.195313 388.230469 634.953125 380.957031 638.441406 373.546875 C 638.796875 372.796875 639.273438 372.070313 639.449219 371.277344 C 640.46875 366.679688 643.273438 365.089844 647.972656 366.433594 C 646.945313 368.171875 645.878906 370 644.78125 371.8125 C 639.597656 380.398438 634.597656 389.089844 630.054688 398.035156 C 629.320313 399.480469 628.929688 400.910156 628.976563 402.542969 C 629.171875 409.421875 629.296875 416.296875 629.433594 423.175781 C 629.449219 423.902344 629.710938 424.652344 629.253906 425.507813 L 622.109375 425.507813 C 622.109375 422.210938 622.105469 418.9375 622.113281 415.664063 C 622.117188 415.085938 622.125 414.5 622.191406 413.925781 C 623.167969 405.390625 621.164063 397.765625 616.445313 390.453125 C 611.738281 383.160156 607.953125 375.273438 603.78125 367.636719 C 603.554688 367.222656 603.132813 366.851563 603.355469 366.070313 C 605.890625 366.164063 608.492188 366.40625 611.082031 366 C 612.230469 365.820313 612.285156 366.949219 612.628906 367.628906 C 617.050781 376.347656 621.449219 385.082031 625.859375 393.808594 C 626.121094 394.320313 626.414063 394.816406 626.910156 395.722656 "/>
<path style=" stroke:none;fill-rule:nonzero;fill:rgb(10.998535%,39.99939%,20.399475%);fill-opacity:1;" d="M 456.824219 289.492188 C 458.710938 289.195313 460.507813 289.289063 462.609375 289.449219 L 462.609375 311.667969 C 462.839844 311.71875 463.070313 311.769531 463.300781 311.820313 C 467.007813 304.796875 471.847656 298.230469 471.949219 289.539063 C 473.699219 289.140625 475.539063 289.265625 477.523438 289.484375 L 477.523438 331.886719 C 475.742188 332.386719 473.9375 331.980469 471.914063 332.167969 L 471.914063 307.585938 C 471.6875 307.492188 471.464844 307.398438 471.238281 307.304688 C 468.972656 311.132813 466.136719 314.632813 464.398438 318.75 C 462.640625 322.902344 462.851563 327.480469 462.527344 332.011719 L 456.824219 332.011719 "/>
<path style=" stroke:none;fill-rule:nonzero;fill:rgb(10.998535%,39.99939%,20.399475%);fill-opacity:1;" d="M 566.855469 332.121094 C 564.867188 332.121094 563.234375 332.074219 561.605469 332.136719 C 560.433594 332.179688 560.089844 331.300781 559.59375 330.5625 C 556.308594 325.691406 553.03125 320.816406 549.554688 315.644531 C 547.742188 318.300781 546.074219 320.738281 544.414063 323.179688 C 543.34375 324.757813 542.058594 326.234375 541.265625 327.941406 C 539.484375 331.773438 536.675781 333.0625 532.5625 331.851563 C 532.203125 331.246094 532.882813 330.789063 533.21875 330.289063 C 537.136719 324.441406 541.039063 318.578125 545.054688 312.796875 C 545.996094 311.441406 546.105469 310.511719 545.117188 309.09375 C 541.1875 303.453125 537.40625 297.710938 533.578125 291.996094 C 533.085938 291.257813 532.644531 290.484375 532.152344 289.675781 C 537.121094 288.640625 537.746094 288.886719 540.402344 292.785156 C 542.472656 295.824219 544.542969 298.863281 547.175781 301.742188 L 547.175781 289.429688 L 551.710938 289.429688 L 551.710938 301.746094 C 551.890625 301.796875 552.070313 301.847656 552.253906 301.898438 C 554.242188 299 556.542969 296.261719 558.144531 293.164063 C 560.097656 289.386719 562.921875 288.640625 566.691406 289.566406 C 566.808594 290.5625 566.003906 291.167969 565.523438 291.882813 C 561.671875 297.675781 557.820313 303.472656 553.871094 309.203125 C 552.988281 310.484375 552.949219 311.375 553.863281 312.6875 C 557.839844 318.398438 561.6875 324.191406 565.574219 329.964844 C 565.972656 330.554688 566.304688 331.191406 566.855469 332.121094 "/>
<path style=" stroke:none;fill-rule:nonzero;fill:rgb(10.998535%,39.99939%,20.399475%);fill-opacity:1;" d="M 459.234375 463.425781 C 464.210938 463.777344 469.070313 463.929688 473.605469 461.617188 C 476.226563 460.28125 477.929688 458.234375 477.703125 455.125 C 477.488281 452.066406 475.445313 450.460938 472.761719 449.582031 C 468.414063 448.152344 463.984375 448.660156 459.234375 448.953125 Z M 469.621094 465.464844 C 476.285156 471.535156 482.566406 477.253906 489.246094 483.339844 C 486.308594 483.339844 483.800781 483.339844 481.289063 483.34375 C 480.21875 483.34375 479.730469 482.476563 479.113281 481.851563 C 473.964844 476.6875 468.730469 471.621094 463.121094 466.945313 C 461.9375 465.957031 460.753906 465.507813 459.214844 465.96875 L 459.214844 483.15625 L 452.289063 483.15625 C 452.960938 471.105469 453.089844 458.992188 452.199219 446.484375 C 460.453125 447.351563 468.554688 445.566406 476.570313 447.257813 C 482.074219 448.421875 484.542969 451.234375 484.300781 455.65625 C 484.117188 458.976563 481.890625 460.820313 479.320313 462.296875 C 477.894531 463.113281 476.320313 463.695313 474.753906 464.214844 C 473.285156 464.699219 471.742188 464.960938 469.621094 465.464844 "/>
<path style=" stroke:none;fill-rule:nonzero;fill:rgb(10.998535%,39.99939%,20.399475%);fill-opacity:1;" d="M 250.265625 446.726563 L 255.261719 446.726563 C 253.714844 459.144531 254.171875 471.515625 253.894531 484.132813 C 241.5 474.359375 229.125 464.78125 216.234375 454.867188 C 215.632813 464.628906 216.117188 473.882813 216.542969 483.238281 L 211.261719 483.238281 C 212.695313 470.824219 212.90625 458.382813 212.496094 445.925781 C 212.71875 445.753906 212.9375 445.578125 213.160156 445.40625 C 225.503906 455.019531 237.847656 464.632813 250.730469 474.664063 C 250.9375 464.988281 250.785156 455.960938 250.265625 446.726563 "/>
<path style=" stroke:none;fill-rule:nonzero;fill:rgb(10.998535%,39.99939%,20.399475%);fill-opacity:1;" d="M 240.90625 331.832031 C 242.335938 328.445313 243.734375 325.105469 245.144531 321.773438 C 249.433594 311.636719 253.773438 301.519531 257.972656 291.347656 C 258.675781 289.640625 259.632813 289.082031 261.316406 289.3125 C 263.109375 289.558594 265.089844 288.542969 266.214844 291.292969 C 271.566406 304.394531 277.144531 317.402344 282.640625 330.445313 C 282.824219 330.890625 282.953125 331.359375 283.097656 331.792969 C 282.84375 331.9375 282.714844 332.070313 282.585938 332.074219 C 277.050781 332.335938 277.042969 332.335938 274.90625 327.28125 C 271.007813 318.054688 267.121094 308.824219 263.214844 299.605469 C 262.898438 298.855469 262.734375 298.003906 261.917969 297.347656 C 258.535156 305.296875 255.171875 313.203125 251.8125 321.109375 C 250.582031 324.003906 249.222656 326.851563 248.183594 329.8125 C 247.511719 331.722656 246.476563 332.453125 244.527344 332.140625 C 243.414063 331.960938 242.246094 332.339844 240.90625 331.832031 "/>
<path style=" stroke:none;fill-rule:nonzero;fill:rgb(10.998535%,39.99939%,20.399475%);fill-opacity:1;" d="M 202.859375 421.640625 C 210.421875 421.824219 217.503906 421.570313 224.65625 420.664063 C 224.582031 422.382813 224.21875 423.847656 224.839844 425.492188 L 195.265625 425.492188 C 196.105469 405.660156 196.085938 385.914063 195.253906 365.921875 C 197.941406 366.285156 200.390625 366.34375 203.203125 365.941406 C 202.347656 384.570313 202.515625 402.988281 202.859375 421.640625 "/>
<path style=" stroke:none;fill-rule:nonzero;fill:rgb(10.998535%,39.99939%,20.399475%);fill-opacity:1;" d="M 400.546875 127.515625 L 400.546875 138.785156 L 378.78125 138.785156 C 378.78125 136.125 378.792969 133.5 378.777344 130.875 C 378.765625 129.421875 379.84375 129.140625 380.898438 128.878906 C 382.945313 128.367188 383.03125 127.269531 381.773438 125.878906 C 379.957031 123.875 379.109375 121.582031 379.148438 118.863281 C 379.203125 115.042969 380.96875 112.363281 384.386719 110.855469 C 389.59375 108.558594 395.03125 109 400.585938 109.515625 L 400.585938 119.203125 C 398.773438 118.703125 397.246094 117.828125 395.5 117.664063 C 392.46875 117.382813 390.257813 118.699219 389.988281 121.015625 C 389.65625 123.902344 392.203125 127.34375 394.894531 127.496094 C 396.695313 127.597656 398.503906 127.515625 400.546875 127.515625 "/>
<path style=" stroke:none;fill-rule:nonzero;fill:rgb(10.998535%,39.99939%,20.399475%);fill-opacity:1;" d="M 364.285156 319.46875 C 369.644531 321.660156 374.554688 323.878906 379.613281 325.652344 C 382.265625 326.582031 383.421875 327.902344 382.902344 330.652344 C 382.78125 331.277344 382.824219 331.933594 382.773438 332.941406 C 373.050781 329.027344 363.578125 325.214844 353.628906 321.210938 C 358.203125 317.324219 362.5 313.671875 367.027344 309.820313 C 362.765625 306.09375 358.621094 302.46875 354.144531 298.550781 C 363.785156 294.875 373.085938 291.324219 382.527344 287.71875 C 383.191406 289.421875 382.792969 291.0625 382.867188 292.652344 C 382.921875 293.796875 381.863281 293.835938 381.144531 294.117188 C 376 296.117188 370.84375 298.085938 365.246094 300.234375 C 368.785156 303.347656 372.039063 306.210938 375.527344 309.277344 C 371.8125 312.648438 368.222656 315.898438 364.285156 319.46875 "/>
<path style=" stroke:none;fill-rule:nonzero;fill:rgb(10.998535%,39.99939%,20.399475%);fill-opacity:1;" d="M 173.152344 446.691406 L 178.222656 446.691406 C 177.980469 450.871094 177.71875 454.976563 177.5 459.082031 C 177.335938 462.222656 177.21875 465.367188 177.085938 468.511719 C 176.785156 475.503906 173.390625 480.304688 166.746094 482.433594 C 159.035156 484.90625 151.222656 484.71875 143.542969 482.238281 C 138.242188 480.527344 135.308594 476.550781 135.09375 471.109375 C 134.777344 463.03125 135.71875 454.941406 134.789063 446.730469 L 141.890625 446.730469 C 141.691406 450.40625 141.421875 454.097656 141.3125 457.792969 C 141.207031 461.433594 141.164063 465.082031 141.273438 468.722656 C 141.484375 475.929688 144.984375 479.890625 152.066406 481.082031 C 155.4375 481.648438 158.824219 481.707031 162.203125 481.105469 C 168.925781 479.902344 172.824219 475.777344 173.1875 468.945313 C 173.578125 461.597656 173.402344 454.234375 173.152344 446.691406 "/>
<path style=" stroke:none;fill-rule:nonzero;fill:rgb(10.998535%,39.99939%,20.399475%);fill-opacity:1;" d="M 661.570313 331.863281 C 667.746094 325.25 673.664063 318.90625 679.664063 312.476563 C 675.613281 308.449219 671.644531 304.496094 667.296875 300.167969 C 677.164063 296.378906 686.503906 292.785156 695.835938 289.203125 C 696.019531 289.628906 696.128906 289.769531 696.140625 289.921875 C 696.515625 294.996094 696.511719 294.988281 691.816406 296.796875 C 687.585938 298.421875 683.363281 300.066406 678.550781 301.929688 C 682.242188 305.265625 685.597656 308.292969 689.066406 311.425781 C 683.625 317.265625 678.734375 322.519531 673.832031 327.765625 C 669.160156 332.769531 669.15625 332.765625 661.570313 331.863281 "/>
<path style=" stroke:none;fill-rule:nonzero;fill:rgb(10.998535%,39.99939%,20.399475%);fill-opacity:1;" d="M 488.898438 138.597656 C 485.492188 144.800781 482.425781 146.695313 477.992188 145.34375 C 474.386719 144.242188 472.03125 140.796875 472.273438 136.972656 C 472.507813 133.269531 475.253906 130.179688 478.855469 129.5625 C 483.460938 128.777344 486.414063 130.84375 488.9375 136.949219 C 489.578125 134.300781 490.554688 132.214844 492.578125 130.839844 C 494.699219 129.394531 497.039063 129.105469 499.472656 129.703125 C 503.019531 130.574219 505.660156 134.273438 505.4375 137.90625 C 505.199219 141.710938 502.378906 144.933594 498.75 145.539063 C 494.214844 146.300781 491.183594 144.167969 488.898438 138.597656 "/>
<path style=" stroke:none;fill-rule:nonzero;fill:rgb(10.998535%,39.99939%,20.399475%);fill-opacity:1;" d="M 322.523438 446.601563 C 324.839844 446.601563 327.039063 446.636719 329.234375 446.585938 C 330.558594 446.554688 330.5625 447.679688 330.917969 448.417969 C 335.414063 457.84375 340.496094 466.957031 345.632813 476.046875 C 345.914063 476.546875 346.246094 477.015625 346.8125 477.902344 C 349.457031 473.117188 352.03125 468.613281 354.453125 464.03125 C 357.089844 459.050781 359.660156 454.039063 362.097656 448.964844 C 362.898438 447.289063 363.621094 446.140625 365.734375 446.6875 C 366.585938 446.910156 367.539063 446.722656 368.46875 446.722656 C 368.683594 447.351563 368.1875 447.765625 367.902344 448.230469 C 361.21875 459.199219 354.734375 470.277344 348.660156 481.597656 C 347.421875 483.910156 343.242188 484.1875 342.027344 482.023438 C 335.582031 470.535156 329.171875 459.03125 322.757813 447.527344 C 322.644531 447.328125 322.640625 447.078125 322.523438 446.601563 "/>
<path style=" stroke:none;fill-rule:nonzero;fill:rgb(10.998535%,39.99939%,20.399475%);fill-opacity:1;" d="M 396.054688 483.257813 C 396.855469 470.980469 396.882813 458.910156 396.03125 446.550781 C 404.800781 446.742188 413.378906 446.804688 422.125 446.53125 L 422.125 449.78125 C 415.867188 449.738281 409.632813 448.964844 403.242188 449.238281 C 402.726563 453.726563 402.667969 458.070313 403.085938 462.699219 C 408.859375 462.980469 414.605469 462.449219 420.460938 462.40625 L 420.460938 465.429688 L 403.09375 465.429688 C 402.4375 470.382813 402.890625 475.457031 403.007813 480.769531 C 409.535156 481.082031 415.945313 480.65625 422.492188 480.269531 L 422.492188 483.257813 "/>
<path style=" stroke:none;fill-rule:nonzero;fill:rgb(10.998535%,39.99939%,20.399475%);fill-opacity:1;" d="M 541.410156 448.136719 C 540.546875 450.023438 539.875 451.496094 539.140625 453.101563 C 538.679688 452.8125 538.347656 452.703125 538.164063 452.472656 C 534.589844 447.953125 529.691406 446.675781 524.511719 448.988281 C 522.277344 449.984375 520.613281 451.507813 520.402344 454.140625 C 520.195313 456.726563 521.636719 458.292969 523.703125 459.507813 C 526.238281 460.996094 529.054688 461.703125 531.832031 462.511719 C 534.0625 463.160156 536.28125 463.828125 538.355469 464.882813 C 544.203125 467.867188 545.246094 474.046875 540.746094 478.875 C 538.0625 481.75 534.597656 483.039063 530.855469 483.613281 C 524.863281 484.527344 518.980469 484.367188 513.359375 481.195313 C 513.832031 479.53125 514.296875 477.90625 514.746094 476.335938 C 515.574219 476.140625 515.882813 476.652344 516.273438 477.089844 C 520.246094 481.53125 527.21875 483.089844 532.652344 480.734375 C 534.78125 479.808594 536.445313 478.382813 537.214844 476.097656 C 538.050781 473.628906 537.421875 471.527344 535.34375 469.9375 C 532.917969 468.082031 530 467.355469 527.15625 466.492188 C 524.222656 465.601563 521.25 464.828125 518.644531 463.121094 C 513.050781 459.453125 512.859375 452.207031 518.59375 448.816406 C 525.890625 444.5 533.535156 444.886719 541.410156 448.136719 "/>
<path style=" stroke:none;fill-rule:nonzero;fill:rgb(10.998535%,39.99939%,20.399475%);fill-opacity:1;" d="M 144.675781 307.902344 L 144.675781 289.601563 C 146.648438 289.117188 148.429688 289.3125 150.484375 289.457031 L 150.484375 307.757813 L 160.460938 307.757813 C 160.886719 309.730469 160.691406 311.515625 160.601563 313.613281 L 150.484375 313.613281 L 150.484375 332.023438 L 144.753906 332.023438 L 144.753906 313.695313 L 134.800781 313.695313 C 134.308594 311.691406 134.523438 309.914063 134.613281 307.902344 "/>
<path style=" stroke:none;fill-rule:nonzero;fill:rgb(10.998535%,39.99939%,20.399475%);fill-opacity:1;" d="M 709.3125 446.972656 C 703.96875 452.949219 698.761719 458.824219 693.859375 464.964844 C 692.300781 466.917969 691.714844 468.863281 691.835938 471.332031 C 692.035156 475.265625 691.890625 479.214844 691.890625 483.257813 L 685.660156 483.257813 C 685.660156 479.007813 685.59375 474.824219 685.695313 470.648438 C 685.734375 469.152344 685.429688 467.988281 684.449219 466.8125 C 679 460.273438 673.632813 453.667969 667.832031 446.59375 C 670.746094 446.59375 673.167969 446.5625 675.589844 446.609375 C 676.578125 446.628906 676.824219 447.621094 677.300781 448.25 C 681.441406 453.714844 685.558594 459.203125 689.855469 464.914063 C 693.992188 460.21875 697.847656 455.660156 700.882813 450.582031 C 702.910156 447.1875 705.238281 445.808594 709.3125 446.972656 "/>
<path style=" stroke:none;fill-rule:nonzero;fill:rgb(10.998535%,39.99939%,20.399475%);fill-opacity:1;" d="M 404.269531 313.535156 L 404.269531 331.863281 C 402.316406 332.347656 400.550781 332.042969 398.582031 332.089844 L 398.582031 313.761719 L 388.460938 313.761719 L 388.460938 307.859375 L 398.511719 307.859375 L 398.511719 289.449219 L 404.164063 289.449219 L 404.164063 307.695313 L 414.035156 307.695313 C 414.585938 309.695313 414.355469 311.480469 414.238281 313.535156 "/>
<path style=" stroke:none;fill-rule:nonzero;fill:rgb(10.998535%,39.99939%,20.399475%);fill-opacity:1;" d="M 607.65625 450.007813 L 607.65625 446.546875 C 620.167969 446.761719 632.640625 446.816406 645.210938 446.519531 L 645.210938 449.953125 C 640.117188 449.613281 635.109375 449.425781 629.746094 449.511719 C 629.421875 460.78125 629.292969 471.902344 630.105469 483.1875 L 622.785156 483.1875 C 623.46875 472.042969 623.253906 460.914063 623.117188 449.566406 C 617.894531 449.363281 612.890625 449.609375 607.65625 450.007813 "/>
<path style=" stroke:none;fill-rule:nonzero;fill:rgb(10.998535%,39.99939%,20.399475%);fill-opacity:1;" d="M 705.941406 332.050781 L 700.574219 332.050781 L 700.574219 289.5 C 702.339844 289.175781 704.046875 289.304688 705.941406 289.433594 "/>
<path style=" stroke:none;fill-rule:nonzero;fill:rgb(10.998535%,39.99939%,20.399475%);fill-opacity:1;" d="M 287.746094 446.707031 L 295.058594 446.707031 C 294.292969 458.890625 294.289063 470.992188 295.054688 483.222656 L 287.757813 483.222656 C 288.523438 471.011719 288.527344 458.910156 287.746094 446.707031 "/>
<path style=" stroke:none;fill-rule:nonzero;fill:rgb(10.998535%,39.99939%,20.399475%);fill-opacity:1;" d="M 572.652344 446.679688 L 579.976563 446.679688 C 579.292969 458.816406 579.191406 470.949219 580.019531 483.214844 L 572.6875 483.214844 C 573.496094 471.035156 573.539063 458.976563 572.652344 446.679688 "/>
<path style=" stroke:none;fill-rule:nonzero;fill:rgb(10.998535%,39.99939%,20.399475%);fill-opacity:1;" d="M 577.195313 322.152344 C 577.183594 325.097656 579.429688 327.503906 582.21875 327.53125 C 585.171875 327.558594 587.488281 325.148438 587.445313 322.082031 C 587.402344 319.15625 585.09375 316.804688 582.273438 316.820313 C 579.457031 316.835938 577.203125 319.199219 577.195313 322.152344 M 592.203125 322.144531 C 592.242188 327.792969 588.050781 332.140625 582.480469 332.21875 C 576.839844 332.300781 572.519531 328.125 572.425781 322.492188 C 572.332031 316.710938 576.601563 312.257813 582.25 312.25 C 587.824219 312.246094 592.160156 316.554688 592.203125 322.144531 "/>
<path style=" stroke:none;fill-rule:nonzero;fill:rgb(10.998535%,39.99939%,20.399475%);fill-opacity:1;" d="M 293.027344 322.066406 C 292.988281 325.054688 295.148438 327.453125 297.957031 327.527344 C 300.878906 327.609375 303.285156 325.183594 303.277344 322.160156 C 303.273438 319.253906 300.976563 316.855469 298.167969 316.820313 C 295.3125 316.785156 293.066406 319.078125 293.027344 322.066406 M 297.890625 332.21875 C 292.332031 332.144531 288.179688 327.800781 288.226563 322.105469 C 288.273438 316.503906 292.628906 312.195313 298.1875 312.25 C 303.746094 312.304688 308.039063 316.6875 308.023438 322.28125 C 308.003906 327.992188 303.613281 332.296875 297.890625 332.21875 "/>
<path style=" stroke:none;fill-rule:nonzero;fill:rgb(10.998535%,39.99939%,20.399475%);fill-opacity:1;" d="M 444.386719 331.96875 L 444.386719 289.597656 C 446.140625 289.054688 447.917969 289.382813 449.871094 289.378906 L 449.871094 331.929688 C 448.058594 332.25 446.289063 332.183594 444.386719 331.96875 "/>
<path style=" stroke:none;fill-rule:nonzero;fill:rgb(10.998535%,39.99939%,20.399475%);fill-opacity:1;" d="M 182.28125 322.09375 C 182.238281 319.15625 179.949219 316.824219 177.105469 316.820313 C 174.339844 316.816406 171.957031 319.265625 171.921875 322.140625 C 171.886719 325.09375 174.398438 327.625 177.277344 327.53125 C 180.117188 327.441406 182.324219 325.039063 182.28125 322.09375 M 177.023438 332.222656 C 171.4375 332.179688 167.207031 327.855469 167.230469 322.21875 C 167.253906 316.585938 171.550781 312.246094 177.101563 312.253906 C 182.769531 312.257813 187.09375 316.691406 187.011719 322.414063 C 186.933594 328.023438 182.613281 332.261719 177.023438 332.222656 "/>
<path style=" stroke:none;fill-rule:nonzero;fill:rgb(10.998535%,39.99939%,20.399475%);fill-opacity:1;" d="M 642.863281 322.050781 C 642.800781 324.980469 645.011719 327.417969 647.835938 327.53125 C 650.664063 327.644531 653.050781 325.363281 653.179688 322.425781 C 653.3125 319.371094 651.050781 316.882813 648.085938 316.820313 C 645.308594 316.761719 642.925781 319.144531 642.863281 322.050781 M 657.871094 322.390625 C 657.832031 328.046875 653.597656 332.238281 647.941406 332.21875 C 642.394531 332.199219 638.050781 327.800781 638.09375 322.242188 C 638.132813 316.621094 642.445313 312.261719 647.96875 312.25 C 653.667969 312.242188 657.914063 316.589844 657.871094 322.390625 "/>
<path style=" stroke:none;fill-rule:nonzero;fill:rgb(10.998535%,39.99939%,20.399475%);fill-opacity:1;" d="M 512.691406 322.308594 C 512.746094 325.238281 515.027344 327.554688 517.835938 327.53125 C 520.742188 327.511719 523.070313 325.035156 523 322.042969 C 522.929688 319.144531 520.632813 316.832031 517.816406 316.820313 C 514.890625 316.808594 512.632813 319.230469 512.691406 322.308594 M 508.003906 322.339844 C 507.976563 316.589844 512.058594 312.324219 517.660156 312.257813 C 523.265625 312.191406 527.570313 316.410156 527.65625 322.050781 C 527.742188 327.890625 523.570313 332.203125 517.828125 332.21875 C 512.164063 332.234375 508.035156 328.078125 508.003906 322.339844 "/>
<path style=" stroke:none;fill-rule:nonzero;fill:rgb(10.998535%,39.99939%,20.399475%);fill-opacity:1;" d="M 259.84375 240.9375 C 259.828125 245.480469 256.160156 249.097656 251.605469 249.050781 C 247.03125 249 243.492188 245.347656 243.574219 240.757813 C 243.648438 236.304688 247.230469 232.753906 251.660156 232.742188 C 256.1875 232.734375 259.859375 236.410156 259.84375 240.9375 "/>
<path style=" stroke:none;fill-rule:nonzero;fill:rgb(10.998535%,39.99939%,20.399475%);fill-opacity:1;" d="M 679.316406 242.78125 C 679.375 238.234375 683.132813 234.566406 687.609375 234.6875 C 692.011719 234.808594 695.625 238.472656 695.640625 242.839844 C 695.65625 247.359375 691.980469 251.019531 687.433594 251.011719 C 682.882813 251.007813 679.261719 247.335938 679.316406 242.78125 "/>
<path style=" stroke:none;fill-rule:nonzero;fill:rgb(10.998535%,39.99939%,20.399475%);fill-opacity:1;" d="M 233.484375 249.050781 C 228.933594 249.03125 225.367188 245.386719 225.414063 240.804688 C 225.464844 236.335938 229 232.789063 233.445313 232.742188 C 237.960938 232.699219 241.675781 236.367188 241.699219 240.890625 C 241.722656 245.394531 238.027344 249.0625 233.484375 249.050781 "/>
<path style=" stroke:none;fill-rule:nonzero;fill:rgb(10.998535%,39.99939%,20.399475%);fill-opacity:1;" d="M 356.875 143.820313 C 356.898438 148.402344 353.3125 152.011719 348.742188 152.015625 C 344.132813 152.019531 340.582031 148.472656 340.585938 143.863281 C 340.585938 139.347656 344.316406 135.65625 348.820313 135.722656 C 353.234375 135.785156 356.851563 139.425781 356.875 143.820313 "/>
<path style=" stroke:none;fill-rule:nonzero;fill:rgb(10.998535%,39.99939%,20.399475%);fill-opacity:1;" d="M 150.902344 182.546875 C 146.414063 182.554688 142.835938 179.027344 142.789063 174.542969 C 142.738281 169.9375 146.335938 166.300781 150.9375 166.304688 C 155.464844 166.308594 158.976563 169.78125 159.039063 174.320313 C 159.105469 178.945313 155.550781 182.539063 150.902344 182.546875 "/>
<path style=" stroke:none;fill-rule:nonzero;fill:rgb(10.998535%,39.99939%,20.399475%);fill-opacity:1;" d="M 218.453125 310.574219 C 218.476563 313.746094 216.21875 316.121094 213.101563 316.207031 C 209.914063 316.296875 207.453125 313.84375 207.464844 310.605469 C 207.476563 307.421875 209.761719 305.152344 212.9375 305.164063 C 216.15625 305.175781 218.433594 307.40625 218.453125 310.574219 "/>
</g>
</svg>
