<?xml version="1.0" encoding="UTF-8"?>
<svg xmlns="http://www.w3.org/2000/svg" xmlns:xlink="http://www.w3.org/1999/xlink" width="841.889893pt" height="595.28pt" viewBox="0 0 841.889893 595.28" version="1.1">
<g id="surface1">
<path style=" stroke:none;fill-rule:nonzero;fill:rgb(100%,100%,100%);fill-opacity:1;" d="M 0 595.28125 L 841.890625 595.28125 L 841.890625 0.00390625 L 0 0.00390625 Z M 0 595.28125 "/>
<path style=" stroke:none;fill-rule:nonzero;fill:rgb(5.099487%,50.19989%,65.098572%);fill-opacity:1;" d="M 558.324219 68.261719 C 564.691406 69.292969 571.109375 70.09375 577.421875 71.398438 C 602.265625 76.53125 623.265625 87.863281 637.460938 109.671875 C 645.925781 122.675781 649.867188 137.214844 650.839844 152.550781 C 652.097656 172.390625 651.175781 192.265625 651.421875 212.121094 C 651.441406 213.886719 651.59375 215.53125 648.941406 215.503906 C 639.535156 215.402344 630.125 215.433594 620.71875 215.390625 C 620.355469 215.390625 620 215.140625 619.359375 214.902344 C 619.359375 208.441406 619.355469 201.921875 619.359375 195.402344 C 619.367188 181.425781 619.117188 167.488281 616.003906 153.742188 C 609.90625 126.84375 592.050781 112.316406 566.269531 105.878906 C 550.59375 101.964844 534.644531 100.441406 518.558594 100.367188 C 490.066406 100.238281 461.574219 100.332031 433.082031 100.339844 C 432.320313 100.339844 431.554688 100.4375 430.839844 100.484375 C 429.824219 102.074219 430.246094 103.675781 430.246094 105.1875 C 430.21875 140.476563 430.164063 175.761719 430.304688 211.050781 C 430.320313 214.753906 429.214844 215.652344 425.683594 215.558594 C 416.695313 215.320313 407.699219 215.480469 399.070313 215.480469 C 397.914063 214.398438 398.164063 213.429688 398.164063 212.558594 C 398.152344 165.378906 398.15625 118.195313 398.164063 71.015625 C 398.164063 70.363281 398.265625 69.714844 398.316406 69.066406 C 448.472656 69.058594 498.632813 69.058594 548.785156 69.007813 C 550.394531 69.003906 552.199219 69.710938 553.617188 68.261719 "/>
<path style=" stroke:none;fill-rule:nonzero;fill:rgb(95.298767%,58.399963%,15.699768%);fill-opacity:1;" d="M 678.335938 68.261719 C 684.039063 70.515625 689.449219 73.144531 693.394531 78.148438 C 700.769531 87.511719 700.871094 100.433594 693.511719 110.039063 C 686.117188 119.679688 672.867188 123.140625 661.882813 118.300781 C 651.109375 113.554688 644.753906 101.691406 646.660156 90.136719 C 648.640625 78.148438 656.3125 71.632813 667.355469 68.261719 "/>
<path style=" stroke:none;fill-rule:nonzero;fill:rgb(23.098755%,23.098755%,23.498535%);fill-opacity:1;" d="M 46.117188 385.941406 L 56.628906 385.941406 L 56.628906 355.773438 C 58.976563 355.09375 60.988281 355.355469 63.347656 355.460938 L 63.347656 385.863281 L 73.867188 385.863281 C 74.554688 389.027344 74.132813 391.960938 74.199219 395.160156 L 63.476563 395.160156 L 63.476563 425.789063 L 56.90625 425.789063 L 56.90625 395.355469 L 46.117188 395.355469 "/>
<path style=" stroke:none;fill-rule:nonzero;fill:rgb(24.299622%,62.399292%,74.099731%);fill-opacity:1;" d="M 553.617188 68.261719 C 552.199219 69.710938 550.394531 69.003906 548.789063 69.007813 C 498.628906 69.058594 448.472656 69.058594 398.316406 69.066406 C 398.3125 68.800781 398.3125 68.53125 398.308594 68.261719 "/>
<path style=" stroke:none;fill-rule:nonzero;fill:rgb(5.099487%,50.19989%,65.098572%);fill-opacity:1;" d="M 361.40625 183.082031 L 361.40625 68.265625 L 392.628906 68.265625 L 392.628906 214.949219 C 391.242188 215.859375 389.765625 215.457031 388.371094 215.460938 C 340.140625 215.480469 291.910156 215.730469 243.683594 215.375 C 218.257813 215.191406 194.210938 209.488281 173.601563 193.132813 C 171.953125 191.824219 170.4375 190.339844 168.742188 189.101563 C 164.820313 186.230469 163.980469 182.433594 165.265625 177.632813 C 169.152344 176.828125 173.191406 177.605469 177.996094 177.117188 C 160.445313 160.308594 159.949219 142.988281 175.925781 125.117188 C 177.316406 126.5625 177.078125 128.515625 177.453125 130.199219 C 182.726563 154.082031 198.164063 168.117188 220.132813 175.789063 C 236.117188 181.371094 252.738281 183.097656 269.484375 183.226563 C 299.285156 183.457031 329.085938 183.285156 358.886719 183.273438 C 359.535156 183.273438 360.183594 183.179688 361.40625 183.082031 "/>
<path style=" stroke:none;fill-rule:nonzero;fill:rgb(5.099487%,50.19989%,65.098572%);fill-opacity:1;" d="M 508.398438 215.007813 L 508.398438 133.492188 C 509.714844 132.296875 511.355469 132.875 512.847656 132.863281 C 520.949219 132.796875 529.046875 132.890625 537.144531 132.78125 C 539.648438 132.75 540.882813 133.175781 540.871094 136.164063 C 540.761719 161.507813 540.8125 186.855469 540.835938 212.199219 C 540.835938 214.027344 540.851563 215.53125 538.269531 215.503906 C 528.863281 215.402344 519.460938 215.453125 510.050781 215.417969 C 509.5625 215.417969 509.066406 215.179688 508.398438 215.007813 "/>
<path style=" stroke:none;fill-rule:nonzero;fill:rgb(95.298767%,58.399963%,15.699768%);fill-opacity:1;" d="M 142.832031 68.1875 L 173.855469 68.1875 C 174.730469 69.4375 174.445313 70.671875 174.464844 71.839844 C 174.699219 86.824219 173.8125 101.835938 175.300781 116.796875 C 175.472656 118.539063 174.472656 119.496094 173.535156 120.570313 C 169.796875 124.859375 166.589844 129.519531 163.886719 134.546875 C 158.15625 145.214844 158.484375 155.851563 164.078125 166.433594 C 165.109375 168.382813 166.320313 170.234375 167.664063 172.488281 C 165.179688 172.632813 163.042969 172.757813 161.035156 172.875 C 159.816406 174.554688 160.867188 176.464844 159.785156 178.585938 C 155.339844 172.816406 152.257813 166.804688 149.757813 160.46875 C 145.089844 148.640625 142.996094 136.261719 142.878906 123.585938 C 142.703125 105.289063 142.832031 86.988281 142.832031 68.1875 "/>
<path style=" stroke:none;fill-rule:nonzero;fill:rgb(23.098755%,23.098755%,23.498535%);fill-opacity:1;" d="M 681.417969 293.515625 C 676.679688 293.609375 673.722656 295.5 672.632813 299.070313 C 671.554688 302.589844 672.179688 303.429688 675.90625 303.460938 C 677.6875 303.472656 679.464844 303.460938 681.417969 303.460938 Z M 559.773438 302.738281 C 559.773438 300.621094 559.574219 298.796875 559.816406 297.03125 C 560.238281 293.925781 558.433594 293.195313 555.976563 293.039063 C 551.140625 292.734375 548.089844 296.839844 548.902344 302.738281 Z M 612.566406 290.703125 C 614.597656 292.542969 616.507813 294.273438 618.519531 296.09375 C 616.695313 297.695313 615.050781 299.140625 613.34375 300.632813 C 609.363281 298.515625 606.535156 291.710938 600.992188 297.980469 C 599.628906 294.953125 599.730469 292.660156 603.199219 291.675781 C 604.054688 291.429688 604.511719 291.046875 604.636719 290.117188 C 605.199219 286.011719 608.140625 284.296875 611.695313 283.199219 C 615.78125 281.933594 619.429688 280.039063 621.765625 275.285156 C 624.09375 280.289063 628.296875 281.847656 632.503906 283.535156 C 635.410156 284.703125 638.351563 286.125 638.59375 289.925781 C 638.660156 290.988281 639.390625 291 640.121094 291.300781 C 643.25 292.585938 643.160156 295.003906 642.550781 297.929688 C 637.597656 294.171875 633.992188 295.527344 627.800781 303.238281 L 664.707031 303.238281 C 664.808594 302.109375 664.925781 301.105469 664.984375 300.09375 C 665.359375 293.320313 668.800781 288.980469 675.339844 287.078125 C 679.5625 285.851563 683.988281 285.304688 688.25 282.886719 L 688.25 311.191406 C 687.011719 311.925781 685.550781 311.519531 684.175781 311.523438 C 666.417969 311.554688 648.660156 311.488281 630.898438 311.59375 C 627.488281 311.613281 624.34375 311.558594 622.074219 307.582031 C 619.644531 312.121094 615.777344 311.570313 612.003906 311.5625 C 589.675781 311.527344 567.351563 311.546875 545.023438 311.546875 L 540.402344 311.546875 C 540.574219 306.035156 539.871094 300.855469 541.101563 295.722656 C 542.8125 288.582031 550.371094 284.582031 559.414063 286.164063 C 560.363281 283.089844 559.882813 280.441406 556.941406 278.234375 C 560.417969 275.269531 563.949219 272.960938 568.0625 270.398438 L 568.0625 303.035156 C 575.304688 303.972656 582.199219 303.246094 589.066406 303.417969 C 596.898438 303.609375 604.738281 303.378906 612.570313 303.507813 C 614.84375 303.542969 616.511719 302.859375 618.152344 301.339844 C 621.964844 297.808594 625.925781 294.4375 629.859375 290.972656 C 628.546875 286.664063 623.679688 288.261719 621.613281 285.09375 C 619.53125 288.765625 614.539063 286.640625 612.566406 290.703125 "/>
<path style=" stroke:none;fill-rule:nonzero;fill:rgb(23.098755%,23.098755%,23.498535%);fill-opacity:1;" d="M 239.730469 307.996094 C 239.785156 304.53125 237.394531 301.894531 234.484375 302.054688 C 231.484375 302.214844 229.757813 303.84375 229.671875 306.976563 C 229.574219 310.320313 231.609375 312.578125 234.769531 312.4375 C 237.796875 312.300781 239.492188 310.652344 239.730469 307.996094 M 287.453125 293.664063 C 290.773438 289.890625 293.949219 286.285156 297.929688 281.761719 L 297.929688 303.226563 L 306.621094 303.226563 C 305.726563 298.625 309.140625 293.335938 303.746094 289.636719 C 307.171875 286.359375 310.597656 283.082031 314.019531 279.808594 L 314.019531 311.363281 L 247.414063 311.363281 C 242.246094 320.300781 235.898438 322.601563 228.234375 318.628906 C 226.453125 317.707031 224.6875 316.609375 223.972656 314.753906 C 222.882813 311.933594 221.132813 311.511719 218.265625 311.589844 C 208.355469 311.851563 198.433594 311.691406 188.6875 311.691406 C 187.523438 310.113281 188.003906 308.628906 187.996094 307.257813 C 187.949219 295.882813 187.914063 284.511719 188.003906 273.140625 C 188.03125 270.015625 188.152344 267.054688 184.871094 266.160156 C 188.320313 262.640625 191.785156 259.097656 195.574219 255.226563 L 195.574219 303.449219 C 204.308594 303.449219 212.636719 303.4375 220.964844 303.460938 C 222.117188 303.464844 222.394531 302.683594 222.898438 301.890625 C 229.105469 292.132813 240.253906 292.125 246.171875 301.867188 C 246.757813 302.832031 247.222656 303.660156 248.523438 303.402344 C 248.90625 303.324219 249.304688 303.316406 249.695313 303.316406 C 258.304688 303.3125 266.910156 303.3125 275.636719 303.3125 C 277.0625 300.183594 275.363281 298.496094 272.816406 297.46875 C 276.328125 293.675781 279.648438 290.089844 283.765625 285.644531 L 283.765625 302.828125 C 285.914063 303.871094 287.738281 303.324219 290.035156 303.433594 C 289.8125 299.742188 292.074219 295.664063 287.453125 293.664063 "/>
<path style=" stroke:none;fill-rule:nonzero;fill:rgb(23.098755%,23.098755%,23.498535%);fill-opacity:1;" d="M 117.757813 303.214844 C 118.554688 297.90625 118.554688 297.90625 115.539063 295.234375 C 119.015625 291.882813 122.503906 288.519531 126.007813 285.140625 L 126.007813 303.257813 L 157.90625 303.257813 C 154.742188 300.171875 151.761719 297.355469 150.851563 293.050781 C 149.335938 285.871094 152.941406 279.9375 160.09375 278.324219 C 161.488281 278.011719 162.921875 277.828125 164.34375 277.683594 C 170.242188 277.078125 171.179688 276.296875 172.4375 270.800781 C 174.90625 273.359375 175.484375 276.289063 173.636719 279.796875 C 172.578125 281.800781 171.726563 283.332031 173.050781 285.664063 C 173.796875 286.972656 173.734375 289.003906 172.195313 290.527344 C 170.121094 289.707031 168.503906 287.800781 166 287.796875 C 163.289063 287.796875 161.121094 288.675781 159.714844 291.019531 C 158.273438 293.429688 159.152344 295.648438 160.796875 297.476563 C 164.019531 301.042969 167.746094 303.714844 172.929688 303.480469 C 175.664063 303.359375 178.40625 303.460938 181.242188 303.460938 C 182.109375 306.019531 181.542969 308.472656 181.675781 311.308594 L 87.152344 311.308594 C 84.941406 318.511719 83.851563 326.449219 75.75 329.039063 C 70.179688 330.816406 64.363281 330.046875 59.09375 327.03125 C 51.035156 322.410156 48.289063 313.203125 52.859375 306.148438 C 53.992188 314.71875 58.417969 320.027344 65.1875 320.929688 C 73.234375 322.003906 78.046875 318.082031 79.074219 309.886719 C 80.199219 300.890625 79.515625 291.871094 79.71875 282.863281 C 79.761719 280.90625 79.535156 278.921875 79.765625 276.988281 C 80.148438 273.730469 79.496094 271.339844 75.714844 271.09375 C 79.34375 267.226563 82.835938 263.503906 86.933594 259.132813 L 86.933594 303.214844 "/>
<path style=" stroke:none;fill-rule:nonzero;fill:rgb(23.098755%,23.098755%,23.498535%);fill-opacity:1;" d="M 470.351563 490.402344 C 470.355469 472.832031 456.394531 459.167969 438.527344 459.253906 C 422.03125 459.335938 408.359375 473.054688 408.117188 489.773438 C 407.875 506.386719 422.074219 520.445313 439.132813 520.480469 C 456.050781 520.515625 470.347656 506.738281 470.351563 490.402344 M 439.386719 526.730469 C 418.398438 526.742188 401.382813 510.207031 401.570313 489.976563 C 401.761719 469.296875 418.382813 453.019531 439.308594 453.007813 C 460.441406 453 476.75 469.300781 476.753906 490.433594 C 476.753906 510.382813 459.941406 526.714844 439.386719 526.730469 "/>
<path style=" stroke:none;fill-rule:nonzero;fill:rgb(23.098755%,23.098755%,23.498535%);fill-opacity:1;" d="M 448.558594 303.15625 C 452.117188 303.132813 455.324219 303.507813 458.511719 302.929688 L 458.511719 292.421875 C 453.164063 292.976563 452.898438 293.3125 453.746094 298.28125 C 450.90625 298.488281 448.363281 299.027344 448.558594 303.15625 M 505.558594 303.285156 L 505.558594 293.273438 C 499.183594 293.339844 494.648438 298.589844 497.058594 303.285156 Z M 488.554688 303.464844 C 488.796875 301.941406 489.054688 300.800781 489.15625 299.648438 C 489.730469 293.140625 492.9375 289.050781 499.109375 287.148438 C 503.4375 285.816406 508.007813 285.304688 512.421875 282.882813 L 512.421875 311.566406 L 466.261719 311.566406 C 466.550781 319.636719 463.289063 324.828125 455.71875 327.285156 C 450.347656 329.027344 445.617188 328.570313 440.261719 324.792969 C 445.167969 324.824219 449.21875 324.832031 452.816406 322.34375 C 456.523438 319.777344 458.617188 316.535156 458.734375 311.664063 L 441.09375 311.664063 C 439.636719 299.105469 440.519531 293.296875 448.121094 292.707031 C 449.3125 285.039063 449.320313 285.082031 457.101563 283.796875 C 460.027344 283.3125 463.015625 282.9375 466.144531 280.691406 C 466.144531 287.34375 466.3125 293.285156 466.078125 299.210938 C 465.953125 302.371094 466.804688 303.648438 470.148438 303.527344 C 476.136719 303.308594 482.140625 303.464844 488.554688 303.464844 "/>
<path style=" stroke:none;fill-rule:nonzero;fill:rgb(23.098755%,23.098755%,23.498535%);fill-opacity:1;" d="M 791.046875 303.460938 L 791.046875 311.382813 L 781.199219 311.382813 C 780.703125 315.371094 783.378906 317.65625 784.785156 320.445313 C 780.234375 320.734375 777.195313 317.945313 775.222656 311.4375 L 698.367188 311.4375 C 698.367188 298.464844 698.332031 285.808594 698.390625 273.15625 C 698.402344 270.09375 698.710938 267.027344 695.703125 266.238281 C 698.773438 262.691406 701.964844 259.007813 705.789063 254.585938 L 705.789063 303.152344 L 773.6875 303.152344 C 773.621094 297.066406 769.25 293.140625 761.792969 292.742188 C 759.058594 292.59375 756.300781 292.773438 753.5625 292.667969 C 748.117188 292.460938 747 291.253906 746.996094 285.824219 C 746.996094 284.140625 746.996094 282.453125 746.996094 279.691406 C 752.125 284.621094 757.949219 284.601563 763.757813 284.984375 C 772.511719 285.558594 776.925781 291.222656 778.789063 299.097656 C 779.644531 302.707031 781.273438 304.054688 784.894531 303.511719 C 786.789063 303.226563 788.765625 303.460938 791.046875 303.460938 "/>
<path style=" stroke:none;fill-rule:nonzero;fill:rgb(95.298767%,58.399963%,15.699768%);fill-opacity:1;" d="M 688.320313 132.636719 L 688.320313 215.058594 L 668.339844 215.058594 L 668.339844 204.652344 L 683.628906 204.652344 C 683.382813 202.570313 682.03125 201.816406 681.070313 200.890625 C 664.890625 185.21875 662.980469 165.984375 675.78125 147.558594 C 679.351563 142.421875 683.265625 137.597656 688.320313 132.636719 "/>
<path style=" stroke:none;fill-rule:nonzero;fill:rgb(23.098755%,23.098755%,23.498535%);fill-opacity:1;" d="M 611.378906 390.617188 C 611.300781 383.019531 609.566406 375.933594 604.601563 369.980469 C 599.164063 363.460938 590.828125 363.636719 585.554688 370.265625 C 576.976563 381.039063 576.851563 399.847656 585.285156 410.714844 C 590.835938 417.859375 599.570313 417.84375 605.117188 410.667969 C 609.683594 404.761719 611.304688 397.929688 611.378906 390.617188 M 618 387.117188 C 618.542969 399.539063 616.515625 410.457031 608.429688 419.464844 C 600.671875 428.101563 590.171875 428.214844 582.183594 419.816406 C 576.695313 414.046875 573.882813 406.90625 572.839844 399.195313 C 571.332031 388.039063 572.101563 377.078125 578.011719 367.09375 C 582.019531 360.324219 587.128906 355.015625 595.902344 355.34375 C 602.554688 355.589844 607.019531 359.414063 610.570313 364.460938 C 615.488281 371.445313 617.886719 379.3125 618 387.117188 "/>
<path style=" stroke:none;fill-rule:nonzero;fill:rgb(23.098755%,23.098755%,23.498535%);fill-opacity:1;" d="M 147.035156 389.359375 C 146.945313 382.839844 145.269531 375.335938 139.597656 369.300781 C 134.074219 363.429688 125.976563 363.980469 121.105469 370.390625 C 112.777344 381.347656 112.5625 399.085938 120.625 410.199219 C 126.214844 417.90625 135.15625 418.105469 140.910156 410.542969 C 145.320313 404.75 147.011719 398.039063 147.035156 389.359375 M 153.761719 393.183594 C 153.660156 401.757813 151.339844 409.644531 146.453125 416.671875 C 137.683594 429.28125 123.511719 429.0625 115.023438 416.265625 C 104.101563 399.796875 105.796875 373.484375 118.601563 360.6875 C 125.929688 353.363281 135.929688 353.324219 143.15625 360.824219 C 151.875 369.867188 154.105469 381.140625 153.761719 393.183594 "/>
<path style=" stroke:none;fill-rule:nonzero;fill:rgb(23.098755%,23.098755%,23.498535%);fill-opacity:1;" d="M 411.242188 322.355469 C 413.3125 324.5625 415.007813 326.488281 417.046875 327.824219 C 419.160156 325.683594 421.136719 323.6875 422.5625 322.242188 C 420.953125 320.316406 419.230469 318.261719 417.59375 316.304688 C 415.453125 318.34375 413.484375 320.222656 411.242188 322.355469 M 432.09375 320.492188 C 427.03125 326.226563 422.28125 331.605469 417.222656 337.335938 C 412.113281 331.71875 407.503906 326.648438 402.304688 320.933594 C 405.265625 318.46875 408.945313 315.398438 412.726563 312.25 C 411.617188 310.902344 411.308594 310.300781 410.816406 309.960938 C 404.714844 305.753906 403.273438 299.972656 403.644531 292.761719 C 404.222656 281.554688 403.796875 270.292969 403.796875 259.058594 L 403.796875 254.734375 C 407.453125 258.617188 410.625 261.984375 414.09375 265.667969 C 410.488281 268.390625 411.230469 272.820313 411.238281 277.078125 C 411.246094 282.566406 411.695313 288.101563 411.117188 293.53125 C 410.488281 299.425781 413.09375 303.09375 417.46875 305.984375 C 422.363281 303.304688 424.089844 299.34375 423.65625 293.738281 C 423.136719 286.980469 423.476563 280.15625 423.5625 273.363281 C 423.597656 270.417969 423.542969 267.59375 420.964844 265.644531 C 424.5625 262.210938 427.972656 258.957031 431.375 255.710938 L 431.375 273.914063 C 431.375 281.757813 431.125 289.609375 431.480469 297.433594 C 431.664063 301.507813 430.476563 304.441406 427.347656 306.867188 C 425.71875 308.128906 424.28125 309.644531 422.582031 311.210938 C 426.019531 314.566406 429.371094 317.839844 432.09375 320.492188 "/>
<path style=" stroke:none;fill-rule:nonzero;fill:rgb(5.099487%,50.19989%,65.098572%);fill-opacity:1;" d="M 688.121094 120.839844 C 688.992188 124.277344 688.128906 126.515625 685.769531 128.816406 C 678.359375 136.046875 671.742188 143.988281 667.171875 153.371094 C 659.839844 168.429688 661.976563 182.722656 670.992188 196.378906 C 671.6875 197.425781 672.828125 198.234375 672.976563 199.910156 L 663.664063 199.910156 L 663.664063 214.808594 C 661.183594 215.898438 659.023438 215.40625 656.621094 215.359375 L 656.621094 120.832031 C 666.992188 125.765625 677.433594 126.105469 688.121094 120.839844 "/>
<path style=" stroke:none;fill-rule:nonzero;fill:rgb(23.098755%,23.098755%,23.498535%);fill-opacity:1;" d="M 244.441406 416.4375 L 268.839844 416.4375 L 268.839844 355.738281 C 271.1875 355.085938 273.234375 355.398438 275.542969 355.429688 L 275.542969 425.675781 L 238.144531 425.675781 L 238.144531 355.710938 C 240.050781 354.894531 242.113281 355.613281 244.441406 355.21875 "/>
<path style=" stroke:none;fill-rule:nonzero;fill:rgb(23.098755%,23.098755%,23.498535%);fill-opacity:1;" d="M 368.480469 472.695313 C 365.558594 491.070313 362.820313 508.292969 360.054688 525.707031 L 353.378906 525.707031 C 357.4375 501.085938 361.464844 476.664063 365.664063 451.199219 C 369.515625 459.773438 373.003906 467.535156 376.84375 476.078125 C 380.539063 467.703125 383.984375 459.898438 387.828125 451.195313 C 392.027344 476.628906 396.050781 501.007813 400.089844 525.464844 C 397.898438 526.355469 395.960938 525.695313 393.640625 526.085938 C 390.796875 508.664063 387.992188 491.480469 384.992188 473.074219 C 382.046875 479.863281 379.566406 485.574219 376.847656 491.84375 C 374.0625 485.464844 371.507813 479.625 368.480469 472.695313 "/>
<path style=" stroke:none;fill-rule:nonzero;fill:rgb(23.098755%,23.098755%,23.498535%);fill-opacity:1;" d="M 703.210938 473.027344 C 700.324219 479.753906 697.878906 485.464844 695.132813 491.859375 C 692.363281 485.542969 689.8125 479.730469 687.261719 473.917969 C 687.019531 473.929688 686.773438 473.941406 686.527344 473.953125 C 683.78125 491.210938 681.035156 508.472656 678.28125 525.804688 L 671.617188 525.804688 C 675.691406 501.09375 679.730469 476.625 683.925781 451.183594 C 687.824219 459.875 691.316406 467.667969 695.097656 476.101563 C 698.742188 467.824219 702.105469 460.175781 705.472656 452.523438 C 705.738281 452.53125 706.007813 452.539063 706.273438 452.546875 C 710.296875 476.820313 714.316406 501.09375 718.335938 525.359375 C 712.257813 526.800781 712.011719 526.636719 711.117188 521.179688 C 708.550781 505.488281 705.96875 489.800781 703.210938 473.027344 "/>
<path style=" stroke:none;fill-rule:nonzero;fill:rgb(23.098755%,23.098755%,23.498535%);fill-opacity:1;" d="M 740.648438 471.171875 C 740.480469 467.246094 741.929688 463.15625 738.359375 460.183594 C 736.523438 458.652344 734.074219 458.777344 732.191406 460.277344 C 728.5 463.222656 729.914063 467.277344 729.78125 471.171875 Z M 729.636719 477.851563 L 729.636719 525.65625 C 727.523438 526.140625 725.621094 525.980469 723.71875 525.777344 C 722.714844 524.398438 723.199219 522.917969 723.195313 521.554688 C 723.148438 507.957031 723.171875 494.363281 723.160156 480.765625 C 723.15625 479.308594 723.527344 478.039063 721.253906 477.296875 C 719.277344 476.648438 719.492188 473.796875 718.859375 471.855469 C 720.039063 470.828125 721.445313 471.640625 722.886719 471.082031 C 723.132813 468.273438 723.257813 465.300781 723.679688 462.371094 C 724.5 456.675781 729.214844 452.816406 735.210938 452.734375 C 741.117188 452.65625 745.792969 456.546875 746.757813 462.347656 C 746.925781 463.382813 747.171875 464.421875 747.171875 465.457031 C 747.199219 485.441406 747.191406 505.429688 747.191406 525.433594 C 745.160156 526.3125 743.21875 525.875 740.921875 525.824219 L 740.921875 477.851563 "/>
<path style=" stroke:none;fill-rule:nonzero;fill:rgb(23.098755%,23.098755%,23.498535%);fill-opacity:1;" d="M 204.925781 460.53125 L 204.925781 504.984375 C 217.230469 504.113281 226.605469 493.738281 225.953125 481.972656 C 225.289063 469.90625 215.820313 460.226563 204.925781 460.53125 M 204.667969 511.226563 L 204.667969 525.445313 C 202.636719 526.445313 200.699219 525.644531 198.546875 526.066406 C 198.546875 501.902344 198.546875 478.066406 198.542969 454.230469 C 212.121094 451.8125 225.753906 459.644531 230.722656 472.730469 C 236.171875 487.070313 230.519531 499.554688 213.535156 510.039063 C 219.734375 515.152344 225.820313 520.171875 232.5625 525.734375 C 227.109375 525.960938 222.621094 526.8125 218.574219 522.832031 C 214.507813 518.832031 209.8125 515.464844 204.667969 511.226563 "/>
<path style=" stroke:none;fill-rule:nonzero;fill:rgb(23.098755%,23.098755%,23.498535%);fill-opacity:1;" d="M 789.808594 385.75 C 786.691406 392.089844 783.300781 398.15625 781.75 404.980469 C 780.210938 411.75 780.226563 418.644531 780.152344 425.730469 L 773.597656 425.730469 L 773.597656 355.570313 L 780.023438 355.570313 L 780.023438 391.085938 C 785.050781 379.742188 789.976563 368.457031 789.800781 355.851563 C 790.773438 354.980469 791.859375 355.445313 792.855469 355.363281 C 793.746094 355.289063 794.652344 355.347656 795.773438 355.347656 L 795.773438 425.707031 L 789.808594 425.707031 "/>
<path style=" stroke:none;fill-rule:nonzero;fill:rgb(23.098755%,23.098755%,23.498535%);fill-opacity:1;" d="M 111.75 525.808594 L 106.117188 525.808594 C 105.21875 524.378906 105.636719 522.914063 105.632813 521.53125 C 105.601563 505.988281 105.550781 490.441406 105.683594 474.898438 C 105.703125 472.460938 104.941406 471.109375 102.863281 470.007813 C 99.207031 468.066406 95.667969 465.894531 91.660156 463.574219 L 91.660156 525.261719 C 89.433594 526.386719 87.410156 525.878906 85.175781 525.800781 L 85.175781 452.328125 C 91.972656 456.296875 98.484375 460.097656 105.515625 464.199219 L 105.515625 454.34375 C 107.671875 453.433594 109.585938 453.847656 111.75 453.949219 "/>
<path style=" stroke:none;fill-rule:nonzero;fill:rgb(23.098755%,23.098755%,23.498535%);fill-opacity:1;" d="M 465.597656 355.5 L 471.785156 355.5 L 471.785156 425.707031 L 465.609375 425.707031 L 465.609375 385.285156 C 458.171875 398.289063 455.132813 411.390625 456.035156 425.46875 C 453.785156 426.285156 451.761719 425.863281 449.53125 425.886719 L 449.53125 355.570313 L 455.734375 355.570313 L 455.734375 391.238281 C 460.941406 379.855469 465.691406 368.398438 465.597656 355.5 "/>
<path style=" stroke:none;fill-rule:nonzero;fill:rgb(23.098755%,23.098755%,23.498535%);fill-opacity:1;" d="M 379.855469 355.507813 L 413.824219 355.507813 L 413.824219 364.882813 L 386.714844 364.882813 L 386.714844 416.175781 L 413.804688 416.175781 L 413.804688 425.664063 L 379.855469 425.664063 "/>
<path style=" stroke:none;fill-rule:nonzero;fill:rgb(23.098755%,23.098755%,23.498535%);fill-opacity:1;" d="M 625.308594 425.726563 L 625.308594 355.527344 L 659.269531 355.527344 L 659.269531 364.996094 L 632.152344 364.996094 L 632.152344 416.003906 L 659.117188 416.003906 C 659.859375 419.371094 659.386719 422.445313 659.492188 425.726563 "/>
<path style=" stroke:none;fill-rule:nonzero;fill:rgb(23.098755%,23.098755%,23.498535%);fill-opacity:1;" d="M 547.546875 471.0625 L 558.152344 471.0625 C 558.695313 462.246094 557.410156 459.335938 553.097656 459.300781 C 548.476563 459.261719 546.921875 462.480469 547.546875 471.0625 M 564.722656 525.785156 L 558.40625 525.785156 L 558.40625 477.832031 L 547.476563 477.832031 L 547.476563 525.417969 C 545.3125 526.378906 543.382813 525.730469 541.183594 525.984375 L 541.183594 478.171875 C 537.054688 477.753906 537.351563 474.363281 536.304688 471.535156 C 537.871094 471.386719 539.242188 471.257813 541.042969 471.089844 C 541.042969 468.871094 540.96875 466.808594 541.054688 464.75 C 541.359375 457.34375 546.164063 452.609375 553.148438 452.769531 C 560.042969 452.929688 564.566406 457.480469 564.628906 464.9375 C 564.777344 482.964844 564.703125 500.988281 564.722656 519.015625 C 564.722656 521.21875 564.722656 523.417969 564.722656 525.785156 "/>
<path style=" stroke:none;fill-rule:nonzero;fill:rgb(23.098755%,23.098755%,23.498535%);fill-opacity:1;" d="M 50.320313 454.253906 C 52.34375 453.480469 54.261719 453.78125 56.167969 453.980469 C 57.121094 455.347656 56.671875 456.824219 56.671875 458.210938 C 56.707031 475.71875 56.6875 493.226563 56.710938 510.734375 C 56.714844 512.292969 56.832031 513.863281 57.054688 515.40625 C 57.515625 518.589844 59.566406 520.234375 62.644531 520.410156 C 65.855469 520.59375 68.308594 519.175781 69.121094 515.941406 C 69.589844 514.074219 69.617188 512.070313 69.621094 510.125 C 69.660156 492.746094 69.644531 475.371094 69.644531 457.992188 C 69.644531 456.714844 69.644531 455.4375 69.644531 454.125 C 71.863281 453.667969 73.753906 453.605469 75.925781 454.171875 C 75.925781 462.671875 75.925781 471.140625 75.925781 479.609375 C 75.925781 490.976563 75.945313 502.339844 75.917969 513.707031 C 75.902344 520.882813 71.519531 526.054688 65.003906 526.703125 C 57.40625 527.457031 52.058594 523.535156 50.601563 516.097656 C 50.375 514.953125 50.1875 513.777344 50.1875 512.613281 C 50.160156 493.800781 50.167969 474.988281 50.175781 456.171875 C 50.175781 455.542969 50.269531 454.910156 50.320313 454.253906 "/>
<path style=" stroke:none;fill-rule:nonzero;fill:rgb(23.098755%,23.098755%,23.498535%);fill-opacity:1;" d="M 483.03125 454.125 C 485.132813 453.617188 487.035156 453.691406 489.304688 454.078125 L 489.304688 458.324219 C 489.304688 475.835938 489.300781 493.34375 489.304688 510.855469 C 489.304688 511.898438 489.253906 512.949219 489.324219 513.988281 C 489.601563 518.039063 492.023438 520.460938 495.722656 520.449219 C 499.441406 520.433594 501.902344 518.035156 501.9375 513.894531 C 502.035156 502.265625 501.976563 490.636719 501.980469 479.007813 C 501.980469 470.789063 501.980469 462.570313 501.980469 454.371094 C 504.058594 453.402344 505.996094 453.859375 507.820313 453.929688 C 508.78125 454.691406 508.496094 455.671875 508.496094 456.546875 C 508.511719 475.363281 508.546875 494.179688 508.488281 512.996094 C 508.460938 522.011719 503.183594 527.167969 494.683594 526.722656 C 488.578125 526.402344 483.246094 522.128906 483.15625 516.015625 C 482.835938 495.40625 483.03125 474.789063 483.03125 454.125 "/>
<path style=" stroke:none;fill-rule:nonzero;fill:rgb(23.098755%,23.098755%,23.498535%);fill-opacity:1;" d="M 167.683594 425.792969 L 160.589844 425.792969 C 167.058594 402.363281 173.46875 379.136719 179.929688 355.730469 C 182.148438 354.878906 184.492188 355.625 187.144531 355.222656 C 193.613281 378.773438 200.039063 402.179688 206.527344 425.824219 L 199.472656 425.824219 C 194.304688 407.121094 189.117188 388.339844 183.605469 368.394531 C 178.097656 388.25 172.882813 407.046875 167.683594 425.792969 "/>
<path style=" stroke:none;fill-rule:nonzero;fill:rgb(23.098755%,23.098755%,23.498535%);fill-opacity:1;" d="M 723.984375 396.195313 L 700.953125 396.195313 L 700.953125 425.761719 L 694.347656 425.761719 L 694.347656 386.160156 L 708.878906 386.160156 L 708.878906 355.550781 L 715.316406 355.550781 L 715.316406 385.761719 L 729.847656 385.761719 L 729.847656 425.707031 L 723.984375 425.707031 "/>
<path style=" stroke:none;fill-rule:nonzero;fill:rgb(23.098755%,23.098755%,23.498535%);fill-opacity:1;" d="M 737.042969 370.476563 C 747.371094 364.449219 757.542969 358.511719 768.425781 352.15625 C 768.425781 354.953125 768.265625 356.984375 768.464844 358.984375 C 768.699219 361.277344 767.722656 362.554688 765.804688 363.636719 C 760.386719 366.695313 755.058594 369.90625 749.339844 373.265625 C 752.402344 377.429688 755.121094 381.542969 758.285156 385.285156 C 760.246094 387.605469 759.847656 389.152344 758.171875 391.308594 C 754.828125 395.613281 751.75 400.128906 748.285156 404.945313 C 752.980469 407.894531 757.246094 411.113281 761.96875 413.398438 C 767.847656 416.246094 769.949219 420.332031 767.773438 427.136719 C 757.539063 420.832031 747.238281 414.484375 736.535156 407.890625 C 740.738281 402.410156 744.628906 397.085938 748.816406 392 C 750.683594 389.734375 750.53125 388.199219 748.753906 385.988281 C 744.753906 381.019531 741.042969 375.8125 737.042969 370.476563 "/>
<path style=" stroke:none;fill-rule:nonzero;fill:rgb(23.098755%,23.098755%,23.498535%);fill-opacity:1;" d="M 294.3125 404.96875 C 299.804688 408.429688 304.835938 411.90625 310.164063 414.835938 C 313.472656 416.652344 314.925781 418.847656 314.285156 422.554688 C 314.070313 423.816406 314.253906 425.152344 314.253906 427.433594 C 303.4375 420.769531 293.152344 414.433594 282.535156 407.890625 C 286.859375 402.25 290.871094 396.835938 295.101563 391.605469 C 296.621094 389.730469 296.65625 388.496094 295.144531 386.582031 C 291.050781 381.398438 287.207031 376.015625 283.085938 370.46875 C 293.402344 364.4375 303.441406 358.566406 314.257813 352.242188 C 314.257813 355.582031 314.164063 358.117188 314.289063 360.640625 C 314.386719 362.585938 312.820313 362.972656 311.6875 363.652344 C 306.367188 366.851563 300.984375 369.953125 295.324219 373.269531 C 298.542969 377.640625 301.496094 381.894531 304.730469 385.929688 C 306.164063 387.722656 306.023438 388.863281 304.6875 390.613281 C 301.144531 395.238281 297.84375 400.046875 294.3125 404.96875 "/>
<path style=" stroke:none;fill-rule:nonzero;fill:rgb(23.098755%,23.098755%,23.498535%);fill-opacity:1;" d="M 166.617188 453.964844 C 160.992188 478.691406 155.496094 502.855469 150 527.019531 C 149.609375 527.046875 149.21875 527.074219 148.828125 527.097656 C 143.199219 502.824219 137.566406 478.550781 131.925781 454.234375 C 138.484375 453.265625 138.507813 453.261719 139.71875 458.667969 C 142.851563 472.640625 145.960938 486.617188 149.648438 500.71875 C 153.046875 485.121094 156.441406 469.523438 159.832031 453.964844 "/>
<path style=" stroke:none;fill-rule:nonzero;fill:rgb(23.098755%,23.098755%,23.498535%);fill-opacity:1;" d="M 542.042969 355.074219 C 544.304688 362.4375 541.597656 366.617188 535.328125 369.347656 C 531.433594 371.042969 527.914063 373.605469 523.980469 375.921875 C 527.058594 380.699219 529.914063 385.433594 533.105469 389.933594 C 534.488281 391.886719 534.226563 393.257813 533.09375 395.082031 C 527.542969 404.027344 521.925781 412.941406 516.699219 422.074219 C 514.96875 425.101563 513.121094 426.519531 509.691406 425.980469 C 508.335938 425.769531 506.917969 425.949219 504.921875 425.949219 C 511.089844 415.832031 516.863281 406.152344 522.878906 396.625 C 524.414063 394.199219 524.511719 392.507813 522.816406 390.105469 C 518.9375 384.605469 515.414063 378.859375 511.613281 373.007813 C 521.9375 366.925781 531.957031 361.019531 542.042969 355.074219 "/>
<path style=" stroke:none;fill-rule:nonzero;fill:rgb(23.098755%,23.098755%,23.498535%);fill-opacity:1;" d="M 304.410156 477.953125 C 299.851563 477.925781 300.90625 474.078125 299.414063 471.9375 C 300.851563 470.792969 302.378906 471.6875 304.085938 470.996094 L 304.085938 453.980469 L 323.398438 453.980469 C 324.257813 455.832031 323.542969 457.886719 323.902344 460.203125 L 310.871094 460.203125 L 310.871094 471.320313 C 313.039063 471.320313 315.210938 471.320313 317.386719 471.320313 C 323.308594 471.320313 323.308594 471.320313 325.0625 477.625 L 310.84375 477.625 L 310.84375 519.273438 L 323.378906 519.273438 C 324.050781 521.625 323.777344 523.542969 323.671875 525.703125 L 304.410156 525.703125 "/>
<path style=" stroke:none;fill-rule:nonzero;fill:rgb(23.098755%,23.098755%,23.498535%);fill-opacity:1;" d="M 381.152344 279.898438 C 386.59375 282.367188 388.273438 289.539063 395.332031 289.703125 L 395.332031 303.304688 C 390.910156 299.289063 386.925781 295.671875 382.953125 292.066406 C 379.113281 295.261719 379.035156 296.25 382.320313 299.828125 C 384.789063 302.515625 386.929688 305.664063 389.824219 307.777344 C 397.890625 313.675781 393.265625 326.300781 383.300781 328.832031 C 378.363281 330.082031 373.652344 329.25 369.304688 326.867188 C 363.910156 323.910156 362.0625 319 364.042969 312.417969 C 365.117188 308.847656 365.511719 305.589844 363.183594 302.378906 C 367.675781 301.804688 369.167969 302.855469 369.320313 306.996094 C 369.375 308.410156 369.976563 309.09375 370.898438 309.847656 C 372.488281 311.152344 372.945313 312.796875 372.078125 315.058594 C 370.550781 313.867188 368.886719 312.710938 367.507813 315.109375 C 366.140625 317.488281 366.699219 319.789063 368.355469 321.601563 C 372.3125 325.929688 381.453125 326.039063 384.875 320.613281 C 386.730469 317.667969 386.84375 315.117188 384.242188 312.5625 C 380.703125 309.082031 377.179688 305.585938 373.816406 301.941406 C 370.269531 298.09375 370.164063 296.226563 372.996094 291.90625 C 375.636719 287.882813 378.402344 283.933594 381.152344 279.898438 "/>
<path style=" stroke:none;fill-rule:nonzero;fill:rgb(23.098755%,23.098755%,23.498535%);fill-opacity:1;" d="M 190.976563 525.757813 L 171.71875 525.757813 L 171.71875 478.035156 C 167.5 477.875 168.339844 474.152344 166.847656 471.953125 C 168.265625 470.800781 169.777344 471.65625 171.496094 471.027344 L 171.496094 454.011719 L 191.0625 454.011719 L 191.0625 460.296875 L 178.191406 460.296875 L 178.191406 470.96875 C 180.347656 471.65625 182.5625 471.277344 184.730469 471.300781 C 190.640625 471.359375 190.640625 471.320313 192.636719 477.632813 L 178.199219 477.632813 L 178.199219 519.324219 L 190.976563 519.324219 "/>
<path style=" stroke:none;fill-rule:nonzero;fill:rgb(23.098755%,23.098755%,23.498535%);fill-opacity:1;" d="M 567.117188 454.183594 C 571.9375 453.152344 575.4375 453.480469 577.789063 458.269531 C 579.78125 462.332031 582.75 465.917969 585.539063 470.09375 C 588.042969 466.242188 590.824219 462.765625 592.714844 458.855469 C 594.988281 454.148438 598.308594 452.828125 603.363281 454.109375 C 601.65625 458.042969 599.1875 461.570313 596.558594 464.800781 C 590.316406 472.460938 587.90625 480.839844 588.628906 490.765625 C 589.375 501.035156 588.789063 511.398438 588.789063 521.722656 C 588.789063 522.996094 588.789063 524.269531 588.789063 525.515625 C 586.519531 526.175781 584.621094 526.023438 582.714844 525.710938 C 581.890625 524.292969 582.273438 522.828125 582.269531 521.433594 C 582.242188 507.710938 582.21875 493.988281 582.304688 480.269531 C 582.320313 477.804688 581.722656 475.765625 580.308594 473.730469 C 575.871094 467.347656 571.597656 460.847656 567.117188 454.183594 "/>
<path style=" stroke:none;fill-rule:nonzero;fill:rgb(23.098755%,23.098755%,23.498535%);fill-opacity:1;" d="M 257.03125 453.734375 C 257.285156 456.121094 257.4375 457.921875 256.902344 460.0625 C 255.640625 460.0625 254.355469 460.035156 253.070313 460.066406 C 244.316406 460.257813 241.160156 465.269531 244.808594 473.3125 C 246.851563 477.820313 249.070313 482.246094 251.203125 486.714844 C 253.226563 490.945313 255.277344 495.167969 257.246094 499.425781 C 263.980469 513.992188 257.347656 525.058594 241.371094 525.914063 C 239.316406 526.023438 237.25 525.929688 234.980469 525.929688 L 234.980469 519.410156 C 237.511719 519.410156 239.941406 519.449219 242.371094 519.40625 C 251.316406 519.242188 255.746094 512.730469 252.152344 504.519531 C 247.917969 494.851563 243.285156 485.363281 238.828125 475.792969 C 237.496094 472.925781 236.527344 469.984375 236.777344 466.742188 C 237.3125 459.730469 242.378906 454.597656 249.371094 454.089844 C 251.824219 453.910156 254.285156 453.859375 257.03125 453.734375 "/>
<path style=" stroke:none;fill-rule:nonzero;fill:rgb(23.098755%,23.098755%,23.498535%);fill-opacity:1;" d="M 668.503906 454.148438 C 669.027344 455.980469 668.851563 457.769531 668.632813 459.535156 C 667.394531 460.386719 666.054688 460.027344 664.785156 460.054688 C 655.695313 460.246094 652.582031 465.09375 656.410156 473.464844 C 659.8125 480.914063 663.515625 488.226563 667 495.636719 C 668.875 499.625 671.058594 503.511719 671.3125 508.085938 C 671.847656 517.710938 665.917969 524.699219 656.359375 525.625 C 653.125 525.9375 649.886719 526.136719 646.40625 525.785156 L 646.40625 519.410156 C 649.136719 519.410156 651.722656 519.472656 654.300781 519.398438 C 662.738281 519.15625 667.144531 512.695313 663.78125 504.933594 C 659.804688 495.75 655.347656 486.773438 651.152344 477.683594 C 649.683594 474.5 648.269531 471.335938 648.359375 467.636719 C 648.554688 459.980469 653.40625 454.675781 661.109375 454.074219 C 663.554688 453.882813 666.011719 453.410156 668.503906 454.148438 "/>
<path style=" stroke:none;fill-rule:nonzero;fill:rgb(23.098755%,23.098755%,23.498535%);fill-opacity:1;" d="M 330.539063 385.722656 L 330.539063 355.683594 C 332.765625 355.125 334.773438 355.347656 336.976563 355.457031 L 336.976563 385.519531 C 340.53125 386.503906 344.070313 385.484375 347.730469 386.175781 L 347.730469 395.191406 L 337.324219 395.191406 L 337.324219 425.488281 C 335.027344 426.257813 333.011719 425.871094 330.621094 425.894531 L 330.621094 395.386719 L 319.734375 395.386719 L 319.734375 386.289063 C 323.105469 385.433594 326.640625 386.3125 330.539063 385.722656 "/>
<path style=" stroke:none;fill-rule:nonzero;fill:rgb(23.098755%,23.098755%,23.498535%);fill-opacity:1;" d="M 290.796875 525.394531 C 288.597656 526.304688 286.667969 525.917969 284.40625 525.769531 L 284.40625 460.902344 C 281.597656 459.742188 278.929688 460.773438 276.140625 460.101563 C 275.558594 458.191406 275.78125 456.179688 276.03125 453.996094 L 298.707031 453.996094 C 299.277344 456.078125 299.214844 457.96875 298.730469 460.246094 L 290.796875 460.246094 "/>
<path style=" stroke:none;fill-rule:nonzero;fill:rgb(23.098755%,23.098755%,23.498535%);fill-opacity:1;" d="M 771.878906 453.914063 L 777.96875 453.914063 L 777.96875 519.285156 L 791.152344 519.285156 C 791.910156 521.636719 791.746094 523.609375 791.359375 525.761719 L 771.878906 525.761719 "/>
<path style=" stroke:none;fill-rule:nonzero;fill:rgb(23.098755%,23.098755%,23.498535%);fill-opacity:1;" d="M 517.761719 453.894531 L 523.804688 453.894531 L 523.804688 519.238281 L 536.921875 519.238281 C 537.878906 521.566406 537.371094 523.554688 537.417969 525.734375 L 517.761719 525.734375 "/>
<path style=" stroke:none;fill-rule:nonzero;fill:rgb(23.098755%,23.098755%,23.498535%);fill-opacity:1;" d="M 264.84375 525.820313 L 270.835938 525.820313 L 270.835938 454.046875 L 264.84375 454.046875 Z M 264.84375 525.820313 "/>
<path style=" stroke:none;fill-rule:nonzero;fill:rgb(23.098755%,23.098755%,23.498535%);fill-opacity:1;" d="M 762.558594 453.996094 L 762.558594 525.402344 C 760.59375 526.394531 758.578125 525.882813 756.34375 525.765625 L 756.34375 454.292969 C 758.179688 453.351563 760.195313 453.839844 762.558594 453.996094 "/>
<path style=" stroke:none;fill-rule:nonzero;fill:rgb(23.098755%,23.098755%,23.498535%);fill-opacity:1;" d="M 121.050781 454.199219 C 122.898438 453.457031 124.820313 453.808594 127.019531 453.988281 L 127.019531 525.703125 L 121.050781 525.703125 "/>
<path style=" stroke:none;fill-rule:nonzero;fill:rgb(23.098755%,23.098755%,23.498535%);fill-opacity:1;" d="M 635.324219 525.859375 L 641.238281 525.859375 L 641.238281 454.054688 L 635.324219 454.054688 Z M 635.324219 525.859375 "/>
<path style=" stroke:none;fill-rule:nonzero;fill:rgb(23.098755%,23.098755%,23.498535%);fill-opacity:1;" d="M 217.089844 409.421875 C 217.101563 414.289063 219.464844 418.097656 222.480469 418.113281 C 225.292969 418.128906 227.847656 414.367188 228.078125 409.863281 C 228.320313 405.273438 225.585938 400.851563 222.496094 400.828125 C 219.390625 400.808594 217.078125 404.484375 217.089844 409.421875 M 233.09375 410.394531 C 233.191406 414.3125 232.261719 418.566406 229.496094 422.289063 C 225.914063 427.117188 220.0625 427.410156 216.066406 422.980469 C 210.179688 416.457031 210.1875 402.671875 216.074219 396.105469 C 219.847656 391.898438 225.222656 391.976563 228.945313 396.285156 C 232.304688 400.171875 233.136719 404.832031 233.09375 410.394531 "/>
<path style=" stroke:none;fill-rule:nonzero;fill:rgb(23.098755%,23.098755%,23.498535%);fill-opacity:1;" d="M 495.597656 409.421875 C 495.578125 404.628906 493.496094 401.0625 490.585938 400.839844 C 487.683594 400.617188 485.488281 403.457031 484.785156 408.347656 C 484.152344 412.738281 486.824219 417.859375 489.878906 418.109375 C 493.136719 418.378906 495.617188 414.613281 495.597656 409.421875 M 479.578125 409.710938 C 479.566406 404.949219 480.34375 400.445313 483.480469 396.601563 C 487.382813 391.820313 493.253906 391.796875 497.089844 396.617188 C 502.296875 403.160156 502.378906 415.617188 497.253906 422.226563 C 493.109375 427.574219 486.8125 427.386719 482.917969 421.871094 C 480.324219 418.199219 479.570313 414.074219 479.578125 409.710938 "/>
<path style=" stroke:none;fill-rule:nonzero;fill:rgb(23.098755%,23.098755%,23.498535%);fill-opacity:1;" d="M 97.097656 409.257813 C 97.058594 404.703125 94.714844 400.980469 91.804688 400.839844 C 88.703125 400.6875 86.207031 404.394531 86.125 409.273438 C 86.046875 413.878906 88.511719 417.988281 91.429688 418.117188 C 94.589844 418.257813 97.144531 414.265625 97.097656 409.257813 M 102.53125 409.59375 C 102.191406 413.941406 101.503906 418.128906 98.964844 421.78125 C 94.886719 427.648438 88.203125 427.605469 84.203125 421.683594 C 79.6875 414.992188 79.613281 404.296875 84.039063 397.679688 C 88.246094 391.386719 95.09375 391.433594 99.25 397.78125 C 101.605469 401.386719 102.195313 405.46875 102.53125 409.59375 "/>
<path style=" stroke:none;fill-rule:nonzero;fill:rgb(23.098755%,23.098755%,23.498535%);fill-opacity:1;" d="M 672.828125 409.199219 C 672.828125 409.589844 672.820313 409.980469 672.828125 410.367188 C 672.929688 414.617188 675.0625 417.90625 677.84375 418.109375 C 680.652344 418.316406 682.925781 415.421875 683.472656 410.914063 C 683.546875 410.273438 683.558594 409.617188 683.527344 408.972656 C 683.285156 404.101563 680.996094 400.742188 678.003906 400.839844 C 674.96875 400.933594 672.851563 404.355469 672.828125 409.199219 M 667.363281 409.210938 C 667.351563 404.664063 668.410156 400.429688 671.203125 396.773438 C 674.941406 391.875 680.480469 391.699219 684.558594 396.261719 C 690.339844 402.722656 690.246094 416.769531 684.382813 423.121094 C 680.574219 427.25 675.082031 427.089844 671.460938 422.746094 C 668.746094 419.496094 667.359375 414.902344 667.363281 409.210938 "/>
<path style=" stroke:none;fill-rule:nonzero;fill:rgb(23.098755%,23.098755%,23.498535%);fill-opacity:1;" d="M 338.390625 265.6875 C 334.679688 267.085938 334.253906 269.46875 334.289063 272.46875 C 334.429688 285.355469 334.347656 298.246094 334.347656 311.339844 L 326.859375 311.339844 L 326.859375 254.878906 C 330.886719 258.652344 334.417969 261.964844 338.390625 265.6875 "/>
<path style=" stroke:none;fill-rule:nonzero;fill:rgb(23.098755%,23.098755%,23.498535%);fill-opacity:1;" d="M 438.429688 370.675781 C 438.4375 365.703125 435.839844 361.601563 432.746094 361.695313 C 429.761719 361.78125 427.292969 365.75 427.277344 370.488281 C 427.261719 375.628906 429.726563 379.453125 432.976563 379.347656 C 436.148438 379.242188 438.421875 375.628906 438.429688 370.675781 M 443.726563 371.171875 C 443.527344 374.609375 442.824219 378.132813 440.789063 381.273438 C 436.683594 387.609375 429.390625 387.734375 425.070313 381.554688 C 420.769531 375.394531 421.136719 364.722656 425.855469 358.847656 C 430.089844 353.582031 437.074219 354.179688 440.816406 360.183594 C 442.855469 363.457031 443.640625 367.109375 443.726563 371.171875 "/>
<path style=" stroke:none;fill-rule:nonzero;fill:rgb(23.098755%,23.098755%,23.498535%);fill-opacity:1;" d="M 438.3125 409.777344 C 438.292969 409.292969 438.289063 408.027344 437.832031 406.746094 C 436.914063 404.160156 435.6875 401.746094 432.648438 401.710938 C 429.308594 401.664063 428.09375 404.410156 427.402344 407.09375 C 426.996094 408.664063 426.761719 410.339844 427.082031 412.101563 C 427.875 416.453125 429.78125 419.007813 432.640625 419 C 435.59375 418.992188 437.976563 415.953125 438.308594 411.761719 C 438.339844 411.371094 438.3125 410.976563 438.3125 409.777344 M 421.84375 409.285156 C 421.9375 406.070313 422.96875 401.988281 425.78125 398.511719 C 429.335938 394.113281 435.058594 393.890625 439.011719 397.972656 C 444.820313 403.96875 444.800781 417.027344 438.96875 423.039063 C 434.710938 427.433594 428.617188 426.808594 425.011719 421.5 C 422.765625 418.195313 421.808594 414.453125 421.84375 409.285156 "/>
<path style=" stroke:none;fill-rule:nonzero;fill:rgb(23.098755%,23.098755%,23.498535%);fill-opacity:1;" d="M 334.382813 316.015625 C 335.605469 319.523438 332.921875 321.839844 334.355469 324.441406 C 332.574219 325.46875 330.746094 322.871094 329.464844 325.414063 C 330.914063 330.234375 335.15625 329.40625 338.941406 329.476563 C 340.011719 330.820313 339.222656 332.242188 339.550781 334.050781 C 336.554688 334.050781 333.835938 334.222656 331.148438 334.003906 C 328.21875 333.761719 326.421875 335.601563 324.242188 337.734375 C 323.675781 333.625 325.382813 331.398438 328.558594 329.597656 C 327.664063 328.839844 326.890625 328.148438 326.074219 327.5 C 324.28125 326.070313 324.058594 324.0625 324.648438 322.175781 C 325.226563 320.339844 326.847656 319.308594 328.886719 319.277344 C 331.070313 319.246094 332.964844 318.632813 334.382813 316.015625 "/>
<path style=" stroke:none;fill-rule:nonzero;fill:rgb(23.098755%,23.098755%,23.498535%);fill-opacity:1;" d="M 545.949219 269.734375 C 544.148438 267.636719 542.390625 265.589844 540.453125 263.332031 C 542.210938 261.84375 544.164063 260.183594 546.363281 258.316406 C 547.839844 259.613281 549.75 261.289063 551.789063 263.078125 C 553.75 261.296875 555.550781 259.65625 557.710938 257.691406 C 559.378906 259.894531 560.9375 261.949219 562.742188 264.332031 C 561.558594 265.625 559.769531 267.570313 557.871094 269.644531 C 555.847656 267.824219 554.03125 266.1875 552.003906 264.363281 C 550.0625 266.082031 548.160156 267.773438 545.949219 269.734375 "/>
<path style=" stroke:none;fill-rule:nonzero;fill:rgb(23.098755%,23.098755%,23.498535%);fill-opacity:1;" d="M 117.851563 328.296875 C 115.914063 330.054688 114.105469 331.699219 112.019531 333.59375 C 110.128906 331.804688 108.273438 330.046875 106.285156 328.167969 C 107.652344 325.675781 109.796875 323.972656 111.609375 321.902344 C 114.058594 323.042969 115.195313 325.746094 118.371094 327.027344 C 119.699219 325.355469 121.214844 323.445313 122.898438 321.324219 C 125.121094 323.710938 126.871094 325.585938 128.695313 327.542969 C 127.335938 329.902344 125.296875 331.523438 123.433594 333.535156 C 121.574219 331.789063 119.796875 330.125 117.851563 328.296875 "/>
<path style=" stroke:none;fill-rule:nonzero;fill:rgb(23.098755%,23.098755%,23.498535%);fill-opacity:1;" d="M 386 341.867188 C 384.253906 340.289063 382.828125 339.003906 381.429688 337.742188 C 379.28125 338.53125 378.339844 340.617188 376.550781 341.703125 C 374.328125 340.605469 372.949219 338.710938 371.320313 336.9375 C 372.402344 334.734375 374.46875 333.53125 376.042969 331.558594 C 377.714844 333.132813 379.210938 334.542969 380.769531 336.015625 C 382.9375 335.242188 384.132813 333.246094 386.050781 331.855469 C 387.824219 333.265625 389.566406 334.703125 390.9375 336.648438 C 389.671875 338.765625 387.894531 340.238281 386 341.867188 "/>
<path style=" stroke:none;fill-rule:nonzero;fill:rgb(23.098755%,23.098755%,23.498535%);fill-opacity:1;" d="M 322.726563 439.191406 C 320.3125 442.667969 318.191406 445.742188 316.050781 448.800781 C 314.1875 451.464844 311.464844 449.378906 309.132813 450.398438 C 311.066406 442.761719 315.984375 438.597656 322.726563 439.191406 "/>
<path style=" stroke:none;fill-rule:nonzero;fill:rgb(23.098755%,23.098755%,23.498535%);fill-opacity:1;" d="M 755.386719 327.351563 C 757.445313 325.179688 759.21875 323.308594 761.214844 321.210938 C 763.28125 323.175781 765.210938 325.019531 767.148438 326.867188 C 765.066406 328.726563 763.15625 330.433594 760.851563 332.488281 C 759.027344 331.742188 757.441406 329.527344 755.386719 327.351563 "/>
<path style=" stroke:none;fill-rule:nonzero;fill:rgb(23.098755%,23.098755%,23.498535%);fill-opacity:1;" d="M 754.234375 440.160156 C 756.652344 440.460938 758.210938 441.828125 758.0625 444.207031 C 757.917969 446.480469 756.464844 448.050781 753.9375 447.875 C 751.6875 447.722656 750.425781 446.4375 750.386719 444.105469 C 750.347656 441.496094 751.929688 440.480469 754.234375 440.160156 "/>
<path style=" stroke:none;fill-rule:nonzero;fill:rgb(23.098755%,23.098755%,23.498535%);fill-opacity:1;" d="M 768.585938 443.769531 C 768.46875 446.457031 767.226563 447.789063 764.957031 447.867188 C 762.464844 447.953125 760.960938 446.414063 760.921875 444.078125 C 760.886719 441.65625 762.625 440.179688 764.96875 440.308594 C 767.054688 440.421875 768.507813 441.777344 768.585938 443.769531 "/>
<path style=" stroke:none;fill-rule:nonzero;fill:rgb(23.098755%,23.098755%,23.498535%);fill-opacity:1;" d="M 600.96875 390.609375 C 600.855469 396.183594 598.53125 399.609375 594.921875 399.539063 C 591.410156 399.46875 588.945313 395.726563 588.9375 390.449219 C 588.925781 385.285156 591.484375 381.3125 594.855469 381.257813 C 598.441406 381.195313 601.078125 385.226563 600.96875 390.609375 "/>
<path style=" stroke:none;fill-rule:nonzero;fill:rgb(23.098755%,23.098755%,23.498535%);fill-opacity:1;" d="M 136.863281 390.351563 C 136.871094 395.710938 134.109375 399.6875 130.476563 399.550781 C 127.089844 399.425781 124.515625 395.390625 124.558594 390.28125 C 124.601563 385.191406 127.316406 381.210938 130.71875 381.257813 C 134.105469 381.304688 136.855469 385.371094 136.863281 390.351563 "/>
</g>
</svg>
