<svg id="Layer_1" data-name="Layer 1" xmlns="http://www.w3.org/2000/svg" viewBox="0 0 2233.77 377.59"><defs><style>.cls-1{fill:#121d30;}.cls-2{fill:#e9933d;}</style></defs><path class="cls-1" d="M-447.76-508.71v0L-546-311.33l-30.84-197.35v0H-691.78v0a54.15,54.15,0,0,1,4.19,21,54.28,54.28,0,0,1-54.3,54.29,54.09,54.09,0,0,1-35.06-12.82l-69.58,288.49h127.66l49.5-210,38,210H-510.9l108.32-210-20.82,210h127.66l33-350.92v0Z" transform="translate(846.53 533.83)"/><path class="cls-1" d="M59.57-508.68H-144.66l-125.5,225.79H-147l31-62.43h92.83l10.33,62.43h123.2ZM-88.1-409.8l44.3-89.33L-28-409.8Z" transform="translate(846.53 533.83)"/><path class="cls-1" d="M-.4-227.88H-149.08l-39,70.12H15.36Z" transform="translate(846.53 533.83)"/><path class="cls-1" d="M485.3-315c11.54-70.05-62.5-97.45-153.54-97.45-120.17,0-173.56,48.22-183.27,106.09s61.28,78.7,132.28,89.87c41.27,6.58,79.5,9.61,77.07,24.36-2.39,12.69-7.25,20.28-46.09,20.28-43.1,0-58.28-6.07-54.64-29.42h-125c-2.87,16.87-.71,31.31,5.43,43.56H455.91a97.3,97.3,0,0,0,20.89-46.1c8.5-49.77-30.95-73.12-89.8-83.25-23.69-4.08-122-15.75-118.35-35.06.61-5.06,6.68-20.28,45.53-20.28,32.76,0,46.7,10.67,44.27,27.4Z" transform="translate(846.53 533.83)"/><path class="cls-1" d="M338-508.68a186.06,186.06,0,0,1-19,.85c-8.67,0-16.23-.24-22.71-.85H139.54c10.67,50.52,78.63,70.9,156.38,70.9,97.93,0,154.35-29.05,177.37-70.9Z" transform="translate(846.53 533.83)"/><path class="cls-1" d="M512.8-507.4l-13.33,76.64h95.27L558.32-210.44H675.46l36.41-220.32L1023.78-432l13.36-76.64Z" transform="translate(846.53 533.83)"/><path class="cls-1" d="M1005.08-322.91l13.36-76.67H745.34L704.81-157.76h273l3.58-21.49H826.06l6.08-36.55H948.66l11.51-69H843.68l6-38.07Z" transform="translate(846.53 533.83)"/><path class="cls-1" d="M1386.07-456.27c2.63-16.54,1.08-35.23-7.36-52.41H1077.53L1037.14-267.4h117.74l13.33-80.21H1204l32.77,80.21h117.74l-40.67-99.51C1359.38-389.25,1380.63-426.31,1386.07-456.27Zm-112.27.5c-3.61,20.32-22.44,31.49-44.28,31.49H1181l10.33-63.44h48.52C1261.68-487.72,1276.83-476,1273.8-455.77Z" transform="translate(846.53 533.83)"/><path class="cls-1" d="M-576.87-508.71v0H-691.78v0Z" transform="translate(846.53 533.83)"/><rect class="cls-1" x="398.77" y="25.12" width="185.03" height="0.03"/><path class="cls-2" d="M1082.68-243.08c19.51,0,31.47,11.07,36.12,22l-23.4,9.57c-1.77-5.16-8.69-9.19-16.36-9.19-12.84,0-23,10.82-23,24.16,0,8.81,6.67,17.87,18.88,17.87a19.52,19.52,0,0,0,12.09-3.77l.75-3.78h-16.23l4.78-20.89h40.9l-7.55,33.85c-7.93,10.58-20.89,17-36.12,17-23,0-43.8-14-43.8-38.51C1029.7-222.32,1050.85-243.08,1082.68-243.08Z" transform="translate(846.53 533.83)"/><path class="cls-2" d="M1174.81-157.76l-1-10.82h-32.09l-5.67,10.82h-28.81l49.45-83.94h32l12.45,83.94Zm-5.66-62.8-16.23,30.84H1172Z" transform="translate(846.53 533.83)"/><path class="cls-2" d="M1214.84-157.76l13.59-61.79h-22.52l4.91-22.15h70.34l-4.91,22.15h-22.4l-13.59,61.79Z" transform="translate(846.53 533.83)"/><path class="cls-2" d="M1271.73-157.76l18.5-83.94h63.67l-4.65,21.14H1311l-2.14,9.82h37.38l-4.66,21.14H1304.2l-2.39,10.7h38.25l-4.65,21.14Z" transform="translate(846.53 533.83)"/><circle class="cls-2" cx="101.24" cy="42.56" r="42.56"/></svg>